<svg width="669" height="539" viewBox="0 0 669 539" fill="none" xmlns="http://www.w3.org/2000/svg">
<g clip-path="url(#clip0_10_64)">
<path d="M661.376 39.7203V459.78C680.349 490.5 658.149 488.48 627.699 480.99C557.27 463.624 484.713 456.46 412.249 459.72C403.509 460.11 394.782 460.657 386.069 461.36C381.969 461.69 377.869 462.053 373.769 462.45C358.119 463.98 342.509 466 326.939 468.51C324.009 468.98 321.085 469.473 318.169 469.99C315.439 470.46 312.719 470.95 309.989 471.46C295.159 474.21 280.395 477.417 265.699 481.08C265.679 481.09 265.649 481.09 265.629 481.1L191.729 499.56L35.9987 538.45C3.30869 538.45 -23.1913 511.95 31.5126 475.538V55.4779C-23.1913 26.5 3.30868 0 35.9987 0L265.761 64.4168C358.617 90.4493 456.778 90.9356 549.888 65.8244C613.615 48.6382 670.858 33.1136 661.376 39.7203Z" fill="white"/>
<path d="M280.936 87.2224C288.804 62.1471 306.696 39.149 331.441 30.6722C356.187 22.1954 392.421 35.1083 411.025 53.6489C445.054 87.5632 446.101 129.08 422.722 165.898C418.071 165.652 402.025 165.47 397.319 165.294L390.66 143.103V165.075C353.924 163.94 313.035 194.156 277.411 165.386C273.981 139.318 273.068 112.298 280.936 87.2224Z" fill="#2F2E41"/>
<path d="M381.55 343.539L389.142 363.278L387.624 383.018L241.852 364.797L246.407 348.094L263.11 328.354L381.55 343.539Z" fill="#FFB6B6"/>
<path d="M334.569 165.9C363.878 165.9 387.639 142.139 387.639 112.829C387.639 83.5196 363.878 59.7592 334.569 59.7592C305.259 59.7592 281.498 83.5196 281.498 112.829C281.498 142.139 305.259 165.9 334.569 165.9Z" fill="#FFB7B7"/>
<path d="M278.295 203.841L308.664 185.619L369.402 179.545L423.086 191.693L422.548 290.393L388.491 377.007L245.757 358.786L240.334 328.234C240.334 328.234 200.854 275.208 243.37 244.839L278.295 203.841Z" fill="#FA4545"/>
<path d="M412.249 459.72C403.509 460.11 394.782 460.657 386.069 461.36C381.969 461.69 377.869 462.053 373.769 462.45C358.119 463.98 342.509 466 326.939 468.51C324.009 468.98 321.085 469.473 318.169 469.99C315.439 470.46 312.719 470.95 309.989 471.46C295.159 474.21 280.395 477.417 265.699 481.08C265.679 481.09 265.649 481.09 265.629 481.1L191.729 499.56C195.999 461.06 206.059 401.65 228.189 387.57L242.649 361.85L242.659 361.83L243.549 360.26L270.329 363.05L292.849 365.4L308.389 367.02L318.099 368.02L318.249 368.04L388.209 375.33L389.109 375.43H389.139V409.15C389.139 409.15 389.599 409.74 390.379 410.85C390.699 411.29 391.059 411.81 391.459 412.4C394.557 416.925 397.401 421.619 399.979 426.46C400.399 427.24 400.819 428.04 401.229 428.87C403.98 434.208 406.362 439.727 408.359 445.39C410.014 450.062 411.314 454.852 412.249 459.72Z" fill="#2F2E41"/>
<path d="M298.103 43.7226C318.375 31.3637 345.393 31.0074 365.986 42.8277C386.577 54.648 399.894 78.1583 399.446 101.897C369.782 103.262 339.011 131.122 307.021 103.678L299.553 85.4013L295.151 103.692C285.522 103.691 275.876 103.678 266.211 103.654C265.136 79.9347 277.829 56.0816 298.103 43.7226Z" fill="#2F2E41"/>
<path d="M425.759 384.556L477.386 414.925C489.534 408.851 487.185 369.461 479.768 367.154L474.175 235.728C471.139 174.99 423.086 191.693 423.086 191.693L401.29 196.249L416.474 260.024L432.968 370.062C430.728 371.757 428.912 373.947 427.661 376.462C426.41 378.977 425.759 381.747 425.759 384.556Z" fill="#FA4545"/>
<path d="M406.709 417.12L402.379 426.39L401.229 428.87L389.079 454.9L386.069 461.36C381.969 461.69 377.869 462.053 373.769 462.45C358.119 463.98 342.509 466 326.939 468.51L331.459 449.85L318.169 469.99C315.439 470.46 312.719 470.95 309.989 471.46C295.159 474.21 280.395 477.417 265.699 481.08L305.969 387.77V387.76L309.429 379.74L390.379 410.85L392.519 411.67L406.709 417.12Z" fill="#3F3D56"/>
<path d="M303.147 384.278C329.227 417.787 365.79 429.078 409.114 426.038L470.803 235.781L441.713 230.642L429.289 214.454L396.813 210.192L380.724 218.031L353.824 217.433L333.357 284.817L295.642 351.772L303.147 384.278Z" fill="#E6E7E8"/>
<path d="M507.635 226.713L494.659 237.986L467.885 207.169L459.804 203.83C458.182 203.16 456.741 202.116 455.6 200.783C454.458 199.451 453.647 197.868 453.233 196.163C452.819 194.457 452.814 192.679 453.218 190.971C453.623 189.264 454.424 187.676 455.559 186.337V186.337C456.596 185.112 457.887 184.125 459.342 183.445C460.797 182.766 462.381 182.409 463.987 182.398C465.593 182.388 467.182 182.726 468.645 183.387C470.108 184.049 471.411 185.019 472.464 186.231L480.86 195.895L507.635 226.713Z" fill="#FFB8B8"/>
<path d="M437.791 302.834L487.305 261.36L507.426 243.122C508.864 241.818 510.017 240.231 510.812 238.461C511.608 236.69 512.028 234.775 512.048 232.834C512.068 230.893 511.686 228.969 510.927 227.183C510.167 225.397 509.047 223.787 507.635 222.454V222.454L507.291 216.244C507.2 214.597 506.758 212.989 505.994 211.527C505.231 210.065 504.164 208.783 502.865 207.767C501.566 206.751 500.065 206.024 498.462 205.635C496.859 205.247 495.192 205.205 493.571 205.513V205.513L476.348 222.454L485.914 227.92L474.91 234.547L446.694 236.145L437.791 302.834Z" fill="#E6E7E8"/>
<path d="M424.487 210.632C446.44 210.632 464.237 192.836 464.237 170.882C464.237 148.929 446.44 131.132 424.487 131.132C402.534 131.132 384.737 148.929 384.737 170.882C384.737 192.836 402.534 210.632 424.487 210.632Z" fill="#FFB8B8"/>
<path d="M454.565 124.276C479.029 133.388 493.754 146.417 484.642 170.882C475.53 195.347 450.646 219.755 426.181 210.643C401.716 201.531 417.598 192.798 390.66 143.103C378.219 120.151 430.1 115.165 454.565 124.276Z" fill="#2F2E41"/>
<path d="M473.949 412.9C473.749 413.03 473.539 413.16 473.329 413.28C472.919 413.53 472.499 413.76 472.069 413.97L408.359 445.39L389.079 454.9L373.769 462.45C358.119 463.98 342.509 466 326.939 468.51C324.009 468.98 321.085 469.473 318.169 469.99C315.439 470.46 312.719 470.95 309.989 471.46C309.747 469.67 309.72 467.857 309.909 466.06C310.245 462.721 311.282 459.491 312.953 456.581C314.624 453.671 316.891 451.147 319.605 449.174C322.319 447.201 325.419 445.823 328.703 445.131C331.987 444.44 335.379 444.449 338.659 445.16C339.883 445.433 341.084 445.804 342.249 446.27L373.319 424.88L391.459 412.4L392.519 411.67L419.879 392.83L419.889 392.82L428.489 386.91L429.069 386.51L434.899 382.5L432.779 355.26L473.469 346.69L481.909 394.55C482.527 398.052 482.102 401.659 480.686 404.921C479.271 408.184 476.928 410.958 473.949 412.9Z" fill="#FFB6B6"/>
<path d="M478.497 367.154L475.928 328.354L432.779 355.258L431.697 370.062C429.457 371.757 427.64 373.947 426.389 376.462C425.138 378.976 424.487 381.747 424.487 384.556L476.114 414.925C488.262 408.851 485.914 369.461 478.497 367.154Z" fill="#FA4545"/>
<path d="M222.938 186.867C223.248 188.843 223.988 190.728 225.106 192.387C226.223 194.047 227.691 195.441 229.405 196.472C231.12 197.503 233.04 198.145 235.029 198.354C237.019 198.563 239.03 198.333 240.922 197.68L350.948 256.244L360.287 227.987L249.197 179.306C247.89 176.201 245.49 173.684 242.451 172.231C239.412 170.778 235.946 170.49 232.709 171.422C229.472 172.354 226.69 174.441 224.889 177.288C223.088 180.135 222.394 183.543 222.938 186.867V186.867Z" fill="#FFB6B6"/>
<path d="M395.426 271.101C395.426 271.101 374.818 284.56 361.028 277.892C349.989 272.555 316.769 243.953 303.949 232.75C302.01 234.142 299.664 234.848 297.28 234.759C294.895 234.67 292.608 233.79 290.778 232.258L310.94 203.179C318.889 202.134 320.023 207.366 319.956 210.514L340.453 218.904L357.825 218.609L396.813 266.062L395.426 271.101Z" fill="#E6E7E8"/>
<path d="M392.491 390.39C390.542 393.163 388.009 395.474 385.071 397.163C382.132 398.851 378.859 399.874 375.482 400.16C372.105 400.446 368.706 399.989 365.525 398.819C362.344 397.65 359.458 395.797 357.07 393.392L212.851 398.055L194.412 398.651C175.444 399.265 164.519 377.32 176.44 362.555L189.249 346.69L235.063 353.876L251.629 354.602L358.218 359.273C362.525 355.53 368.055 353.496 373.761 353.558C379.466 353.62 384.951 355.773 389.176 359.608C393.4 363.444 396.071 368.696 396.682 374.369C397.293 380.042 395.802 385.743 392.491 390.39L392.491 390.39Z" fill="#FFB6B6"/>
<path d="M265.275 210.643C265.275 210.643 237.785 203.668 224.754 226.106C214.323 244.07 178.838 312.01 171.471 339.894C135.529 426.513 219.096 392.019 216.758 400.19L244.715 354.299C256.863 348.225 233.48 356.064 230.4 351.709L251.83 328.417L276.126 316.269L285.04 221.163L265.275 210.643Z" fill="#FA4545"/>
</g>
<defs>
<clipPath id="clip0_10_64">
<rect width="668.405" height="538.45" fill="white"/>
</clipPath>
</defs>
</svg>
