<svg width="500" height="500" viewBox="0 0 500 500" fill="none" xmlns="http://www.w3.org/2000/svg">
<g filter="url(#filter0_d_105_2)">
<path d="M97.48 417.26C183.87 458.43 323.94 458.43 410.33 417.26C496.72 376.09 496.72 309.33 410.33 268.15C323.94 226.97 183.87 226.98 97.48 268.15C11.09 309.32 11.09 376.08 97.48 417.26Z" fill="#F0F0F0"/>
</g>
<path d="M269 392.12C283.172 392.12 294.66 386.645 294.66 379.89C294.66 373.136 283.172 367.66 269 367.66C254.828 367.66 243.34 373.136 243.34 379.89C243.34 386.645 254.828 392.12 269 392.12Z" fill="#E0E0E0"/>
<path d="M147.39 272.51L101.08 245.77L54.76 272.51L101.08 299.25L147.39 272.51Z" fill="#F0F0F0"/>
<path d="M101.08 334.91L147.39 308.17V272.51L101.08 299.25V334.91Z" fill="#EBEBEB"/>
<path d="M108 326.64C107.908 326.642 107.818 326.618 107.74 326.57C107.646 326.509 107.571 326.424 107.522 326.324C107.472 326.223 107.451 326.112 107.46 326V325.35C107.46 325.286 107.485 325.225 107.53 325.18C107.575 325.135 107.636 325.11 107.7 325.11C107.731 325.11 107.762 325.116 107.79 325.129C107.819 325.141 107.845 325.159 107.866 325.181C107.888 325.203 107.905 325.23 107.915 325.259C107.926 325.288 107.931 325.319 107.93 325.35V326C107.93 326.1 107.93 326.15 107.93 326.16C107.93 326.17 108 326.16 108.09 326.16C108.235 326.021 108.348 325.853 108.424 325.667C108.5 325.481 108.536 325.281 108.53 325.08V320.86C108.53 320.799 108.554 320.741 108.597 320.697C108.641 320.654 108.699 320.63 108.76 320.63C108.791 320.629 108.822 320.634 108.851 320.645C108.88 320.656 108.907 320.672 108.929 320.694C108.952 320.715 108.969 320.741 108.982 320.77C108.994 320.798 109 320.829 109 320.86V325C109.011 325.283 108.956 325.565 108.839 325.824C108.723 326.082 108.549 326.31 108.33 326.49C108.233 326.564 108.12 326.615 108 326.64Z" fill="#E0E0E0"/>
<path d="M105.48 323V322.59C105.532 321.538 105.831 320.512 106.352 319.597C106.873 318.682 107.602 317.901 108.48 317.32C108.795 317.043 109.188 316.873 109.604 316.832C110.021 316.791 110.44 316.882 110.802 317.092C111.165 317.302 111.452 317.62 111.624 318.001C111.795 318.383 111.843 318.809 111.76 319.22V319.35L105.48 323ZM109.94 317.37C109.521 317.385 109.113 317.513 108.76 317.74C108.004 318.231 107.365 318.881 106.885 319.644C106.405 320.407 106.096 321.266 105.98 322.16L111.32 319.08C111.338 318.78 111.28 318.48 111.151 318.209C111.021 317.938 110.825 317.704 110.58 317.53C110.391 317.401 110.169 317.328 109.94 317.32V317.37Z" fill="#E0E0E0"/>
<path d="M116.51 321.77C116.449 321.77 116.39 321.746 116.347 321.703C116.304 321.66 116.28 321.601 116.28 321.54V314.72C116.273 314.685 116.273 314.649 116.282 314.615C116.29 314.58 116.306 314.548 116.329 314.52C116.351 314.492 116.38 314.47 116.412 314.455C116.444 314.44 116.479 314.432 116.515 314.432C116.551 314.432 116.586 314.44 116.618 314.455C116.65 314.47 116.679 314.492 116.701 314.52C116.724 314.548 116.74 314.58 116.748 314.615C116.757 314.649 116.757 314.685 116.75 314.72V321.54C116.75 321.571 116.744 321.602 116.731 321.631C116.719 321.659 116.701 321.685 116.679 321.707C116.657 321.728 116.63 321.745 116.601 321.756C116.572 321.767 116.541 321.772 116.51 321.77Z" fill="#E0E0E0"/>
<path d="M115.82 316.56C115.787 316.568 115.753 316.568 115.72 316.56C115.691 316.548 115.665 316.53 115.644 316.508C115.622 316.486 115.605 316.46 115.594 316.431C115.582 316.402 115.577 316.371 115.578 316.34C115.579 316.309 115.587 316.278 115.6 316.25L116.45 314.25L117.39 315.34C117.432 315.385 117.456 315.444 117.456 315.505C117.456 315.566 117.432 315.625 117.39 315.67C117.368 315.692 117.341 315.71 117.312 315.722C117.283 315.734 117.251 315.741 117.22 315.741C117.188 315.741 117.157 315.734 117.128 315.722C117.099 315.71 117.072 315.692 117.05 315.67L116.6 315.15L116.06 316.41C116.041 316.457 116.007 316.497 115.964 316.524C115.921 316.551 115.871 316.564 115.82 316.56Z" fill="#E0E0E0"/>
<path d="M118.71 320.52C118.646 320.52 118.585 320.495 118.54 320.45C118.495 320.405 118.47 320.344 118.47 320.28V313.47C118.47 313.407 118.495 313.346 118.54 313.301C118.585 313.256 118.646 313.23 118.71 313.23C118.774 313.23 118.835 313.256 118.88 313.301C118.925 313.346 118.95 313.407 118.95 313.47V320.28C118.95 320.344 118.925 320.405 118.88 320.45C118.835 320.495 118.774 320.52 118.71 320.52Z" fill="#E0E0E0"/>
<path d="M118 315.31H117.9C117.871 315.298 117.845 315.28 117.824 315.258C117.802 315.236 117.785 315.21 117.774 315.181C117.763 315.152 117.757 315.121 117.758 315.09C117.76 315.059 117.767 315.028 117.78 315L118.62 313L119.62 314.08C119.663 314.126 119.687 314.187 119.687 314.25C119.687 314.313 119.663 314.374 119.62 314.42C119.574 314.46 119.516 314.482 119.455 314.482C119.394 314.482 119.336 314.46 119.29 314.42L118.84 313.9L118.29 315.16C118.282 315.19 118.268 315.218 118.249 315.242C118.23 315.266 118.206 315.285 118.178 315.299C118.151 315.314 118.121 315.322 118.09 315.324C118.06 315.325 118.029 315.321 118 315.31Z" fill="#E0E0E0"/>
<path d="M101.08 334.91L54.76 308.17V272.51L101.08 299.25V334.91Z" fill="#E0E0E0"/>
<path d="M76.1699 320.53L79.6599 322.55V286.89L76.1699 284.87V320.53Z" fill="#EBEBEB"/>
<path d="M127.56 290.65L120.91 294.48C120.246 294.86 119.677 295.388 119.249 296.022C118.821 296.657 118.544 297.381 118.44 298.14C118.44 299.37 119.55 299.73 120.91 298.94L127.56 295.11C128.222 294.728 128.789 294.2 129.215 293.565C129.642 292.931 129.917 292.207 130.02 291.45C130 290.22 128.92 289.86 127.56 290.65Z" fill="#E0E0E0"/>
<path d="M79.6599 286.89L125.98 260.15L122.49 258.13L76.1699 284.87L79.6599 286.89Z" fill="#FAFAFA"/>
<path d="M122.49 286.89L76.1699 260.15L79.6599 258.13L125.98 284.87L122.49 286.89Z" fill="#FAFAFA"/>
<g style="mix-blend-mode:multiply" opacity="0.8">
<g style="mix-blend-mode:multiply" opacity="0.8">
<path d="M56.78 271.34L101.19 296.95L145.45 271.4L101.08 245.77L56.78 271.34Z" fill="#E0E0E0"/>
</g>
</g>
<path d="M122.49 290.47V286.89L125.98 284.87V288.45L122.49 290.47Z" fill="#F0F0F0"/>
<path d="M145.31 232.4L98.9899 205.66L52.6699 232.4L98.9899 259.14L145.31 232.4Z" fill="#F0F0F0"/>
<g style="mix-blend-mode:multiply" opacity="0.8">
<g style="mix-blend-mode:multiply" opacity="0.8">
<path d="M56.6099 232.81L100.6 258.21L145.31 232.4L101.32 207L56.6099 232.81Z" fill="#E0E0E0"/>
</g>
</g>
<path d="M98.99 294.8L145.31 268.05V232.4L98.99 259.14V294.8Z" fill="#EBEBEB"/>
<path d="M105.9 286.53C105.809 286.527 105.72 286.503 105.64 286.46C105.546 286.399 105.471 286.314 105.421 286.213C105.372 286.113 105.351 286.001 105.36 285.89V285.24C105.353 285.205 105.353 285.169 105.362 285.134C105.37 285.099 105.386 285.067 105.409 285.039C105.431 285.012 105.46 284.99 105.492 284.974C105.524 284.959 105.559 284.951 105.595 284.951C105.631 284.951 105.666 284.959 105.698 284.974C105.73 284.99 105.759 285.012 105.781 285.039C105.804 285.067 105.82 285.099 105.828 285.134C105.837 285.169 105.837 285.205 105.83 285.24V285.89C105.83 285.99 105.83 286.04 105.83 286.05C105.83 286.06 105.9 286.05 105.98 286C106.126 285.864 106.242 285.698 106.318 285.513C106.393 285.328 106.428 285.129 106.42 284.93V280.71C106.42 280.646 106.445 280.585 106.49 280.54C106.535 280.495 106.596 280.47 106.66 280.47C106.724 280.47 106.785 280.495 106.83 280.54C106.875 280.585 106.9 280.646 106.9 280.71V284.93C106.913 285.213 106.857 285.495 106.739 285.752C106.621 286.009 106.443 286.235 106.22 286.41C106.125 286.476 106.015 286.518 105.9 286.53Z" fill="#E0E0E0"/>
<path d="M103.4 282.83V282.42C103.453 281.369 103.753 280.346 104.274 279.433C104.795 278.519 105.523 277.74 106.4 277.16C106.714 276.889 107.105 276.722 107.519 276.684C107.932 276.645 108.347 276.736 108.706 276.943C109.065 277.151 109.351 277.465 109.524 277.843C109.697 278.22 109.748 278.642 109.67 279.05V279.19L103.4 282.83ZM107.86 277.2C107.438 277.221 107.029 277.348 106.67 277.57C105.917 278.065 105.28 278.718 104.801 279.482C104.323 280.247 104.016 281.105 103.9 282L109.24 278.92C109.259 278.62 109.201 278.32 109.072 278.048C108.942 277.777 108.745 277.543 108.5 277.37C108.306 277.256 108.085 277.198 107.86 277.2Z" fill="#E0E0E0"/>
<path d="M114.43 281.66C114.366 281.66 114.305 281.635 114.26 281.59C114.215 281.545 114.19 281.484 114.19 281.42V274.61C114.19 274.546 114.215 274.485 114.26 274.44C114.305 274.395 114.366 274.37 114.43 274.37C114.494 274.37 114.555 274.395 114.6 274.44C114.645 274.485 114.67 274.546 114.67 274.61V281.42C114.67 281.484 114.645 281.545 114.6 281.59C114.555 281.635 114.494 281.66 114.43 281.66Z" fill="#E0E0E0"/>
<path d="M113.74 276.45H113.64C113.611 276.439 113.585 276.421 113.564 276.399C113.542 276.376 113.525 276.35 113.514 276.321C113.503 276.292 113.497 276.261 113.498 276.23C113.499 276.199 113.507 276.169 113.52 276.14L114.36 274.19L115.36 275.27C115.403 275.317 115.427 275.377 115.427 275.44C115.427 275.503 115.403 275.564 115.36 275.61C115.314 275.65 115.256 275.673 115.195 275.673C115.134 275.673 115.076 275.65 115.03 275.61L114.58 275.09L114.03 276.35C114.002 276.4 113.958 276.437 113.904 276.456C113.851 276.474 113.792 276.472 113.74 276.45Z" fill="#E0E0E0"/>
<path d="M116.63 280.41C116.566 280.41 116.505 280.385 116.46 280.34C116.415 280.295 116.39 280.234 116.39 280.17V273.35C116.39 273.287 116.415 273.226 116.46 273.181C116.505 273.136 116.566 273.11 116.63 273.11C116.694 273.11 116.755 273.136 116.8 273.181C116.845 273.226 116.87 273.287 116.87 273.35V280.17C116.87 280.234 116.845 280.295 116.8 280.34C116.755 280.385 116.694 280.41 116.63 280.41Z" fill="#E0E0E0"/>
<path d="M115.93 275.2H115.84C115.781 275.173 115.735 275.125 115.711 275.066C115.687 275.006 115.686 274.94 115.71 274.88L116.56 272.93L117.5 274.02C117.522 274.042 117.54 274.068 117.552 274.098C117.564 274.127 117.571 274.158 117.571 274.19C117.571 274.221 117.564 274.253 117.552 274.282C117.54 274.311 117.522 274.337 117.5 274.36C117.454 274.403 117.393 274.426 117.33 274.426C117.267 274.426 117.206 274.403 117.16 274.36L116.72 273.84L116.17 275.1C116.143 275.137 116.106 275.166 116.064 275.183C116.022 275.201 115.975 275.207 115.93 275.2Z" fill="#E0E0E0"/>
<path d="M98.9899 294.8L52.6699 268.05V232.4L98.9899 259.14V294.8Z" fill="#E0E0E0"/>
<path d="M74.0898 280.42L77.5798 282.43V246.78L74.0898 244.76V280.42Z" fill="#EBEBEB"/>
<path d="M125.47 250.54L118.83 254.37C118.165 254.751 117.597 255.278 117.169 255.913C116.741 256.547 116.464 257.272 116.36 258.03C116.36 259.26 117.47 259.62 118.83 258.83L125.47 254.99C126.138 254.616 126.709 254.092 127.137 253.458C127.566 252.824 127.841 252.099 127.94 251.34C127.94 250.11 126.84 249.75 125.47 250.54Z" fill="#E0E0E0"/>
<path d="M77.5798 246.78L123.9 220.04L120.41 218.02L74.0898 244.76L77.5798 246.78Z" fill="#FAFAFA"/>
<path d="M120.41 246.78L74.0898 220.04L77.5798 218.02L123.9 244.76L120.41 246.78Z" fill="#FAFAFA"/>
<path d="M120.41 250.36V246.78L123.9 244.76V248.34L120.41 250.36Z" fill="#F0F0F0"/>
<g style="mix-blend-mode:multiply" opacity="0.8">
<g style="mix-blend-mode:multiply" opacity="0.8">
<path d="M100.6 258.21L104.77 260.62L145.31 237.21V232.4L100.6 258.21Z" fill="#E0E0E0"/>
</g>
</g>
<path d="M149.95 196.74L103.64 170L57.3198 196.74L103.64 223.48L149.95 196.74Z" fill="#F0F0F0"/>
<path d="M103.64 259.14L149.95 232.4V196.74L103.64 223.48V259.14Z" fill="#EBEBEB"/>
<path d="M110.54 250.87C110.451 250.873 110.364 250.849 110.29 250.8C110.193 250.741 110.115 250.657 110.064 250.556C110.013 250.456 109.991 250.343 110 250.23V249.58C110 249.517 110.025 249.456 110.07 249.411C110.115 249.366 110.176 249.34 110.24 249.34C110.303 249.34 110.365 249.366 110.41 249.411C110.455 249.456 110.48 249.517 110.48 249.58V250.23C110.48 250.33 110.48 250.38 110.48 250.39C110.48 250.4 110.55 250.39 110.64 250.39C110.786 250.254 110.901 250.088 110.977 249.904C111.053 249.719 111.088 249.52 111.08 249.32V245.1C111.073 245.065 111.073 245.029 111.082 244.995C111.09 244.96 111.106 244.928 111.129 244.9C111.151 244.872 111.18 244.85 111.212 244.835C111.244 244.819 111.279 244.812 111.315 244.812C111.35 244.812 111.386 244.819 111.418 244.835C111.45 244.85 111.478 244.872 111.501 244.9C111.523 244.928 111.54 244.96 111.548 244.995C111.556 245.029 111.557 245.065 111.55 245.1V249.32C111.56 249.602 111.505 249.882 111.389 250.139C111.273 250.396 111.098 250.622 110.88 250.8C110.773 250.848 110.657 250.871 110.54 250.87Z" fill="#E0E0E0"/>
<path d="M108 247.18V246.77C108.054 245.719 108.354 244.695 108.875 243.779C109.396 242.864 110.124 242.084 111 241.5C111.315 241.224 111.708 241.053 112.124 241.012C112.541 240.972 112.96 241.062 113.322 241.272C113.685 241.482 113.972 241.8 114.144 242.182C114.315 242.564 114.363 242.99 114.28 243.4V243.53L108 247.18ZM112.46 241.55C112.041 241.566 111.633 241.693 111.28 241.92C110.526 242.414 109.887 243.064 109.407 243.827C108.927 244.589 108.618 245.447 108.5 246.34L113.84 243.26C113.858 242.961 113.8 242.663 113.672 242.392C113.545 242.121 113.352 241.887 113.11 241.71C112.923 241.607 112.713 241.552 112.5 241.55H112.46Z" fill="#E0E0E0"/>
<path d="M119.07 246C119.039 246 119.008 245.993 118.98 245.981C118.951 245.969 118.925 245.951 118.904 245.929C118.882 245.906 118.865 245.88 118.855 245.851C118.844 245.822 118.839 245.791 118.84 245.76V239C118.833 238.965 118.833 238.929 118.842 238.894C118.85 238.859 118.866 238.827 118.889 238.799C118.911 238.772 118.94 238.749 118.972 238.734C119.004 238.719 119.039 238.711 119.075 238.711C119.111 238.711 119.146 238.719 119.178 238.734C119.21 238.749 119.239 238.772 119.261 238.799C119.284 238.827 119.3 238.859 119.308 238.894C119.317 238.929 119.317 238.965 119.31 239V245.82C119.296 245.872 119.265 245.919 119.222 245.952C119.178 245.984 119.124 246.001 119.07 246Z" fill="#E0E0E0"/>
<path d="M118.38 240.79C118.351 240.8 118.319 240.8 118.29 240.79C118.26 240.78 118.233 240.763 118.211 240.741C118.188 240.719 118.17 240.693 118.158 240.664C118.145 240.635 118.139 240.603 118.14 240.572C118.14 240.54 118.147 240.509 118.16 240.48L119.01 238.48L119.95 239.57C119.972 239.592 119.989 239.618 120.001 239.646C120.013 239.674 120.02 239.705 120.02 239.735C120.02 239.766 120.013 239.797 120.001 239.825C119.989 239.853 119.972 239.879 119.95 239.9C119.928 239.923 119.901 239.941 119.872 239.953C119.843 239.965 119.811 239.971 119.78 239.971C119.748 239.971 119.717 239.965 119.688 239.953C119.659 239.941 119.632 239.923 119.61 239.9L119.16 239.38L118.62 240.64C118.601 240.688 118.567 240.728 118.524 240.755C118.481 240.782 118.431 240.794 118.38 240.79Z" fill="#E0E0E0"/>
<path d="M121.27 244.75C121.239 244.751 121.208 244.746 121.179 244.735C121.15 244.724 121.123 244.708 121.101 244.686C121.078 244.665 121.061 244.639 121.048 244.61C121.036 244.582 121.03 244.551 121.03 244.52V237.7C121.03 237.636 121.055 237.575 121.1 237.53C121.145 237.485 121.206 237.46 121.27 237.46C121.334 237.46 121.395 237.485 121.44 237.53C121.485 237.575 121.51 237.636 121.51 237.7V244.52C121.51 244.551 121.504 244.582 121.492 244.61C121.479 244.639 121.462 244.665 121.439 244.686C121.417 244.708 121.39 244.724 121.361 244.735C121.332 244.746 121.301 244.751 121.27 244.75Z" fill="#E0E0E0"/>
<path d="M120.58 239.54H120.48C120.451 239.529 120.425 239.511 120.404 239.489C120.382 239.466 120.365 239.44 120.354 239.411C120.342 239.382 120.337 239.351 120.338 239.32C120.339 239.289 120.347 239.259 120.36 239.23L121.2 237.23L122.2 238.31C122.243 238.357 122.267 238.417 122.267 238.48C122.267 238.544 122.243 238.604 122.2 238.65C122.178 238.673 122.153 238.69 122.124 238.702C122.096 238.714 122.066 238.72 122.035 238.72C122.004 238.72 121.974 238.714 121.945 238.702C121.917 238.69 121.891 238.673 121.87 238.65L121.42 238.13L120.87 239.39C120.862 239.42 120.848 239.448 120.829 239.472C120.81 239.496 120.786 239.516 120.758 239.53C120.731 239.544 120.701 239.552 120.67 239.554C120.639 239.556 120.609 239.551 120.58 239.54Z" fill="#E0E0E0"/>
<path d="M103.64 259.14L57.3198 232.4V196.74L103.64 223.48V259.14Z" fill="#E0E0E0"/>
<path d="M78.73 244.76L82.22 246.78V211.12L78.73 209.1V244.76Z" fill="#EBEBEB"/>
<path d="M130.12 214.88L123.47 218.72C122.805 219.096 122.236 219.621 121.809 220.255C121.382 220.888 121.109 221.612 121.01 222.37C121.01 223.6 122.11 223.96 123.47 223.17L130.12 219.34C130.784 218.96 131.353 218.432 131.781 217.798C132.209 217.163 132.486 216.439 132.59 215.68C132.59 214.45 131.48 214.09 130.12 214.88Z" fill="#E0E0E0"/>
<path d="M82.22 211.12L128.54 184.38L125.05 182.36L78.73 209.1L82.22 211.12Z" fill="#FAFAFA"/>
<path d="M125.05 211.12L78.73 184.38L82.22 182.36L128.54 209.1L125.05 211.12Z" fill="#FAFAFA"/>
<path d="M125.05 214.7V211.12L128.54 209.1V212.68L125.05 214.7Z" fill="#F0F0F0"/>
<path d="M168.6 173.36V355C168.6 356.66 169.76 357.33 171.2 356.5L389.42 230.5C390.173 230.005 390.799 229.339 391.247 228.558C391.696 227.776 391.953 226.899 392 226V44.3795C392 42.7195 390.84 42.0495 389.41 42.8795L171.19 168.88C170.438 169.371 169.811 170.033 169.362 170.811C168.912 171.589 168.651 172.462 168.6 173.36Z" fill="url(#paint0_linear_105_2)"/>
<path d="M389.42 42.8795L171.2 168.88C170.443 169.372 169.813 170.036 169.362 170.818C168.91 171.6 168.649 172.478 168.6 173.38V184.74L392 55.4495V44.3795C392 42.7195 390.85 42.0495 389.42 42.8795Z" fill="#23222E"/>
<path d="M361.55 63.0497C360.806 63.5346 360.186 64.1887 359.743 64.9586C359.3 65.7286 359.045 66.5925 359 67.4797C359 69.1097 360.14 69.7697 361.56 68.9597C362.304 68.4715 362.924 67.8154 363.368 67.0443C363.813 66.2731 364.07 65.4084 364.12 64.5197C364.11 62.8897 363 62.2297 361.55 63.0497Z" fill="white"/>
<path d="M371.7 57.1796C370.956 57.6657 370.337 58.3199 369.892 59.0894C369.447 59.8589 369.19 60.7222 369.14 61.6096C369.14 63.2496 370.29 63.9096 371.7 63.0896C372.446 62.6058 373.067 61.9522 373.512 61.1822C373.957 60.4122 374.214 59.5477 374.26 58.6596C374.26 56.9996 373.12 56.3696 371.7 57.1796Z" fill="white"/>
<path d="M381.86 51.32C381.116 51.8061 380.497 52.4603 380.052 53.2298C379.607 53.9993 379.35 54.8626 379.3 55.75C379.3 57.38 380.45 58.05 381.86 57.23C382.604 56.7439 383.223 56.0897 383.668 55.3201C384.113 54.5506 384.37 53.6873 384.42 52.8C384.42 51.16 383.27 50.5 381.86 51.32Z" fill="white"/>
<path d="M238.69 168.58V222.58L191.94 249.58V195.58L238.69 168.58ZM239.69 166.85L190.94 195V251.29L239.69 223.14V166.85Z" fill="#FAFAFA"/>
<path d="M255.44 214.62V157.18L305.18 128.46V185.9L255.44 214.62ZM256.44 157.76V212.89L304.18 185.32V130.19L256.44 157.76Z" fill="#FAFAFA"/>
<path d="M286.6 156.81L289.22 151.15C286.321 150.74 283.369 151.341 280.86 152.85V158C282.594 156.991 284.608 156.573 286.6 156.81Z" fill="url(#paint1_linear_105_2)"/>
<path d="M291 160.64L295.24 156.64C294.832 155.434 294.154 154.337 293.259 153.432C292.363 152.528 291.272 151.84 290.07 151.42L287.46 157.08C288.272 157.382 289.009 157.857 289.62 158.472C290.232 159.086 290.702 159.826 291 160.64Z" fill="url(#paint2_linear_105_2)"/>
<path d="M274 186.27L271.39 191.92C274.284 192.348 277.237 191.753 279.74 190.24V185.1C278.009 186.113 275.99 186.524 274 186.27Z" fill="url(#paint3_linear_105_2)"/>
<path d="M287.5 177.73L290.11 180.37C292.431 176.946 294.177 173.166 295.28 169.18L291 170C290.244 172.743 289.063 175.351 287.5 177.73Z" fill="url(#paint4_linear_105_2)"/>
<path d="M280.86 184.46V189.6C284.124 187.485 286.957 184.77 289.21 181.6L286.6 179C285.029 181.149 283.085 182.998 280.86 184.46Z" fill="url(#paint5_linear_105_2)"/>
<path d="M295.62 157.63L291.39 161.63C291.67 162.687 291.808 163.776 291.8 164.87C291.79 166.121 291.652 167.367 291.39 168.59L295.62 167.74C296.019 165.957 296.227 164.137 296.24 162.31C296.253 160.729 296.045 159.153 295.62 157.63Z" fill="url(#paint6_linear_105_2)"/>
<g opacity="0.2">
<path opacity="0.2" d="M286.6 156.81L289.22 151.15C286.321 150.74 283.369 151.341 280.86 152.85V158C282.594 156.991 284.608 156.573 286.6 156.81Z" fill="black"/>
<path opacity="0.2" d="M291 160.64L295.24 156.64C294.832 155.434 294.154 154.337 293.259 153.432C292.363 152.528 291.272 151.84 290.07 151.42L287.46 157.08C288.272 157.382 289.009 157.857 289.62 158.472C290.232 159.086 290.702 159.826 291 160.64Z" fill="black"/>
<path opacity="0.2" d="M274 186.27L271.39 191.92C274.284 192.348 277.237 191.753 279.74 190.24V185.1C278.009 186.113 275.99 186.524 274 186.27Z" fill="black"/>
<path opacity="0.2" d="M287.5 177.73L290.11 180.37C292.431 176.946 294.177 173.166 295.28 169.18L291 170C290.244 172.743 289.063 175.351 287.5 177.73Z" fill="black"/>
<path opacity="0.2" d="M280.86 184.46V189.6C284.124 187.485 286.957 184.77 289.21 181.6L286.6 179C285.029 181.149 283.085 182.998 280.86 184.46Z" fill="black"/>
<path opacity="0.2" d="M295.62 157.63L291.39 161.63C291.67 162.687 291.808 163.776 291.8 164.87C291.79 166.121 291.652 167.367 291.39 168.59L295.62 167.74C296.019 165.957 296.227 164.137 296.24 162.31C296.253 160.729 296.045 159.153 295.62 157.63Z" fill="black"/>
</g>
<path d="M279.75 158.619V153.479C276.484 155.592 273.65 158.307 271.4 161.479L274.01 164.119C275.575 161.954 277.52 160.09 279.75 158.619Z" fill="#FAFAFA"/>
<path d="M273.12 165.35L270.51 162.71C268.185 166.128 266.438 169.905 265.34 173.89L269.57 173.04C270.342 170.306 271.54 167.711 273.12 165.35Z" fill="#FAFAFA"/>
<path d="M268.81 178.169C268.825 176.918 268.966 175.672 269.23 174.449L265 175.309C264.602 177.089 264.394 178.906 264.38 180.729C264.364 182.324 264.573 183.913 265 185.449L269.23 181.449C268.944 180.38 268.803 179.276 268.81 178.169Z" fill="#FAFAFA"/>
<path d="M269.57 182.439L265.34 186.439C265.747 187.645 266.424 188.741 267.32 189.645C268.217 190.548 269.308 191.234 270.51 191.649L273.12 185.999C272.306 185.698 271.567 185.224 270.954 184.609C270.341 183.995 269.869 183.254 269.57 182.439Z" fill="#FAFAFA"/>
<path d="M270.8 176.999C270.8 170.929 275.06 163.559 280.31 160.529C285.56 157.499 289.82 159.949 289.82 166.019C289.82 172.089 285.56 179.459 280.31 182.489C275.06 185.519 270.8 183.089 270.8 176.999Z" fill="url(#paint7_linear_105_2)"/>
<path opacity="0.2" d="M270.8 176.999C270.8 170.929 275.06 163.559 280.31 160.529C285.56 157.499 289.82 159.949 289.82 166.019C289.82 172.089 285.56 179.459 280.31 182.489C275.06 185.519 270.8 183.089 270.8 176.999Z" fill="black"/>
<path d="M279.37 168.41C279.39 168.8 279.39 169.19 279.37 169.58C279.352 169.902 279.298 170.22 279.21 170.53C279.125 170.854 278.994 171.164 278.82 171.45C278.449 172.091 277.914 172.623 277.27 172.99C276.993 173.165 276.684 173.284 276.36 173.34C276.142 173.384 275.915 173.348 275.72 173.24C275.544 173.128 275.408 172.964 275.33 172.77C275.234 172.528 275.18 172.271 275.17 172.01C275.17 171.81 275.17 171.62 275.17 171.44C275.17 171.26 275.17 171.06 275.17 170.83C275.187 170.492 275.24 170.156 275.33 169.83C275.422 169.512 275.553 169.206 275.72 168.92C275.897 168.611 276.112 168.325 276.36 168.07C276.631 167.8 276.937 167.568 277.27 167.38C277.549 167.205 277.857 167.083 278.18 167.02C278.4 166.984 278.625 167.023 278.82 167.13C278.996 167.242 279.132 167.407 279.21 167.6C279.306 167.86 279.36 168.133 279.37 168.41ZM282.71 164.66C282.761 164.543 282.825 164.433 282.9 164.33C282.979 164.23 283.077 164.148 283.19 164.09L284.29 163.46C284.321 163.433 284.358 163.414 284.399 163.405C284.439 163.396 284.481 163.398 284.52 163.41C284.58 163.41 284.61 163.49 284.61 163.58C284.614 163.607 284.614 163.633 284.61 163.66C284.614 163.7 284.614 163.74 284.61 163.78L278 177.63C277.944 177.743 277.877 177.85 277.8 177.95C277.723 178.05 277.628 178.135 277.52 178.2L276.42 178.83C276.384 178.847 276.345 178.856 276.305 178.856C276.265 178.856 276.226 178.847 276.19 178.83C276.13 178.83 276.1 178.75 276.1 178.66C276.1 178.57 276.1 178.61 276.1 178.57C276.1 178.53 276.1 178.5 276.1 178.46L282.71 164.66ZM276.71 171.03C276.707 171.216 276.755 171.4 276.85 171.56C276.92 171.65 277.06 171.63 277.26 171.56C277.437 171.464 277.577 171.313 277.66 171.13C277.749 170.91 277.8 170.677 277.81 170.44C277.829 170.107 277.829 169.773 277.81 169.44C277.812 169.256 277.76 169.075 277.66 168.92C277.59 168.83 277.45 168.84 277.26 168.92C277.078 169.012 276.934 169.164 276.85 169.35C276.765 169.571 276.718 169.804 276.71 170.04C276.686 170.36 276.69 170.681 276.72 171L276.71 171.03ZM285.56 170.23C285.58 170.623 285.58 171.017 285.56 171.41C285.54 171.727 285.489 172.042 285.41 172.35C285.233 173.013 284.889 173.619 284.41 174.11C284.142 174.386 283.836 174.622 283.5 174.81C283.223 174.985 282.914 175.104 282.59 175.16C282.372 175.208 282.143 175.173 281.95 175.06C281.774 174.948 281.638 174.784 281.56 174.59C281.464 174.348 281.41 174.091 281.4 173.83C281.4 173.63 281.4 173.44 281.4 173.27C281.4 173.1 281.4 172.88 281.4 172.65C281.419 172.332 281.473 172.017 281.56 171.71C281.652 171.389 281.783 171.08 281.95 170.79C282.124 170.482 282.34 170.2 282.59 169.95C282.858 169.674 283.165 169.438 283.5 169.25C283.778 169.075 284.087 168.956 284.41 168.9C284.628 168.852 284.857 168.887 285.05 169C285.226 169.112 285.362 169.277 285.44 169.47C285.526 169.714 285.57 169.971 285.57 170.23H285.56ZM282.91 172.86C282.911 173.043 282.959 173.222 283.05 173.38C283.13 173.47 283.26 173.46 283.46 173.38C283.64 173.285 283.784 173.134 283.87 172.95C283.951 172.728 283.998 172.496 284.01 172.26C284.029 171.927 284.029 171.593 284.01 171.26C284.009 171.077 283.961 170.898 283.87 170.74C283.79 170.65 283.66 170.66 283.46 170.74C283.281 170.835 283.137 170.986 283.05 171.17C282.97 171.392 282.923 171.624 282.91 171.86C282.885 172.193 282.888 172.528 282.92 172.86H282.91Z" fill="#FAFAFA"/>
<path d="M320.43 177.1V119.65L370.17 90.9297V148.38L320.43 177.1ZM321.43 120.23V175.36L369.17 147.8V92.6697L321.43 120.23Z" fill="#FAFAFA"/>
<path d="M344.75 121.09V116C341.48 118.111 338.643 120.826 336.39 124L339.01 126.65C340.568 124.462 342.513 122.577 344.75 121.09Z" fill="#FAFAFA"/>
<path d="M338.11 127.829L335.5 125.189C333.173 128.606 331.426 132.384 330.33 136.369L334.56 135.509C335.339 132.781 336.536 130.19 338.11 127.829Z" fill="#FAFAFA"/>
<path d="M351.59 119.289L354.21 113.619C351.311 113.21 348.359 113.81 345.85 115.319V120.449C347.584 119.442 349.601 119.034 351.59 119.289Z" fill="url(#paint8_linear_105_2)"/>
<path d="M356 123.109L360.23 119.109C359.822 117.905 359.144 116.809 358.248 115.906C357.352 115.003 356.262 114.317 355.06 113.899L352.45 119.549C353.264 119.851 354.003 120.325 354.616 120.94C355.229 121.554 355.701 122.295 356 123.109Z" fill="url(#paint9_linear_105_2)"/>
<path d="M339 148.74L336.39 154.4C338.79 154.89 341.66 154.4 344.75 152.71V147.58C343.014 148.59 340.992 148.998 339 148.74Z" fill="url(#paint10_linear_105_2)"/>
<path d="M360.61 120.1L356.38 124.1C356.664 125.16 356.805 126.252 356.8 127.35C356.786 128.601 356.645 129.847 356.38 131.07L360.61 130.22C361.009 128.437 361.216 126.616 361.23 124.79C361.243 123.205 361.034 121.626 360.61 120.1Z" fill="url(#paint11_linear_105_2)"/>
<path d="M352.49 140.2L355.1 142.84C357.425 139.422 359.172 135.645 360.27 131.66L356.04 132.52C355.262 135.248 354.064 137.839 352.49 140.2Z" fill="url(#paint12_linear_105_2)"/>
<path d="M333.8 140.65C333.814 139.399 333.955 138.152 334.22 136.93L329.99 137.78C329.592 139.563 329.384 141.383 329.37 143.21C329.354 144.801 329.563 146.387 329.99 147.92L334.22 143.92C333.936 142.853 333.794 141.754 333.8 140.65Z" fill="url(#paint13_linear_105_2)"/>
<path d="M334.56 144.91L330.33 148.91C330.738 150.115 331.416 151.211 332.312 152.114C333.208 153.017 334.298 153.703 335.5 154.12L338.11 148.47C337.296 148.169 336.557 147.695 335.944 147.08C335.331 146.465 334.859 145.725 334.56 144.91Z" fill="url(#paint14_linear_105_2)"/>
<path d="M345.85 146.94V152.07C349.115 149.973 351.952 147.275 354.21 144.12L351.6 141.47C350.028 143.624 348.08 145.477 345.85 146.94Z" fill="url(#paint15_linear_105_2)"/>
<g opacity="0.2">
<path opacity="0.2" d="M351.59 119.289L354.21 113.619C351.311 113.21 348.359 113.81 345.85 115.319V120.449C347.584 119.442 349.601 119.034 351.59 119.289Z" fill="black"/>
<path opacity="0.2" d="M356 123.109L360.23 119.109C359.822 117.905 359.144 116.809 358.248 115.906C357.352 115.003 356.262 114.317 355.06 113.899L352.45 119.549C353.264 119.851 354.003 120.325 354.616 120.94C355.229 121.554 355.701 122.295 356 123.109Z" fill="black"/>
<path opacity="0.2" d="M339 148.739L336.39 154.399C338.79 154.889 341.66 154.399 344.75 152.709V147.579C343.014 148.589 340.992 148.997 339 148.739Z" fill="black"/>
<path opacity="0.2" d="M360.61 120.1L356.38 124.1C356.664 125.16 356.805 126.252 356.8 127.35C356.786 128.601 356.645 129.847 356.38 131.07L360.61 130.22C361.009 128.437 361.217 126.616 361.23 124.79C361.243 123.205 361.035 121.626 360.61 120.1Z" fill="black"/>
<path opacity="0.2" d="M352.49 140.199L355.1 142.839C357.425 139.421 359.172 135.644 360.27 131.659L356.04 132.519C355.262 135.247 354.064 137.838 352.49 140.199Z" fill="black"/>
<path opacity="0.2" d="M333.8 140.65C333.814 139.399 333.955 138.152 334.22 136.93L329.99 137.78C329.592 139.563 329.384 141.383 329.37 143.21C329.354 144.801 329.563 146.387 329.99 147.92L334.22 143.92C333.936 142.853 333.794 141.754 333.8 140.65Z" fill="black"/>
<path opacity="0.2" d="M334.56 144.909L330.33 148.909C330.738 150.114 331.416 151.21 332.312 152.113C333.208 153.016 334.299 153.702 335.5 154.119L338.11 148.469C337.296 148.168 336.557 147.694 335.944 147.079C335.332 146.464 334.859 145.724 334.56 144.909Z" fill="black"/>
<path opacity="0.2" d="M345.85 146.94V152.07C349.116 149.973 351.953 147.275 354.21 144.12L351.6 141.47C350.029 143.624 348.081 145.477 345.85 146.94Z" fill="black"/>
</g>
<path d="M335.79 139.5C335.79 133.44 340.05 126.07 345.3 123.03C350.55 119.99 354.81 122.46 354.81 128.52C354.81 134.58 350.55 142 345.3 145C340.05 148 335.79 145.57 335.79 139.5Z" fill="url(#paint16_linear_105_2)"/>
<path opacity="0.2" d="M335.79 139.5C335.79 133.44 340.05 126.07 345.3 123.03C350.55 119.99 354.81 122.46 354.81 128.52C354.81 134.58 350.55 142 345.3 145C340.05 148 335.79 145.57 335.79 139.5Z" fill="black"/>
<path d="M344.36 130.89C344.38 131.279 344.38 131.67 344.36 132.06C344.339 132.38 344.289 132.698 344.21 133.01C344.116 133.327 343.985 133.633 343.82 133.92C343.639 134.229 343.421 134.514 343.17 134.77C342.899 135.039 342.593 135.272 342.26 135.46C341.981 135.633 341.673 135.755 341.35 135.82C341.132 135.858 340.906 135.823 340.71 135.72C340.534 135.608 340.398 135.443 340.32 135.25C340.224 135.004 340.17 134.744 340.16 134.48C340.15 134.293 340.15 134.106 340.16 133.92C340.16 133.74 340.16 133.54 340.16 133.31C340.179 132.988 340.233 132.67 340.32 132.36C340.414 132.039 340.545 131.73 340.71 131.44C340.884 131.132 341.1 130.849 341.35 130.6C341.621 130.33 341.927 130.098 342.26 129.91C342.539 129.736 342.848 129.614 343.17 129.55C343.389 129.511 343.614 129.546 343.81 129.65C343.986 129.762 344.122 129.926 344.2 130.12C344.296 130.366 344.35 130.626 344.36 130.89ZM347.7 127.14C347.755 127.025 347.818 126.915 347.89 126.81C347.971 126.712 348.069 126.631 348.18 126.57L349.28 125.93C349.347 125.884 349.43 125.866 349.51 125.88C349.57 125.88 349.6 125.96 349.6 126.06C349.6 126.16 349.6 126.06 349.6 126.14C349.604 126.18 349.604 126.22 349.6 126.26L343 140.1C342.946 140.215 342.882 140.325 342.81 140.43C342.732 140.53 342.633 140.611 342.52 140.67L341.42 141.31C341.387 141.333 341.35 141.35 341.31 141.358C341.271 141.367 341.23 141.367 341.19 141.36C341.13 141.36 341.1 141.28 341.1 141.18C341.097 141.153 341.097 141.126 341.1 141.1C341.096 141.06 341.096 141.02 341.1 140.98L347.7 127.14ZM341.7 133.51C341.698 133.693 341.747 133.872 341.84 134.03C341.92 134.12 342.05 134.11 342.25 134.03C342.429 133.929 342.572 133.775 342.66 133.59C342.741 133.371 342.788 133.142 342.8 132.91C342.819 132.577 342.819 132.243 342.8 131.91C342.802 131.727 342.753 131.547 342.66 131.39C342.58 131.3 342.45 131.31 342.25 131.39C342.072 131.491 341.928 131.644 341.84 131.83C341.76 132.048 341.712 132.277 341.7 132.51C341.684 132.843 341.688 133.177 341.71 133.51H341.7ZM350.55 132.71C350.58 133.099 350.58 133.49 350.55 133.88C350.533 134.217 350.483 134.552 350.4 134.88C350.304 135.2 350.174 135.508 350.01 135.8C349.832 136.107 349.613 136.39 349.36 136.64C349.087 136.91 348.781 137.145 348.45 137.34C348.171 137.512 347.863 137.631 347.54 137.69C347.322 137.733 347.095 137.698 346.9 137.59C346.724 137.478 346.588 137.313 346.51 137.12C346.42 136.876 346.366 136.62 346.35 136.36C346.35 136.16 346.35 135.97 346.35 135.79C346.35 135.61 346.35 135.41 346.35 135.18C346.374 134.859 346.428 134.541 346.51 134.23C346.604 133.909 346.735 133.6 346.9 133.31C347.079 133.005 347.294 132.723 347.54 132.47C347.813 132.202 348.119 131.971 348.45 131.78C348.729 131.606 349.038 131.484 349.36 131.42C349.579 131.381 349.804 131.416 350 131.52C350.176 131.632 350.312 131.796 350.39 131.99C350.483 132.22 350.54 132.463 350.56 132.71H350.55ZM347.9 135.33C347.898 135.513 347.947 135.692 348.04 135.85C348.12 135.94 348.26 135.93 348.45 135.85C348.633 135.754 348.777 135.599 348.86 135.41C348.946 135.193 348.993 134.963 349 134.73C349.029 134.397 349.029 134.062 349 133.73C349.006 133.546 348.957 133.365 348.86 133.21C348.78 133.12 348.65 133.13 348.45 133.21C348.272 133.311 348.128 133.464 348.04 133.65C347.961 133.868 347.913 134.097 347.9 134.33C347.884 134.663 347.888 134.997 347.91 135.33H347.9Z" fill="#FAFAFA"/>
<path d="M190.94 265.369V321.66L239.69 293.51V237.229L190.94 265.369Z" fill="url(#paint17_linear_105_2)"/>
<path opacity="0.7" d="M190.94 265.369V321.66L239.69 293.51V237.229L190.94 265.369Z" fill="#FAFAFA"/>
<path d="M190.94 280.25C192.59 280.89 194.72 280.63 197.04 279.25C202.29 276.25 206.55 268.84 206.55 262.78C206.677 260.809 206.019 258.868 204.72 257.38L190.94 265.33V280.25Z" fill="url(#paint18_linear_105_2)"/>
<path d="M212.41 281.64C212.89 280.06 213.84 279.99 214.53 281.5L221.41 296.5L231.66 257.69C232.09 256.09 232.8 256.08 233.24 257.69L239.69 280.6V293.52L202.22 315.16L212.41 281.64Z" fill="url(#paint19_linear_105_2)"/>
<g opacity="0.2">
<path opacity="0.2" d="M190.94 280.25C192.59 280.89 194.72 280.63 197.04 279.25C202.29 276.25 206.55 268.84 206.55 262.78C206.677 260.809 206.019 258.868 204.72 257.38L190.94 265.33V280.25Z" fill="black"/>
<path opacity="0.2" d="M212.41 281.64C212.89 280.06 213.84 279.99 214.53 281.5L221.41 296.5L231.66 257.69C232.09 256.09 232.8 256.08 233.24 257.69L239.69 280.6V293.52L202.22 315.16L212.41 281.64Z" fill="black"/>
</g>
<path d="M238.69 238.999V292.999L191.94 319.999V265.999L238.69 238.999ZM239.69 237.27L190.94 265.41V321.7L239.69 293.549V237.229V237.27Z" fill="url(#paint20_linear_105_2)"/>
<path opacity="0.7" d="M238.69 238.999V292.999L191.94 319.999V265.999L238.69 238.999ZM239.69 237.27L190.94 265.41V321.7L239.69 293.549V237.229V237.27Z" fill="#FAFAFA"/>
<path d="M255.94 227.85V284.13L304.68 255.99V199.71L255.94 227.85Z" fill="url(#paint21_linear_105_2)"/>
<path opacity="0.7" d="M255.94 227.85V284.13L304.68 255.99V199.71L255.94 227.85Z" fill="#FAFAFA"/>
<path d="M255.94 242.729C257.59 243.369 259.71 243.099 262.03 241.729C267.28 238.729 271.54 231.319 271.54 225.249C271.665 223.282 271.008 221.344 269.71 219.859L255.94 227.809V242.729Z" fill="url(#paint22_linear_105_2)"/>
<path d="M277.4 244.12C277.89 242.53 278.84 242.47 279.53 243.97L286.4 258.97L296.66 220.16C297.08 218.56 297.79 218.55 298.24 220.16L304.68 243.06V256L267.21 277.63L277.4 244.12Z" fill="url(#paint23_linear_105_2)"/>
<g opacity="0.2">
<path opacity="0.2" d="M255.94 242.729C257.59 243.369 259.71 243.099 262.03 241.729C267.28 238.729 271.54 231.319 271.54 225.249C271.665 223.282 271.008 221.344 269.71 219.859L255.94 227.809V242.729Z" fill="black"/>
<path opacity="0.2" d="M277.4 244.12C277.89 242.53 278.84 242.47 279.53 243.97L286.4 258.97L296.66 220.16C297.08 218.56 297.79 218.55 298.24 220.16L304.68 243.06V256L267.21 277.63L277.4 244.12Z" fill="black"/>
</g>
<path d="M303.68 201.439V255.439L256.94 282.439V228.439L303.68 201.439ZM304.68 199.699L255.94 227.849V284.129L304.68 255.999V199.699Z" fill="url(#paint24_linear_105_2)"/>
<path opacity="0.7" d="M303.68 201.439V255.439L256.94 282.439V228.439L303.68 201.439ZM304.68 199.699L255.94 227.849V284.129L304.68 255.999V199.699Z" fill="#FAFAFA"/>
<path d="M320.93 190.32V246.61L369.67 218.47V162.18L320.93 190.32Z" fill="url(#paint25_linear_105_2)"/>
<path opacity="0.7" d="M320.93 190.32V246.61L369.67 218.47V162.18L320.93 190.32Z" fill="#FAFAFA"/>
<path d="M320.93 205.21C322.58 205.85 324.7 205.58 327.02 204.21C332.27 201.21 336.53 193.81 336.53 187.74C336.655 185.769 335.997 183.829 334.7 182.34L320.93 190.29V205.21Z" fill="url(#paint26_linear_105_2)"/>
<path d="M342.39 206.59C342.88 205.01 343.83 204.95 344.52 206.45L351.39 221.45L361.65 182.63C362.07 181.03 362.78 181.03 363.23 182.63L369.67 205.54V218.47L332.2 240.1L342.39 206.59Z" fill="url(#paint27_linear_105_2)"/>
<g opacity="0.2">
<path opacity="0.2" d="M320.93 205.21C322.58 205.85 324.7 205.58 327.02 204.21C332.27 201.21 336.53 193.81 336.53 187.74C336.655 185.769 335.997 183.829 334.7 182.34L320.93 190.29V205.21Z" fill="black"/>
<path opacity="0.2" d="M342.39 206.59C342.88 205.01 343.83 204.95 344.52 206.45L351.39 221.45L361.65 182.63C362.07 181.03 362.78 181.03 363.23 182.63L369.67 205.54V218.47L332.2 240.1L342.39 206.59Z" fill="black"/>
</g>
<path d="M368.67 163.91V217.91L321.93 244.91V190.91L368.67 163.91ZM369.67 162.18L320.93 190.32V246.61L369.67 218.47V162.18Z" fill="url(#paint28_linear_105_2)"/>
<path opacity="0.7" d="M368.67 163.91V217.91L321.93 244.91V190.91L368.67 163.91ZM369.67 162.18L320.93 190.32V246.61L369.67 218.47V162.18Z" fill="#FAFAFA"/>
<path d="M363.58 181.439L377.94 185.269L373.1 187.999L381.88 194.429L380.74 196.189L371.7 189.719L370.5 194.999L363.58 181.439Z" fill="#263238"/>
<path d="M438.16 146.07L406.8 164.17C406.043 164.663 405.413 165.327 404.961 166.109C404.51 166.891 404.249 167.768 404.2 168.67V194L396.2 202.26C395.05 203.45 395.45 204.26 397.09 204.06L404.16 203.23V214.29C404.16 215.94 405.32 216.62 406.76 215.79L438.12 197.68C438.877 197.188 439.508 196.524 439.959 195.742C440.411 194.96 440.672 194.082 440.72 193.18V147.57C440.76 145.91 439.6 145.24 438.16 146.07Z" fill="#37474F"/>
<path d="M414.65 173.73L413.33 173.63C411.59 173.49 409.52 172.8 409.52 170.31C409.57 169.393 409.836 168.5 410.294 167.705C410.753 166.909 411.392 166.233 412.16 165.73C413.3 165.08 414.27 165.35 414.64 166.29C415.017 164.883 415.9 163.665 417.12 162.87C418.58 162.03 419.76 162.71 419.76 164.4C419.76 166.84 417.7 169.93 415.97 172.09L414.65 173.73Z" fill="#FAFAFA"/>
<path d="M427.11 159.45L434.11 155.45C435.54 154.62 436.71 155 436.71 156.3C436.602 157.097 436.311 157.859 435.86 158.525C435.409 159.191 434.81 159.744 434.11 160.14L427.11 164.14C425.67 164.97 424.51 164.59 424.51 163.29C424.616 162.492 424.906 161.73 425.357 161.064C425.809 160.397 426.409 159.845 427.11 159.45Z" fill="#FAFAFA"/>
<path d="M412.11 181.87L419.11 177.87C420.55 177.04 421.71 177.42 421.71 178.71C421.606 179.509 421.316 180.274 420.865 180.942C420.414 181.61 419.813 182.164 419.11 182.56L412.11 186.56C410.68 187.39 409.52 187.01 409.52 185.72C409.625 184.921 409.913 184.158 410.363 183.49C410.812 182.822 411.41 182.268 412.11 181.87Z" fill="#FAFAFA"/>
<path d="M412.11 191.649L434.11 178.959C435.54 178.129 436.71 178.509 436.71 179.799C436.603 180.598 436.313 181.362 435.862 182.03C435.411 182.698 434.811 183.252 434.11 183.649L412.11 196.339C410.68 197.169 409.52 196.789 409.52 195.499C409.625 194.701 409.913 193.938 410.363 193.27C410.812 192.602 411.41 192.047 412.11 191.649Z" fill="#FAFAFA"/>
<path d="M412.11 200.78L434.11 188.09C435.54 187.26 436.71 187.64 436.71 188.94C436.602 189.737 436.311 190.498 435.86 191.164C435.409 191.831 434.81 192.383 434.11 192.78L412.11 205.47C410.68 206.3 409.52 205.92 409.52 204.63C409.625 203.832 409.913 203.069 410.363 202.401C410.812 201.733 411.41 201.178 412.11 200.78Z" fill="#FAFAFA"/>
<path d="M83.3 383.78L132.04 411.92L180.79 383.78L132.04 355.63L83.3 383.78Z" fill="url(#paint29_linear_105_2)"/>
<path opacity="0.7" d="M83.3 383.78L132.04 411.92L180.79 383.78L132.04 355.63L83.3 383.78Z" fill="#FAFAFA"/>
<path d="M96.19 391.22C99.0924 391.123 101.933 390.356 104.49 388.98C109.74 385.98 109.74 380.98 104.49 377.98C102.201 376.732 99.6704 375.992 97.07 375.81L83.3 383.78L96.19 391.22Z" fill="url(#paint30_linear_105_2)"/>
<path d="M129.59 385.72C128.94 384.78 130.31 384.48 132.65 385.03L156 390.55L137.77 368.18C137.02 367.26 138.07 367.05 140.13 367.72L169.64 377.32L180.83 383.78L143.36 405.41L129.59 385.72Z" fill="url(#paint31_linear_105_2)"/>
<g opacity="0.2">
<path opacity="0.2" d="M96.19 391.22C99.0924 391.123 101.933 390.356 104.49 388.98C109.74 385.98 109.74 380.98 104.49 377.98C102.201 376.732 99.6704 375.992 97.07 375.81L83.3 383.78L96.19 391.22Z" fill="black"/>
<path opacity="0.2" d="M129.59 385.72C128.94 384.78 130.31 384.48 132.65 385.03L156 390.55L137.77 368.18C137.02 367.26 138.07 367.05 140.13 367.72L169.64 377.32L180.83 383.78L143.36 405.41L129.59 385.72Z" fill="black"/>
</g>
<path d="M132 356.79L178.75 383.79L132 410.79L85.26 383.79L132 356.79ZM132 355.64L83.3 383.78L132 411.92L180.75 383.78L132 355.64Z" fill="url(#paint32_linear_105_2)"/>
<path opacity="0.7" d="M132 356.79L178.75 383.79L132 410.79L85.26 383.79L132 356.79ZM132 355.64L83.3 383.78L132 411.92L180.75 383.78L132 355.64Z" fill="#FAFAFA"/>
<path d="M83.3 383.78V388.47L132.04 416.61V411.92L83.3 383.78Z" fill="url(#paint33_linear_105_2)"/>
<path opacity="0.6" d="M83.3 383.78V388.47L132.04 416.61V411.92L83.3 383.78Z" fill="#FAFAFA"/>
<path d="M180.79 383.78L132.04 411.92V416.61L180.79 388.47V383.78Z" fill="url(#paint34_linear_105_2)"/>
<path opacity="0.1" d="M180.79 383.78L132.04 411.92V416.61L180.79 388.47V383.78Z" fill="#FAFAFA"/>
<path d="M461.07 278.321L412.32 250.181L363.58 278.321L412.32 306.461L461.07 278.321Z" fill="#263238"/>
<path d="M412.32 250.181L363.58 278.321V315.841L412.32 343.991V250.181Z" fill="#263238"/>
<path d="M375.77 322.88L367.65 266.6L416.39 238.46L424.52 294.74L375.77 322.88Z" fill="url(#paint35_linear_105_2)"/>
<path opacity="0.7" d="M375.77 322.88L367.65 266.6L416.39 238.46L424.52 294.74L375.77 322.88Z" fill="#FAFAFA"/>
<path d="M367.65 266.6L362.95 265.58L370.81 320.02L375.77 322.88L367.65 266.6Z" fill="url(#paint36_linear_105_2)"/>
<path opacity="0.1" d="M367.65 266.6L362.95 265.58L370.81 320.02L375.77 322.88L367.65 266.6Z" fill="#FAFAFA"/>
<path d="M411.7 237.44L416.39 238.46L367.65 266.6L362.95 265.58L411.7 237.44Z" fill="url(#paint37_linear_105_2)"/>
<path opacity="0.6" d="M411.7 237.44L416.39 238.46L367.65 266.6L362.95 265.58L411.7 237.44Z" fill="#FAFAFA"/>
<path d="M382.19 266.181C381.938 265.005 381.43 263.899 380.702 262.941C379.975 261.984 379.045 261.198 377.98 260.641L367.65 266.641L369.19 277.301C370.169 277.799 371.237 278.097 372.333 278.177C373.428 278.258 374.529 278.12 375.57 277.771C377.907 276.993 379.875 275.38 381.097 273.242C382.318 271.103 382.707 268.589 382.19 266.181Z" fill="url(#paint38_linear_105_2)"/>
<path opacity="0.2" d="M382.19 266.181C381.938 265.005 381.43 263.899 380.702 262.941C379.975 261.984 379.045 261.198 377.98 260.641L367.65 266.641L369.19 277.301C370.169 277.799 371.237 278.097 372.333 278.177C373.428 278.258 374.529 278.12 375.57 277.771C377.907 276.993 379.875 275.38 381.097 273.242C382.318 271.103 382.707 268.589 382.19 266.181Z" fill="#E09292"/>
<path d="M393.22 268.531C393.53 266.901 394.37 266.791 395.1 268.281L402.28 283.001L407.76 251.491C408.04 249.861 408.9 249.721 409.68 251.181L421.39 273.071L424.52 294.721L383.9 318.191C383.82 317.751 391.11 279.551 393.22 268.531Z" fill="url(#paint39_linear_105_2)"/>
<path opacity="0.2" d="M393.22 268.531C393.53 266.901 394.37 266.791 395.1 268.281L402.28 283.001L407.76 251.491C408.04 249.861 408.9 249.721 409.68 251.181L421.39 273.071L424.52 294.721L383.9 318.191C383.82 317.751 391.11 279.551 393.22 268.531Z" fill="#E09292"/>
<path d="M415.61 240.06L423.43 294.21L376.55 321.28L368.73 267.13L415.61 240.06ZM416.39 238.46L367.65 266.6L375.77 322.88L424.52 294.74L416.39 238.46Z" fill="url(#paint40_linear_105_2)"/>
<path opacity="0.7" d="M415.61 240.06L423.43 294.21L376.55 321.28L368.73 267.13L415.61 240.06ZM416.39 238.46L367.65 266.6L375.77 322.88L424.52 294.74L416.39 238.46Z" fill="#FAFAFA"/>
<path d="M392.02 332.261L383.89 275.981L432.64 247.841L440.76 304.121L392.02 332.261Z" fill="url(#paint41_linear_105_2)"/>
<path opacity="0.7" d="M392.02 332.261L383.89 275.981L432.64 247.841L440.76 304.121L392.02 332.261Z" fill="#FAFAFA"/>
<path d="M383.89 275.98L379.2 274.96L387.06 329.4L392.02 332.26L383.89 275.98Z" fill="url(#paint42_linear_105_2)"/>
<path opacity="0.1" d="M383.89 275.98L379.2 274.96L387.06 329.4L392.02 332.26L383.89 275.98Z" fill="#FAFAFA"/>
<path d="M427.94 246.82L432.64 247.84L383.89 275.98L379.2 274.96L427.94 246.82Z" fill="url(#paint43_linear_105_2)"/>
<path opacity="0.6" d="M427.94 246.82L432.64 247.84L383.89 275.98L379.2 274.96L427.94 246.82Z" fill="#FAFAFA"/>
<path d="M398.43 275.561C398.18 274.383 397.673 273.275 396.945 272.315C396.218 271.356 395.287 270.569 394.22 270.011L383.89 276.011L385.43 286.671C386.409 287.169 387.477 287.467 388.573 287.548C389.668 287.628 390.769 287.49 391.81 287.141C394.145 286.363 396.111 284.752 397.333 282.616C398.554 280.479 398.945 277.967 398.43 275.561Z" fill="url(#paint44_linear_105_2)"/>
<path opacity="0.2" d="M398.43 275.561C398.18 274.383 397.673 273.275 396.945 272.315C396.218 271.356 395.287 270.569 394.22 270.011L383.89 276.011L385.43 286.671C386.409 287.169 387.477 287.467 388.573 287.548C389.668 287.628 390.769 287.49 391.81 287.141C394.145 286.363 396.111 284.752 397.333 282.616C398.554 280.479 398.945 277.967 398.43 275.561Z" fill="#E09292"/>
<path d="M409.47 277.911C409.78 276.281 410.62 276.171 411.35 277.661L418.53 292.391L424 260.891C424.28 259.251 425.15 259.121 425.93 260.581L437.64 282.471L440.76 304.121L400.14 327.571C400.06 327.131 407.36 288.931 409.47 277.911Z" fill="url(#paint45_linear_105_2)"/>
<path opacity="0.2" d="M409.47 277.911C409.78 276.281 410.62 276.171 411.35 277.661L418.53 292.391L424 260.891C424.28 259.251 425.15 259.121 425.93 260.581L437.64 282.471L440.76 304.121L400.14 327.571C400.06 327.131 407.36 288.931 409.47 277.911Z" fill="#E09292"/>
<path d="M431.86 249.441L439.68 303.591L392.8 330.661L385 276.511L431.88 249.441H431.86ZM432.66 247.841L383.89 276.001L392 332.261L440.74 304.121L432.62 247.841H432.66Z" fill="url(#paint46_linear_105_2)"/>
<path opacity="0.7" d="M431.86 249.441L439.68 303.591L392.8 330.661L385 276.511L431.88 249.441H431.86ZM432.66 247.841L383.89 276.001L392 332.261L440.74 304.121L432.62 247.841H432.66Z" fill="#FAFAFA"/>
<path d="M412.32 343.99L461.07 315.85V278.32L412.32 306.46V343.99Z" fill="#37474F"/>
<path d="M412.33 306.46L363.58 278.32V315.84L412.33 344V306.46ZM391.45 303.79L384.45 299.79C383.747 299.395 383.147 298.841 382.695 298.172C382.244 297.504 381.955 296.74 381.85 295.94C381.85 294.64 383.01 294.27 384.45 295.09L391.45 299.09C392.151 299.488 392.751 300.042 393.202 300.71C393.653 301.378 393.943 302.141 394.05 302.94C394.05 304.24 392.88 304.62 391.45 303.79Z" fill="#455A64"/>
<path d="M461.076 278.316L412.327 306.461L424.512 327.566L473.261 299.421L461.076 278.316Z" fill="#455A64"/>
<path d="M363.58 287.7L359.52 290.05L363.58 278.32V287.7Z" fill="#263238"/>
<path d="M259.18 371.93L259 365.88L264 365.02L264.29 370.18C264.53 371.38 265.38 371.77 265.6 372.45C265.82 373.13 262.18 380.05 260.14 381.58C258.1 383.11 254.78 381.15 254.46 380.42C254.14 379.69 257.19 380.23 257.69 379.17C258.37 377.75 259.18 371.93 259.18 371.93Z" fill="#FFA8A7"/>
<path d="M264.74 371.18C264.08 371.73 263.58 373.12 262.67 375.02C261.76 376.92 260.47 380.02 259.06 380.43C257.42 380.95 254.2 380.01 256.25 379.85C256.7 379.85 257.49 379.65 257.7 379.17C257.781 379.003 257.845 378.829 257.89 378.65C257.181 378.842 256.443 378.91 255.71 378.85C255.166 378.765 254.609 378.836 254.103 379.053C253.597 379.271 253.163 379.627 252.85 380.08C252.51 380.59 253.06 381.45 253.06 381.45C253.69 382.22 254.86 382.99 257.56 383.19C260.26 383.39 261.86 383 262.83 381.19C264.08 379.167 265.449 377.22 266.93 375.36C267.94 373.81 266.31 371.59 264.74 371.18Z" fill="#23222E"/>
<path d="M257.86 378.76C257.7 379.17 256.51 379.3 255.92 379.38C255.33 379.46 255.04 380.01 256 380.32C257.66 380.49 258.48 378.73 257.86 378.76Z" fill="#FFA8A7"/>
<path d="M306.59 352.37L302.43 348L305.61 344L309.25 347.67C310.25 348.41 311.13 348.14 311.74 348.5C312.35 348.86 314.23 356.5 313.74 358.96C313.25 361.42 309.45 362.19 308.74 361.85C308.03 361.51 310.66 359.9 310.33 358.78C309.84 357.26 306.59 352.37 306.59 352.37Z" fill="#FFA8A7"/>
<path d="M310.25 348.119C310.12 348.969 310.66 350.339 311.25 352.359C311.84 354.379 312.91 357.549 312.14 358.809C311.26 360.279 308.23 361.719 309.66 360.239C309.97 359.909 310.45 359.239 310.29 358.769C310.24 358.59 310.173 358.416 310.09 358.249C309.682 358.865 309.171 359.406 308.58 359.849C308.116 360.144 307.747 360.565 307.515 361.063C307.282 361.561 307.198 362.115 307.27 362.659C307.35 363.269 308.33 363.549 308.33 363.549C309.33 363.709 310.7 363.499 312.85 361.869C315 360.239 315.94 358.869 315.45 356.869C315.045 354.527 314.774 352.163 314.64 349.789C314.39 347.999 311.69 347.379 310.25 348.119Z" fill="#23222E"/>
<path d="M310.13 358.35C310.28 358.77 309.47 359.65 309.08 360.11C308.69 360.57 308.84 361.16 309.77 360.75C311.13 359.78 310.57 357.92 310.13 358.35Z" fill="#FFA8A7"/>
<path d="M272.89 259.72C274.22 255.1 273.38 252.29 272.36 248.29C270.48 240.97 268.7 233.62 268.7 233.62C268.7 233.62 267.37 205.74 267.31 203.2C267.24 200.2 266.66 198.52 266.41 195.98C266.27 194.54 265.24 194.39 265.34 194.44V200.08C264.418 199.256 263.547 198.378 262.73 197.45C261.79 196.32 260.84 196.45 260.54 197.02C260.24 197.59 261.79 198.7 262.54 200.17C263.385 201.638 264.324 203.051 265.35 204.4V219.64L261.35 221.96L260.57 236.52L266.79 259.17L272.89 259.72Z" fill="#FFA8A7"/>
<path d="M254.74 250.149L255.6 257.729L263.07 258.589L261.99 248.529L254.74 250.149Z" fill="#FFA8A7"/>
<path d="M216.59 191.5V247.78L265.34 219.64V163.35L216.59 191.5Z" fill="url(#paint47_linear_105_2)"/>
<path opacity="0.7" d="M216.59 191.5V247.78L265.34 219.64V163.35L216.59 191.5Z" fill="#FAFAFA"/>
<path d="M216.59 206.38C218.24 207.02 220.37 206.75 222.69 205.38C227.94 202.38 232.2 194.97 232.2 188.9C232.323 186.93 231.665 184.99 230.37 183.5L216.59 191.5V206.38Z" fill="url(#paint48_linear_105_2)"/>
<path opacity="0.2" d="M216.59 206.38C218.24 207.02 220.37 206.75 222.69 205.38C227.94 202.38 232.2 194.97 232.2 188.9C232.323 186.93 231.665 184.99 230.37 183.5L216.59 191.5V206.38Z" fill="#B46969"/>
<path d="M238.06 207.77C238.54 206.18 239.49 206.12 240.18 207.62L247.06 222.62L257.32 183.81C257.74 182.21 258.45 182.2 258.89 183.81L265.34 206.72V219.65L227.87 241.28L238.06 207.77Z" fill="url(#paint49_linear_105_2)"/>
<path opacity="0.2" d="M238.06 207.77C238.54 206.18 239.49 206.12 240.18 207.62L247.06 222.62L257.32 183.81C257.74 182.21 258.45 182.2 258.89 183.81L265.34 206.72V219.65L227.87 241.28L238.06 207.77Z" fill="#AA6060"/>
<path d="M264.34 165.09V219.09L217.59 246.09V192.09L264.34 165.09ZM265.34 163.35L216.59 191.5V247.78L265.34 219.64V163.35Z" fill="url(#paint50_linear_105_2)"/>
<path opacity="0.7" d="M264.34 165.09V219.09L217.59 246.09V192.09L264.34 165.09ZM265.34 163.35L216.59 191.5V247.78L265.34 219.64V163.35Z" fill="#FAFAFA"/>
<path d="M216.59 247.779L212.53 245.439V189.149L216.59 191.499V247.779Z" fill="url(#paint51_linear_105_2)"/>
<path opacity="0.1" d="M216.59 247.779L212.53 245.439V189.149L216.59 191.499V247.779Z" fill="#FAFAFA"/>
<path d="M212.53 189.15L261.27 161.01L265.34 163.35L216.59 191.5L212.53 189.15Z" fill="url(#paint52_linear_105_2)"/>
<path opacity="0.6" d="M212.53 189.15L261.27 161.01L265.34 163.35L216.59 191.5L212.53 189.15Z" fill="#FAFAFA"/>
<path d="M272.89 259.72C272.76 260.37 272.46 261.65 271.89 263.81C270.79 267.81 269.13 273.48 268.42 275.37C268.42 275.45 268.36 275.52 268.33 275.58L271.28 280.38C271.28 280.38 269.28 282.83 263.42 284.54C257.56 286.25 250.42 282.78 250.42 282.78C250.42 282.78 248.91 274.86 248.63 272.64C248.63 272.51 248.63 272.31 248.55 272.08C248.49 271.61 248.43 271.19 248.34 270.8C248.34 270.8 248.34 270.73 248.34 270.69C248.23 270.21 248.15 269.57 248.01 268.86C247.851 267.636 247.404 266.468 246.708 265.449C246.011 264.431 245.083 263.592 244 263C243.17 262.55 225.94 255.73 223.22 254.07C222.525 253.711 221.917 253.203 221.44 252.583C220.963 251.962 220.628 251.244 220.46 250.48C220.08 249.43 214.84 232.13 214.22 230.41C213.695 228.976 212.814 227.699 211.66 226.7C210.3 225.24 209.82 224.91 209.4 223.6C208.98 222.29 209.51 221.97 209.72 221.32C210.01 220.42 209.72 219.79 209.88 219.11C210.13 218.26 210.65 218.04 210.78 217.66C210.845 216.985 210.962 216.317 211.13 215.66C211.403 215.028 211.892 214.513 212.51 214.21V216.21C213.26 219.28 216.63 220.79 217.06 220.57C217.49 220.35 218.12 218.57 219.06 217.83C220 217.09 221.3 217.16 220.82 218.09C220.55 218.63 219.93 220.64 219.61 221.53C219.29 222.42 218.34 224.29 218.55 225.72C218.82 227.63 227.7 247.32 227.7 247.32C227.7 247.32 237.35 250.48 245.01 252.86C249.76 254.34 253.67 255.25 253.67 255.25L256.04 254.83L256.93 254.67L268.47 252.55L268.89 252.47C269.268 252.42 269.652 252.42 270.03 252.47C270.56 252.626 271.051 252.892 271.471 253.251C271.892 253.609 272.232 254.052 272.47 254.55C273.215 256.17 273.363 258.001 272.89 259.72Z" fill="#FFA8A7"/>
<path d="M256.17 286.81C256.17 286.81 270.69 322.27 272.01 325.51C272.844 327.877 274.482 329.877 276.64 331.16C278.58 332.51 303.87 349.92 303.87 349.92C307.74 348.31 307.82 345.79 307.82 345.79C307.82 345.79 294.76 329.14 292 326.74C289.24 324.34 284.13 323.12 284.13 323.12L277.7 296.12C276.84 291.98 277.37 287.4 271.21 280.35L256.17 286.81Z" fill="#37474F"/>
<path d="M260.71 284.829C263.71 288.989 266.46 292.649 267.24 297.439C268.88 307.569 264.91 319.929 264.43 327.489C265.871 329.77 266.749 332.362 266.99 335.049C267.13 338.159 264.39 366.789 264.39 366.789C262.697 367.724 260.743 368.075 258.83 367.789C258.83 367.789 252.73 326.419 251.56 312.969C250.39 299.519 250.36 282.819 250.36 282.819L260.71 284.829Z" fill="#37474F"/>
<path d="M249.92 238.879C249.531 237.812 249.419 236.663 249.594 235.541C249.769 234.418 250.225 233.358 250.92 232.459C253.77 228.609 259.19 226.969 264.92 228.959C267.77 229.959 271.25 233.199 271.16 240.229C271.1 244.539 258.92 246.859 258.98 249.819L249.92 238.879Z" fill="#23222E"/>
<path d="M249.55 240.49C249.55 240.49 247.74 242.98 247.95 243.27C248.334 243.547 248.764 243.754 249.22 243.88L249.55 240.49Z" fill="#F28F8F"/>
<path d="M255.1 232.58C253.41 233.36 250.49 234.81 249.48 240.86C248.48 247.08 249.48 249.12 250.27 249.98C250.82 250.56 253.92 250.7 255.48 250.29C257.48 249.77 261.88 248.29 263.99 245.12C266.47 241.43 267.17 236.4 264.59 234.3C263.282 233.236 261.725 232.521 260.066 232.22C258.407 231.919 256.699 232.043 255.1 232.58Z" fill="#FFA8A7"/>
<path d="M250.36 282.79L271.25 280.38C272.72 282.79 276.25 286.91 275.5 290.87C274.59 295.66 272.01 299.03 264.12 301.38" fill="#37474F"/>
<path d="M271 266.88C269.94 270.81 269.07 273.58 268.4 275.37C268.4 275.45 268.34 275.52 268.31 275.58L271.26 280.38C271.26 280.38 269.26 282.83 263.4 284.54C257.54 286.25 250.4 282.78 250.4 282.78C250.4 282.78 248.89 274.86 248.61 272.64C248.61 272.51 248.61 272.31 248.53 272.08C248.45 271.85 248.4 271.26 248.32 270.8C248.32 270.8 248.32 270.73 248.32 270.69C248.19 269.9 248.05 269.13 247.99 268.86C255.52 265.5 253.75 255.22 253.75 255.22L256.12 254.8L257.01 254.64C260.46 254.03 262.92 253.57 266.01 252.96C266.13 252.93 272.72 260.48 271 266.88Z" fill="#FAFAFA"/>
<path d="M269 273.55C266.605 275.082 264.079 276.397 261.45 277.48C263.857 277.43 266.212 276.776 268.3 275.58L269 273.55Z" fill="#F0F0F0"/>
<path d="M254.6 232.82C254.6 232.82 252.91 238.45 254.47 242.13C254.47 242.13 255.58 239.95 257.47 240.68C259.36 241.41 259.08 243.96 257.47 245.2C257.068 245.558 256.573 245.795 256.042 245.884C255.511 245.972 254.966 245.908 254.47 245.7C254.552 247.527 255.218 249.279 256.37 250.7C258.349 251.374 260.479 251.476 262.514 250.993C264.548 250.51 266.405 249.462 267.87 247.97C272.7 243.24 272.5 234.37 265.79 231.8C259.08 229.23 254.6 232.82 254.6 232.82Z" fill="#23222E"/>
<path d="M266.75 312.659L268.46 298.909C268.46 298.909 273.46 297.009 275.61 294.069C274.643 296.619 272.893 298.797 270.61 300.289C270.27 300.719 267.61 314.819 267.61 314.819L266.75 312.659Z" fill="#23222E"/>
<path d="M274.33 238.47C272.01 239.47 270.26 237.63 268.99 234.69C267.72 231.75 267.44 228.81 269.75 227.81C272.06 226.81 274.85 228.69 276.11 231.63C277.37 234.57 276.64 237.47 274.33 238.47Z" fill="#23222E"/>
<path d="M265.34 200.08C264.654 199.683 264.066 199.136 263.62 198.48C262.92 197.48 261.92 197 261.32 197.34C260.88 197.58 261.4 198.34 261.73 198.97C262.216 200.191 262.891 201.328 263.73 202.34C264.66 203.2 265.33 203.41 265.33 204.4C265.841 203.822 266.109 203.07 266.08 202.3C266.071 201.501 265.812 200.725 265.34 200.08Z" fill="#FFA8A7"/>
<defs>
<filter id="filter0_d_105_2" x="27.6875" y="237.269" width="452.435" height="222.869" filterUnits="userSpaceOnUse" color-interpolation-filters="sRGB">
<feFlood flood-opacity="0" result="BackgroundImageFix"/>
<feColorMatrix in="SourceAlpha" type="matrix" values="0 0 0 0 0 0 0 0 0 0 0 0 0 0 0 0 0 0 127 0" result="hardAlpha"/>
<feOffset dy="7"/>
<feGaussianBlur stdDeviation="2.5"/>
<feComposite in2="hardAlpha" operator="out"/>
<feColorMatrix type="matrix" values="0 0 0 0 0 0 0 0 0 0 0 0 0 0 0 0 0 0 0.25 0"/>
<feBlend mode="normal" in2="BackgroundImageFix" result="effect1_dropShadow_105_2"/>
<feBlend mode="normal" in="SourceGraphic" in2="effect1_dropShadow_105_2" result="shape"/>
</filter>
<linearGradient id="paint0_linear_105_2" x1="280.3" y1="42.5234" x2="280.3" y2="356.856" gradientUnits="userSpaceOnUse">
<stop stop-color="#FA4545"/>
<stop offset="1" stop-color="#FFAB48"/>
</linearGradient>
<linearGradient id="paint1_linear_105_2" x1="285.04" y1="151.024" x2="285.04" y2="158" gradientUnits="userSpaceOnUse">
<stop stop-color="#FFAB48"/>
<stop offset="1" stop-color="#FA4545"/>
</linearGradient>
<linearGradient id="paint2_linear_105_2" x1="291.35" y1="151.42" x2="291.35" y2="160.64" gradientUnits="userSpaceOnUse">
<stop stop-color="#FFAB48"/>
<stop offset="1" stop-color="#FA4545"/>
</linearGradient>
<linearGradient id="paint3_linear_105_2" x1="275.565" y1="185.1" x2="275.565" y2="192.055" gradientUnits="userSpaceOnUse">
<stop stop-color="#FFAB48"/>
<stop offset="1" stop-color="#FA4545"/>
</linearGradient>
<linearGradient id="paint4_linear_105_2" x1="291.39" y1="169.18" x2="291.39" y2="180.37" gradientUnits="userSpaceOnUse">
<stop stop-color="#FFAB48"/>
<stop offset="1" stop-color="#FA4545"/>
</linearGradient>
<linearGradient id="paint5_linear_105_2" x1="285.035" y1="179" x2="285.035" y2="189.6" gradientUnits="userSpaceOnUse">
<stop stop-color="#FFAB48"/>
<stop offset="1" stop-color="#FA4545"/>
</linearGradient>
<linearGradient id="paint6_linear_105_2" x1="293.815" y1="157.63" x2="293.815" y2="168.59" gradientUnits="userSpaceOnUse">
<stop stop-color="#FFAB48"/>
<stop offset="1" stop-color="#FA4545"/>
</linearGradient>
<linearGradient id="paint7_linear_105_2" x1="280.31" y1="159.23" x2="280.31" y2="183.792" gradientUnits="userSpaceOnUse">
<stop stop-color="#FFAB48"/>
<stop offset="1" stop-color="#FA4545"/>
</linearGradient>
<linearGradient id="paint8_linear_105_2" x1="350.03" y1="113.494" x2="350.03" y2="120.449" gradientUnits="userSpaceOnUse">
<stop stop-color="#FFAB48"/>
<stop offset="1" stop-color="#FA4545"/>
</linearGradient>
<linearGradient id="paint9_linear_105_2" x1="356.34" y1="113.899" x2="356.34" y2="123.109" gradientUnits="userSpaceOnUse">
<stop stop-color="#FFAB48"/>
<stop offset="1" stop-color="#FA4545"/>
</linearGradient>
<linearGradient id="paint10_linear_105_2" x1="340.57" y1="147.58" x2="340.57" y2="154.581" gradientUnits="userSpaceOnUse">
<stop stop-color="#FFAB48"/>
<stop offset="1" stop-color="#FA4545"/>
</linearGradient>
<linearGradient id="paint11_linear_105_2" x1="358.805" y1="120.1" x2="358.805" y2="131.07" gradientUnits="userSpaceOnUse">
<stop stop-color="#FFAB48"/>
<stop offset="1" stop-color="#FA4545"/>
</linearGradient>
<linearGradient id="paint12_linear_105_2" x1="356.38" y1="131.66" x2="356.38" y2="142.84" gradientUnits="userSpaceOnUse">
<stop stop-color="#FFAB48"/>
<stop offset="1" stop-color="#FA4545"/>
</linearGradient>
<linearGradient id="paint13_linear_105_2" x1="331.795" y1="136.93" x2="331.795" y2="147.92" gradientUnits="userSpaceOnUse">
<stop stop-color="#FFAB48"/>
<stop offset="1" stop-color="#FA4545"/>
</linearGradient>
<linearGradient id="paint14_linear_105_2" x1="334.22" y1="144.91" x2="334.22" y2="154.12" gradientUnits="userSpaceOnUse">
<stop stop-color="#FFAB48"/>
<stop offset="1" stop-color="#FA4545"/>
</linearGradient>
<linearGradient id="paint15_linear_105_2" x1="350.03" y1="141.47" x2="350.03" y2="152.07" gradientUnits="userSpaceOnUse">
<stop stop-color="#FFAB48"/>
<stop offset="1" stop-color="#FA4545"/>
</linearGradient>
<linearGradient id="paint16_linear_105_2" x1="345.3" y1="121.729" x2="345.3" y2="146.284" gradientUnits="userSpaceOnUse">
<stop stop-color="#FFAB48"/>
<stop offset="1" stop-color="#FA4545"/>
</linearGradient>
<linearGradient id="paint17_linear_105_2" x1="215.315" y1="237.229" x2="215.315" y2="321.66" gradientUnits="userSpaceOnUse">
<stop stop-color="#FFAB48"/>
<stop offset="1" stop-color="#FA4545"/>
</linearGradient>
<linearGradient id="paint18_linear_105_2" x1="198.753" y1="257.38" x2="198.753" y2="280.582" gradientUnits="userSpaceOnUse">
<stop stop-color="#FFAB48"/>
<stop offset="1" stop-color="#FA4545"/>
</linearGradient>
<linearGradient id="paint19_linear_105_2" x1="220.955" y1="256.486" x2="220.955" y2="315.16" gradientUnits="userSpaceOnUse">
<stop stop-color="#FFAB48"/>
<stop offset="1" stop-color="#FA4545"/>
</linearGradient>
<linearGradient id="paint20_linear_105_2" x1="215.315" y1="237.229" x2="215.315" y2="321.7" gradientUnits="userSpaceOnUse">
<stop stop-color="#FFAB48"/>
<stop offset="1" stop-color="#FA4545"/>
</linearGradient>
<linearGradient id="paint21_linear_105_2" x1="280.31" y1="199.71" x2="280.31" y2="284.13" gradientUnits="userSpaceOnUse">
<stop stop-color="#FFAB48"/>
<stop offset="1" stop-color="#FA4545"/>
</linearGradient>
<linearGradient id="paint22_linear_105_2" x1="263.748" y1="219.859" x2="263.748" y2="243.059" gradientUnits="userSpaceOnUse">
<stop stop-color="#FFAB48"/>
<stop offset="1" stop-color="#FA4545"/>
</linearGradient>
<linearGradient id="paint23_linear_105_2" x1="285.945" y1="218.956" x2="285.945" y2="277.63" gradientUnits="userSpaceOnUse">
<stop stop-color="#FFAB48"/>
<stop offset="1" stop-color="#FA4545"/>
</linearGradient>
<linearGradient id="paint24_linear_105_2" x1="280.31" y1="199.699" x2="280.31" y2="284.129" gradientUnits="userSpaceOnUse">
<stop stop-color="#FFAB48"/>
<stop offset="1" stop-color="#FA4545"/>
</linearGradient>
<linearGradient id="paint25_linear_105_2" x1="345.3" y1="162.18" x2="345.3" y2="246.61" gradientUnits="userSpaceOnUse">
<stop stop-color="#FFAB48"/>
<stop offset="1" stop-color="#FA4545"/>
</linearGradient>
<linearGradient id="paint26_linear_105_2" x1="328.738" y1="182.34" x2="328.738" y2="205.54" gradientUnits="userSpaceOnUse">
<stop stop-color="#FFAB48"/>
<stop offset="1" stop-color="#FA4545"/>
</linearGradient>
<linearGradient id="paint27_linear_105_2" x1="350.935" y1="181.43" x2="350.935" y2="240.1" gradientUnits="userSpaceOnUse">
<stop stop-color="#FFAB48"/>
<stop offset="1" stop-color="#FA4545"/>
</linearGradient>
<linearGradient id="paint28_linear_105_2" x1="345.3" y1="162.18" x2="345.3" y2="246.61" gradientUnits="userSpaceOnUse">
<stop stop-color="#FFAB48"/>
<stop offset="1" stop-color="#FA4545"/>
</linearGradient>
<linearGradient id="paint29_linear_105_2" x1="132.045" y1="355.63" x2="132.045" y2="411.92" gradientUnits="userSpaceOnUse">
<stop stop-color="#FFAB48"/>
<stop offset="1" stop-color="#FA4545"/>
</linearGradient>
<linearGradient id="paint30_linear_105_2" x1="95.8638" y1="375.81" x2="95.8638" y2="391.22" gradientUnits="userSpaceOnUse">
<stop stop-color="#FFAB48"/>
<stop offset="1" stop-color="#FA4545"/>
</linearGradient>
<linearGradient id="paint31_linear_105_2" x1="155.129" y1="367.327" x2="155.129" y2="405.41" gradientUnits="userSpaceOnUse">
<stop stop-color="#FFAB48"/>
<stop offset="1" stop-color="#FA4545"/>
</linearGradient>
<linearGradient id="paint32_linear_105_2" x1="132.025" y1="355.64" x2="132.025" y2="411.92" gradientUnits="userSpaceOnUse">
<stop stop-color="#FFAB48"/>
<stop offset="1" stop-color="#FA4545"/>
</linearGradient>
<linearGradient id="paint33_linear_105_2" x1="107.67" y1="383.78" x2="107.67" y2="416.61" gradientUnits="userSpaceOnUse">
<stop stop-color="#FFAB48"/>
<stop offset="1" stop-color="#FA4545"/>
</linearGradient>
<linearGradient id="paint34_linear_105_2" x1="156.415" y1="383.78" x2="156.415" y2="416.61" gradientUnits="userSpaceOnUse">
<stop stop-color="#FFAB48"/>
<stop offset="1" stop-color="#FA4545"/>
</linearGradient>
<linearGradient id="paint35_linear_105_2" x1="396.085" y1="238.46" x2="396.085" y2="322.88" gradientUnits="userSpaceOnUse">
<stop stop-color="#FFAB48"/>
<stop offset="1" stop-color="#FA4545"/>
</linearGradient>
<linearGradient id="paint36_linear_105_2" x1="369.36" y1="265.58" x2="369.36" y2="322.88" gradientUnits="userSpaceOnUse">
<stop stop-color="#FFAB48"/>
<stop offset="1" stop-color="#FA4545"/>
</linearGradient>
<linearGradient id="paint37_linear_105_2" x1="389.67" y1="237.44" x2="389.67" y2="266.6" gradientUnits="userSpaceOnUse">
<stop stop-color="#FFAB48"/>
<stop offset="1" stop-color="#FA4545"/>
</linearGradient>
<linearGradient id="paint38_linear_105_2" x1="375.032" y1="260.641" x2="375.032" y2="278.2" gradientUnits="userSpaceOnUse">
<stop stop-color="#FFAB48"/>
<stop offset="1" stop-color="#FA4545"/>
</linearGradient>
<linearGradient id="paint39_linear_105_2" x1="404.21" y1="250.171" x2="404.21" y2="318.191" gradientUnits="userSpaceOnUse">
<stop stop-color="#FFAB48"/>
<stop offset="1" stop-color="#FA4545"/>
</linearGradient>
<linearGradient id="paint40_linear_105_2" x1="396.085" y1="238.46" x2="396.085" y2="322.88" gradientUnits="userSpaceOnUse">
<stop stop-color="#FFAB48"/>
<stop offset="1" stop-color="#FA4545"/>
</linearGradient>
<linearGradient id="paint41_linear_105_2" x1="412.325" y1="247.841" x2="412.325" y2="332.261" gradientUnits="userSpaceOnUse">
<stop stop-color="#FFAB48"/>
<stop offset="1" stop-color="#FA4545"/>
</linearGradient>
<linearGradient id="paint42_linear_105_2" x1="385.61" y1="274.96" x2="385.61" y2="332.26" gradientUnits="userSpaceOnUse">
<stop stop-color="#FFAB48"/>
<stop offset="1" stop-color="#FA4545"/>
</linearGradient>
<linearGradient id="paint43_linear_105_2" x1="405.92" y1="246.82" x2="405.92" y2="275.98" gradientUnits="userSpaceOnUse">
<stop stop-color="#FFAB48"/>
<stop offset="1" stop-color="#FA4545"/>
</linearGradient>
<linearGradient id="paint44_linear_105_2" x1="391.271" y1="270.011" x2="391.271" y2="287.57" gradientUnits="userSpaceOnUse">
<stop stop-color="#FFAB48"/>
<stop offset="1" stop-color="#FA4545"/>
</linearGradient>
<linearGradient id="paint45_linear_105_2" x1="420.45" y1="259.567" x2="420.45" y2="327.571" gradientUnits="userSpaceOnUse">
<stop stop-color="#FFAB48"/>
<stop offset="1" stop-color="#FA4545"/>
</linearGradient>
<linearGradient id="paint46_linear_105_2" x1="412.315" y1="247.841" x2="412.315" y2="332.261" gradientUnits="userSpaceOnUse">
<stop stop-color="#FFAB48"/>
<stop offset="1" stop-color="#FA4545"/>
</linearGradient>
<linearGradient id="paint47_linear_105_2" x1="240.965" y1="163.35" x2="240.965" y2="247.78" gradientUnits="userSpaceOnUse">
<stop stop-color="#FFAB48"/>
<stop offset="1" stop-color="#FA4545"/>
</linearGradient>
<linearGradient id="paint48_linear_105_2" x1="224.402" y1="183.5" x2="224.402" y2="206.71" gradientUnits="userSpaceOnUse">
<stop stop-color="#FFAB48"/>
<stop offset="1" stop-color="#FA4545"/>
</linearGradient>
<linearGradient id="paint49_linear_105_2" x1="246.605" y1="182.606" x2="246.605" y2="241.28" gradientUnits="userSpaceOnUse">
<stop stop-color="#FFAB48"/>
<stop offset="1" stop-color="#FA4545"/>
</linearGradient>
<linearGradient id="paint50_linear_105_2" x1="240.965" y1="163.35" x2="240.965" y2="247.78" gradientUnits="userSpaceOnUse">
<stop stop-color="#FFAB48"/>
<stop offset="1" stop-color="#FA4545"/>
</linearGradient>
<linearGradient id="paint51_linear_105_2" x1="214.56" y1="189.149" x2="214.56" y2="247.779" gradientUnits="userSpaceOnUse">
<stop stop-color="#FFAB48"/>
<stop offset="1" stop-color="#FA4545"/>
</linearGradient>
<linearGradient id="paint52_linear_105_2" x1="238.935" y1="161.01" x2="238.935" y2="191.5" gradientUnits="userSpaceOnUse">
<stop stop-color="#FFAB48"/>
<stop offset="1" stop-color="#FA4545"/>
</linearGradient>
</defs>
</svg>
