<svg width="650" height="586" viewBox="0 0 650 586" fill="none" xmlns="http://www.w3.org/2000/svg">
<g clip-path="url(#clip0_110_10)">
<g filter="url(#filter0_f_110_10)">
<path d="M111.713 525.811C231.331 596.443 425.275 596.443 544.893 525.811C664.51 455.179 664.51 340.645 544.893 269.997C425.275 199.348 231.331 199.365 111.713 269.997C-7.90441 340.628 -7.90441 455.162 111.713 525.811Z" fill="#AFAFAF"/>
</g>
<path d="M115.433 500.567C233.301 567.945 424.41 567.945 542.278 500.567C660.147 433.19 660.147 323.933 542.278 256.539C424.41 189.145 233.301 189.162 115.433 256.539C-2.43592 323.917 -2.43592 433.174 115.433 500.567Z" fill="#F0F0F0"/>
<path opacity="0.4" d="M429.52 385.651L381.7 358.001C378.25 356.001 378.7 352.531 382.7 350.231L413.7 332.341L474 367.211L443 385.101C439 387.391 433 387.641 429.52 385.651Z" fill="#D6D8E5"/>
<path d="M433.84 383.121L386 355.511C382.56 353.511 383 350.041 387 347.741L418 329.851L478.32 364.681L447.32 382.571C443.31 384.861 437.29 385.111 433.84 383.121Z" fill="#B1B4C4"/>
<path d="M478.28 364.681V362.851L475.49 364.461L478.28 364.681Z" fill="#B1B4C4"/>
<path d="M383.69 352.22V350.36L386.55 351.55L383.69 352.22Z" fill="#B1B4C4"/>
<path d="M433.84 381.3L386 353.68C382.56 351.68 383 348.22 387 345.92L418 328L478.32 362.82L447.32 380.71C443.31 383 437.29 383.29 433.84 381.3Z" fill="#D6D8E5"/>
<path d="M418.13 328.111L410.66 303.351L471.63 338.321L478.28 362.851L418.13 328.111Z" fill="#9EA1AF"/>
<path d="M476.51 363.871L478.28 362.871L475.65 360.771L476.51 363.871Z" fill="#9EA1AF"/>
<path d="M416.2 329.04L408.74 304.28L469.71 339.25L476.51 363.87L416.2 329.04Z" fill="#B1B4C4"/>
<path d="M571 405.61L335 269.35C331.69 267.44 329 262.35 329 257.89V75.3305C329 70.9205 331.68 68.8905 335 70.8005L571 207.06C574.31 208.97 577 214.06 577 218.51V401.08C577 405.49 574.29 407.52 571 405.61Z" fill="#B1B4C4"/>
<path d="M572.19 407.49L574.81 405.98L573.68 398.23L572.19 407.49Z" fill="#B1B4C4"/>
<path d="M328.55 71.9304L331.13 70.4404L334.83 72.5504C334.83 72.5504 330.89 73.1504 330.83 73.1304C330.77 73.1104 328.55 71.9304 328.55 71.9304Z" fill="#B1B4C4"/>
<path d="M568.82 406.86L332.82 270.6C329.51 268.69 326.82 263.6 326.82 259.14V76.5805C326.82 72.1705 329.51 70.1405 332.82 72.0505L568.82 208.31C572.13 210.22 574.82 215.31 574.82 219.76V402.33C574.81 406.74 572.13 408.77 568.82 406.86Z" fill="#E4E7F2"/>
<path d="M568.4 407.091L332.4 270.831C329.09 268.921 326.4 263.831 326.4 259.381V76.8207C326.4 72.4107 329.08 70.3807 332.4 72.2907L568.4 208.551C571.71 210.461 574.4 215.551 574.4 220.001V402.561C574.4 407.001 571.71 409.001 568.4 407.091Z" fill="#D6D8E5"/>
<path d="M571.15 396L329.39 256.42L329.52 77.55C329.52 75.72 330.81 74.98 332.39 75.89L568.39 212.15C569.229 212.698 569.926 213.437 570.425 214.306C570.924 215.175 571.21 216.149 571.26 217.15L571.15 396Z" fill="white"/>
<path d="M556.18 240.5L341.88 116.78C341.138 116.248 340.53 115.549 340.107 114.74C339.683 113.931 339.455 113.033 339.44 112.12V96.65C339.44 94.86 340.53 94.03 341.88 94.81L556.18 218.53C556.924 219.063 557.532 219.764 557.955 220.575C558.379 221.386 558.607 222.285 558.62 223.2V238.66C558.62 240.46 557.53 241.28 556.18 240.5Z" fill="#E9EAF2"/>
<path d="M545 281.91L494.63 252.83C493.888 252.298 493.28 251.599 492.857 250.79C492.433 249.981 492.205 249.084 492.19 248.17V215.66C492.19 213.86 493.28 213.04 494.63 213.82L545 242.9C545.743 243.431 546.352 244.13 546.775 244.939C547.199 245.749 547.427 246.647 547.44 247.56V280.07C547.4 281.86 546.31 282.69 545 281.91Z" fill="#E9EAF2"/>
<path d="M478.61 292.47L352.25 219.47C351.877 219.206 351.572 218.857 351.36 218.452C351.148 218.047 351.035 217.597 351.03 217.14V211.55C351.03 210.65 351.57 210.23 352.25 210.62L478.61 283.62C478.981 283.887 479.284 284.236 479.496 284.641C479.708 285.045 479.822 285.494 479.83 285.95V291.55C479.83 292.44 479.28 292.86 478.61 292.47Z" fill="#E9EAF2"/>
<path d="M466.17 298.531L352.61 233.001C352.24 232.734 351.937 232.384 351.725 231.98C351.513 231.576 351.398 231.127 351.39 230.671V227.881C351.39 226.981 351.94 226.571 352.61 226.961L466.17 292.521C466.541 292.787 466.844 293.137 467.056 293.541C467.268 293.946 467.382 294.394 467.39 294.851V297.631C467.39 298.501 466.84 298.921 466.17 298.531Z" fill="#E9EAF2"/>
<path d="M466.17 309.091L352.61 243.531C352.239 243.264 351.936 242.915 351.724 242.51C351.512 242.106 351.398 241.657 351.39 241.201V238.411C351.39 237.521 351.94 237.101 352.61 237.491L466.17 303.051C466.541 303.317 466.844 303.667 467.056 304.071C467.268 304.476 467.382 304.924 467.39 305.381V308.171C467.39 309.071 466.84 309.481 466.17 309.091Z" fill="#E9EAF2"/>
<path d="M437.14 302.89L352.61 254.09C352.239 253.824 351.936 253.474 351.724 253.07C351.512 252.665 351.398 252.217 351.39 251.76V249C351.39 248.1 351.94 247.69 352.61 248.07L437.14 296.87C437.508 297.142 437.81 297.493 438.021 297.899C438.232 298.305 438.348 298.753 438.36 299.21V302C438.36 302.87 437.81 303.28 437.14 302.89Z" fill="#E9EAF2"/>
<path d="M546.18 295.43L493.37 264.94C492.997 264.676 492.693 264.327 492.481 263.922C492.269 263.517 492.155 263.067 492.15 262.61V259.82C492.15 258.92 492.69 258.51 493.37 258.9L546.18 289.39C546.551 289.657 546.854 290.006 547.066 290.411C547.278 290.815 547.392 291.264 547.4 291.72V294.51C547.4 295.41 546.85 295.82 546.18 295.43Z" fill="#E9EAF2"/>
<path d="M546.18 306L493.37 275.5C492.997 275.236 492.693 274.886 492.481 274.482C492.269 274.077 492.155 273.627 492.15 273.17V270.39C492.15 269.49 492.69 269.07 493.37 269.46L546.18 300C546.552 300.266 546.856 300.615 547.068 301.02C547.28 301.424 547.394 301.873 547.4 302.33V305.11C547.4 306 546.85 306.38 546.18 306Z" fill="#E9EAF2"/>
<path d="M532.35 308.57L493.35 286.06C492.977 285.795 492.673 285.446 492.461 285.041C492.249 284.636 492.135 284.187 492.13 283.73V281C492.13 280.1 492.67 279.69 493.35 280.08L532.35 302.58C532.721 302.846 533.025 303.195 533.237 303.6C533.449 304.005 533.563 304.453 533.57 304.91V307.7C533.57 308.55 533 309 532.35 308.57Z" fill="#E9EAF2"/>
<path d="M545 363.31L494.63 334.23C493.888 333.698 493.28 332.999 492.857 332.19C492.433 331.381 492.205 330.483 492.19 329.57V297.06C492.19 295.27 493.28 294.44 494.63 295.22L545 324.3C545.74 324.841 546.343 325.548 546.76 326.364C547.177 327.181 547.396 328.083 547.4 329V361.51C547.4 363.26 546.31 364.09 545 363.31Z" fill="#E9EAF2"/>
<path d="M546.18 376.83L493.37 346.34C492.997 346.075 492.693 345.726 492.481 345.321C492.269 344.916 492.155 344.467 492.15 344.01V341.23C492.15 340.33 492.69 339.91 493.37 340.3L546.18 370.79C546.548 371.061 546.85 371.413 547.061 371.819C547.272 372.224 547.388 372.673 547.4 373.13V375.91C547.4 376.81 546.85 377.22 546.18 376.83Z" fill="#E9EAF2"/>
<path d="M352.581 115.736C354.413 114.679 354.411 111.247 352.578 108.071C350.744 104.895 347.773 103.178 345.941 104.235C344.109 105.293 344.11 108.725 345.944 111.901C347.778 115.077 350.749 116.794 352.581 115.736Z" fill="#DADCE5"/>
<path d="M460.68 176.351L442.14 165.651C441.954 165.517 441.802 165.341 441.696 165.138C441.59 164.935 441.533 164.71 441.53 164.481V162.001C441.53 161.551 441.8 161.341 442.14 161.541L460.68 172.241C460.867 172.371 461.019 172.545 461.125 172.747C461.232 172.948 461.288 173.173 461.29 173.401V175.861C461.29 176.341 461 176.551 460.68 176.351Z" fill="#DADCE5"/>
<path d="M490.68 193.681L472.14 183.001C471.955 182.868 471.803 182.694 471.697 182.493C471.591 182.291 471.534 182.068 471.53 181.841V179.381C471.53 178.931 471.81 178.721 472.14 178.921L490.68 189.621C490.866 189.755 491.018 189.93 491.123 190.133C491.229 190.336 491.286 190.562 491.29 190.791V193.251C491.29 193.661 491 193.871 490.68 193.681Z" fill="#DADCE5"/>
<path d="M520.2 210.72L501.66 200C501.473 199.869 501.32 199.696 501.214 199.494C501.108 199.292 501.052 199.068 501.05 198.84V196.38C501.05 195.93 501.32 195.73 501.66 195.92L520.2 206.62C520.386 206.754 520.538 206.93 520.643 207.133C520.749 207.336 520.806 207.561 520.81 207.79V210.25C520.81 210.71 520.54 210.91 520.2 210.72Z" fill="#DADCE5"/>
<path d="M550.2 228L531.67 217.3C531.484 217.166 531.332 216.991 531.226 216.788C531.12 216.584 531.063 216.359 531.06 216.13V213.67C531.06 213.22 531.33 213.02 531.67 213.21L550.2 224C550.387 224.131 550.539 224.304 550.646 224.506C550.752 224.708 550.808 224.932 550.81 225.16V227.62C550.81 228 550.54 228.24 550.2 228Z" fill="#DADCE5"/>
<path d="M509.28 246.91L505.74 237.8L499.31 246.96L506.37 251.04L512.18 254.39L525.13 261.87L515.75 237.7L509.28 246.91Z" fill="#DADCE5"/>
<path d="M540.012 253.516C541.669 252.564 541.677 249.466 540.028 246.597C538.38 243.729 535.699 242.176 534.042 243.129C532.384 244.081 532.377 247.179 534.025 250.047C535.674 252.916 538.354 254.469 540.012 253.516Z" fill="#DADCE5"/>
<path d="M509.64 329.511L506.11 320.401L499.67 329.561L506.74 333.641L512.55 336.991L525.5 344.471L516.12 320.301L509.64 329.511Z" fill="#DADCE5"/>
<path d="M538.727 335.118C540.377 334.166 540.379 331.079 538.73 328.223C537.082 325.368 534.407 323.825 532.757 324.778C531.107 325.731 531.106 328.818 532.755 331.673C534.403 334.529 537.077 336.071 538.727 335.118Z" fill="#DADCE5"/>
<path d="M390.68 205.33L386 224.07V208.03L390.68 205.33Z" fill="#232733"/>
<path d="M336.17 173.56L331.49 192.31V176.27L336.17 173.56Z" fill="#232733"/>
<path d="M413.14 289.83L301.72 225.5C301.055 225.023 300.511 224.396 300.132 223.67C299.754 222.944 299.551 222.139 299.54 221.32V164.32C299.54 162.71 300.54 161.97 301.72 162.67L413.14 227C413.807 227.475 414.353 228.099 414.733 228.824C415.114 229.548 415.318 230.352 415.33 231.17V288.22C415.33 289.79 414.35 290.53 413.14 289.83Z" fill="#E9EAF2"/>
<path d="M332.73 223L326.69 207.43L315.69 223.08L327.77 230.06L337.69 235.79L359.84 248.58L343.8 207.25L332.73 223Z" fill="url(#paint0_linear_110_10)"/>
<path d="M394.953 239.788C397.77 238.162 397.768 232.884 394.949 228.001C392.129 223.118 387.56 220.477 384.743 222.104C381.926 223.73 381.928 229.008 384.747 233.891C387.566 238.774 392.136 241.415 394.953 239.788Z" fill="url(#paint1_linear_110_10)"/>
<path d="M383.95 201.44L383.94 180.06L377.88 175.51V201.44L371.14 205.33L380.91 210.97L390.68 205.33L383.95 201.44Z" fill="#353C4C"/>
<path d="M380.91 210.97L386 224.07V208.94V208.03L380.91 210.97Z" fill="#232733"/>
<path d="M371.14 205.33L375.47 217.91L386 224.07L380.91 210.97L371.14 205.33Z" fill="#2B303F"/>
<path d="M329.43 169.68V143.74H323.37V169.67L316.63 173.56L326.4 179.21L336.17 173.56L329.43 169.68Z" fill="#353C4C"/>
<path d="M326.4 179.21L331.49 192.31V177.18V176.27L326.4 179.21Z" fill="#232733"/>
<path d="M316.63 173.56L320.96 186.14L331.49 192.31L326.4 179.21L316.63 173.56Z" fill="#2B303F"/>
<path opacity="0.4" d="M262.77 290.74L202.41 255.72L129.68 297.71L194.75 335.45L267.49 293.46V288.02L262.77 290.74Z" fill="#D6D8E5"/>
<path d="M270.43 286.02L202.41 246.75L134.39 286.02L129.68 283.3V288.74L202.41 330.74L275.14 288.74V283.3L270.43 286.02Z" fill="#B1B4C4"/>
<path d="M202.41 325.29L129.68 283.3L202.41 241.31L275.14 283.3L202.41 325.29Z" fill="#E7E9F2"/>
<path d="M202.18 267.75L206.93 265.01V62.2002L202.18 64.9402V267.75Z" fill="#B1B4C4"/>
<path d="M202.56 147.69L235.77 200.25L240.52 198.31L206.93 145.23L202.56 147.69Z" fill="#B1B4C4"/>
<path d="M202.36 157.04L235.59 209.86V199.98L202.36 147.35V157.04Z" fill="#D6D8E5"/>
<path d="M197.61 265.01L202.36 267.75V64.9402L197.61 62.2002V265.01Z" fill="#D6D8E5"/>
<path d="M235.59 286.94L240.34 289.68V86.8699L235.59 84.1299V286.94Z" fill="#D6D8E5"/>
<path d="M240.16 289.68L244.91 286.94V84.1299L240.16 86.8699V289.68Z" fill="#B1B4C4"/>
<path d="M202.36 253.13L235.59 213.34V203.8L202.36 243.65V253.13Z" fill="#D6D8E5"/>
<path d="M202.36 253.13L206.93 250.63L235.59 216.08V212.6L202.36 253.13Z" fill="#B1B4C4"/>
<path d="M202.36 147.69L235.59 107.9V98.3604L202.36 138.21V147.69Z" fill="#D6D8E5"/>
<path d="M202.36 147.69L206.93 145.18L235.59 110.64V107.16L202.36 147.69Z" fill="#B1B4C4"/>
<path d="M164.48 289.65L169.23 286.91V84.0996L164.48 86.8396V289.65Z" fill="#B1B4C4"/>
<path d="M164.86 169.59L198.07 222.14L202.82 220.21L169.23 167.13L164.86 169.59Z" fill="#B1B4C4"/>
<path d="M164.66 178.94L197.89 231.75V221.88L164.66 169.24V178.94Z" fill="#D6D8E5"/>
<path d="M159.92 286.91L164.66 289.65V86.8396L159.92 84.0996V286.91Z" fill="#D6D8E5"/>
<path d="M197.89 308.83L202.64 311.57V108.77L197.89 106.02V308.83Z" fill="#D6D8E5"/>
<path d="M202.46 311.57L207.21 308.83V106.02L202.46 108.77V311.57Z" fill="#B1B4C4"/>
<path d="M164.66 275.03L197.89 235.24V225.69L164.66 265.55V275.03Z" fill="#D6D8E5"/>
<path d="M164.66 275.03L169.23 272.52L197.89 237.98V234.49L164.66 275.03Z" fill="#B1B4C4"/>
<path d="M164.66 169.59L197.89 129.8V120.25L164.66 160.1V169.59Z" fill="#D6D8E5"/>
<path d="M164.66 169.59L169.23 167.08L197.89 132.53V129.05L164.66 169.59Z" fill="#B1B4C4"/>
<path d="M202.64 119.04L153.61 90.7297L202.64 62.4297L251.67 90.7297L202.64 119.04Z" fill="#F7DC6B"/>
<path d="M198.99 37.9098L140.86 71.4698L124.22 61.8598L182.35 28.2998L198.99 37.9098Z" fill="#353C4C"/>
<path d="M124.22 75.3204V61.8604L140.86 71.4704V84.9304L124.22 75.3204Z" fill="#2B303F"/>
<path d="M140.86 84.9302L198.99 51.3702V37.9102L140.86 71.4702V83.6202" fill="#232733"/>
<path d="M198.99 22.8102L140.86 56.3702L124.22 46.7602L182.35 13.2002L198.99 22.8102Z" fill="#353C4C"/>
<path d="M124.22 60.2298V46.7598L140.86 56.3698V69.8398L124.22 60.2298Z" fill="#2B303F"/>
<path d="M140.86 69.8396L198.99 36.2796V22.8096L140.86 56.3696V68.5296" fill="#232733"/>
<path d="M155.05 64.5501L119 43.8701V36.3301L155.05 56.8801V64.5501Z" fill="#D6D8E5"/>
<path d="M207.21 86.8196L119 36.3296L125.53 32.5596L213.74 83.0496L207.21 86.8196Z" fill="#E7E9F2"/>
<path d="M194.71 52.6299L149.42 26.4299V18.8799L194.71 43.1499V52.6299Z" fill="#D6D8E5"/>
<path d="M229.06 64.0901L149.42 18.8901L155.95 15.1201L235.59 60.3201L229.06 64.0901Z" fill="#E7E9F2"/>
<path d="M173.55 32.7998V40.3398L176.65 62.0498L181.25 64.9098L173.55 32.7998Z" fill="#D6D8E5"/>
<path d="M187.18 68.1298L181.22 37.2298L173.55 32.7998L178.2 63.2498L187.18 68.1298Z" fill="#E7E9F2"/>
<path d="M173.55 40.3397L149.76 46.6097L137.54 39.5497L172.51 32.1797L173.55 32.7997V40.3397Z" fill="#B1B4C4"/>
<path d="M173.55 32.8001L140.42 41.2201L133.3 37.1101L166.69 28.5801L173.55 32.8001Z" fill="#E7E9F2"/>
<path d="M202.64 56.62L153.61 28.31L202.64 0L251.67 28.31L202.64 56.62Z" fill="#E7E9F2"/>
<path d="M153.61 115.73V28.3096L202.64 56.6196V144.04L153.61 115.73Z" fill="#D6D8E5"/>
<path d="M251.67 28.3096V115.73L202.64 144.04V56.6096L251.67 28.3096Z" fill="#B1B4C4"/>
<path d="M202.64 87.0695L174.49 70.8195L165.44 42.0195L202.64 63.4995V87.0695Z" fill="url(#paint2_linear_110_10)"/>
<path d="M251.67 35.1904V58.7604L202.64 87.0804V63.5104L251.67 35.1904Z" fill="url(#paint3_linear_110_10)"/>
<path d="M421.27 219.27L209.12 96.7802V89.2402L421.27 211.73V219.27Z" fill="#D6D8E5"/>
<path d="M421.27 211.73L209.12 89.2505L215.65 85.4805L427.8 207.96L421.27 211.73Z" fill="#E7E9F2"/>
<path d="M451.69 201.83L239.54 79.3398V71.7998L451.69 194.29V201.83Z" fill="#D6D8E5"/>
<path d="M451.69 194.29L239.54 71.8003L246.07 68.0303L458.22 190.52L451.69 194.29Z" fill="#E7E9F2"/>
<path d="M458.22 198.08L421.27 219.27V211.72L458.22 190.54V198.08Z" fill="#B1B4C4"/>
<path d="M458.22 190.54L421.29 211.73L415.76 208.54L452.69 187.35L458.22 190.54Z" fill="#E7E9F2"/>
<path d="M425.1 186.46L401.3 192.73L389.08 185.67L424.05 178.3L425.1 178.92V186.46Z" fill="#B1B4C4"/>
<path d="M425.1 178.92L391.97 187.34L384.85 183.22L418.23 174.7L425.1 178.92Z" fill="#E7E9F2"/>
<path d="M371.41 147.96V155.5L374.51 177.21L379.11 180.06L371.41 147.96Z" fill="#D6D8E5"/>
<path d="M385.04 183.29L379.08 152.39L371.41 147.96L376.07 178.41L385.04 183.29Z" fill="#E7E9F2"/>
<path d="M371.41 155.5L347.62 161.77L335.4 154.71L370.37 147.34L371.41 147.96V155.5Z" fill="#B1B4C4"/>
<path d="M371.41 147.96L338.29 156.38L331.17 152.27L364.55 143.74L371.41 147.96Z" fill="#E7E9F2"/>
<path d="M317.54 116.83V124.37L320.63 146.08L325.24 148.94L317.54 116.83Z" fill="#D6D8E5"/>
<path d="M331.17 152.16L325.21 121.26L317.54 116.83L322.19 147.28L331.17 152.16Z" fill="#E7E9F2"/>
<path d="M317.54 124.37L293.75 130.64L281.53 123.58L316.5 116.21L317.54 116.83V124.37Z" fill="#B1B4C4"/>
<path d="M317.54 116.83L284.41 125.25L277.29 121.14L310.68 112.61L317.54 116.83Z" fill="#E7E9F2"/>
<path d="M263.67 85.7197V93.2597L266.76 114.97L271.37 117.82L263.67 85.7197Z" fill="#D6D8E5"/>
<path d="M277.29 121.05L271.34 90.1497L263.67 85.7197L268.32 116.17L277.29 121.05Z" fill="#E7E9F2"/>
<path d="M263.67 93.2596L239.88 99.5296L227.66 92.4696L262.63 85.0996L263.67 85.7196V93.2596Z" fill="#B1B4C4"/>
<path d="M263.67 85.72L230.54 94.14L223.42 90.03L256.8 81.5L263.67 85.72Z" fill="#E7E9F2"/>
<path opacity="0.4" d="M213.17 500L185.35 484.08L226.99 460.25L254.81 476.16L213.17 500Z" fill="#D6D8E5"/>
<path d="M213.75 467.91L190.71 454.6L213.75 441.3L236.79 454.61L213.75 467.91Z" fill="#D6D8E5"/>
<path d="M213.75 494.52L190.71 481.21V454.6L213.75 467.91V494.52Z" fill="#B1B6C4"/>
<path d="M236.79 481.21L213.75 494.52V467.91L236.79 454.6V481.21Z" fill="#C4C7D6"/>
<path d="M244.72 472.84C246.714 473.393 248.846 473.135 250.65 472.12C252.08 472.12 259.84 468.84 260.9 471.63C261.82 474.08 258.46 476.34 256.66 476.77C252.74 477.77 249.84 479.68 248.27 480.01C247.1 480.26 245.58 480.42 244.64 479.5C243.52 478.39 243.62 474.3 244.72 472.84Z" fill="#232323"/>
<path d="M248.27 479.331C249.84 479.001 252.74 477.051 256.66 476.101C258.17 475.731 260.76 474.101 261.02 472.101C261.37 474.351 258.34 476.351 256.66 476.751C252.74 477.751 249.84 479.661 248.27 479.991C247.1 480.241 245.58 480.401 244.64 479.481C244.403 479.209 244.229 478.888 244.13 478.541C244.71 478.986 245.387 479.29 246.106 479.427C246.825 479.564 247.566 479.531 248.27 479.331Z" fill="black"/>
<path d="M230.72 465.39C232.717 465.944 234.853 465.685 236.66 464.67C238.09 464.67 245.85 461.39 246.9 464.18C247.83 466.63 244.47 468.89 242.67 469.32C238.75 470.27 235.85 472.23 234.27 472.56C233.1 472.81 231.58 472.97 230.65 472.05C229.53 470.94 229.62 466.85 230.72 465.39Z" fill="#232323"/>
<path d="M234.27 471.88C235.85 471.55 238.75 469.6 242.67 468.65C244.17 468.28 246.77 466.65 247.03 464.65C247.38 466.9 244.34 468.9 242.67 469.3C238.75 470.25 235.85 472.21 234.27 472.54C233.1 472.79 231.58 472.95 230.65 472.03C230.406 471.762 230.228 471.44 230.13 471.09C230.711 471.535 231.388 471.838 232.106 471.975C232.825 472.113 233.566 472.08 234.27 471.88V471.88Z" fill="black"/>
<path d="M208.93 455.73C214.93 458.39 220.69 458.81 225.36 456.3L230.18 453.52C230.47 459.74 230.74 465.72 230.74 465.72C230.74 465.72 234.44 468.52 237.32 466.02C237.32 466.02 237.92 457.29 238.53 448.7L243.59 445.78C243.468 446.237 243.401 446.707 243.39 447.18C243.39 448.82 244.56 473.08 244.56 473.08C244.56 473.08 248.29 475.3 251.17 472.8C251.17 472.8 253.11 444.68 253.55 440.19C254.05 435.14 248.44 432.65 244.9 433.95C244.07 434.24 242.04 435 239.47 435.95C239.58 434.54 239.67 433.45 239.73 432.83C240.24 427.77 234.63 425.28 231.08 426.58C227.84 427.76 206 436 206 436C206.136 438.097 206.393 440.183 206.77 442.25L198.15 441.53C197.63 449.6 202.89 453.07 208.93 455.73ZM224 441.73L229.77 438.4C229.668 438.807 229.605 439.222 229.58 439.64L224 441.73Z" fill="url(#paint4_linear_110_10)"/>
<path d="M193.42 416.87C193.42 416.87 194.13 427.6 195.54 429.15C196.95 430.7 201.71 431.75 201.71 431.75L205.37 437.75C205.37 437.75 202 418.6 201.3 418.14C200.6 417.68 193.42 416.87 193.42 416.87Z" fill="#FFCEA9"/>
<path d="M200.47 405C199.579 404.586 198.567 404.514 197.626 404.798C196.686 405.082 195.883 405.702 195.37 406.54C194.02 408.78 192.62 416.44 192.49 417.75C192.49 417.75 194.38 420.37 197.22 419.93L200.47 405Z" fill="#EDEDED"/>
<path d="M201.76 405.091C203.62 405.181 205 405.661 205.23 405.091C205.429 404.137 205.569 403.172 205.65 402.201C205.44 401.661 205.25 401.081 205.25 401.081C202.93 399.651 202.19 397.081 201.88 394.201C201.36 389.201 204.07 384.801 209.08 384.281C213.79 383.791 217.25 387.101 218.18 391.641C218.67 393.891 219.67 398.131 218.33 401.821C217.58 403.881 216.61 405.521 215.65 405.821C214.716 405.793 213.784 405.71 212.86 405.571V405.571C212.86 405.571 212.61 406.961 212.44 407.851C212.27 408.741 212.34 409.221 214.11 410.311C215.88 411.401 211.42 413.661 208.51 413.441C205.6 413.221 202.31 411.441 201.4 409.571C200.4 407.511 200.49 405.001 201.76 405.091Z" fill="#FFCEA9"/>
<path d="M248.74 437.911C248.742 438.176 248.674 438.437 248.542 438.667C248.41 438.897 248.22 439.088 247.99 439.221L233.86 447.381C233.63 447.513 233.37 447.583 233.105 447.583C232.84 447.583 232.58 447.513 232.35 447.381L212.53 435.941C212.302 435.809 212.112 435.619 211.981 435.391C211.849 435.163 211.78 434.904 211.78 434.641V434.521L248.74 437.911Z" fill="#E5E5E5"/>
<path d="M248 439.22L233.87 447.38C233.639 447.514 233.377 447.583 233.11 447.58V437.91H248.75C248.752 438.175 248.684 438.436 248.552 438.666C248.42 438.897 248.23 439.088 248 439.22V439.22Z" fill="#E5E5E5"/>
<path d="M233.63 446.64C233.469 446.733 233.286 446.782 233.1 446.782C232.914 446.782 232.731 446.733 232.57 446.64L212 434.75C211.73 434.6 211.73 434.35 212 434.2L227.16 425.44L248.76 437.91L233.63 446.64Z" fill="#F4F4F4"/>
<path d="M220.44 437.911L220.54 437.971L227.14 441.781L230.76 439.691L230.87 439.631L224.16 435.761L220.44 437.911Z" fill="#BFBFBF"/>
<path d="M220.54 437.971L227.14 441.781L230.76 439.691L224.16 435.881L220.54 437.971Z" fill="#E5E5E5"/>
<path d="M243.14 438.53L244.14 439.08C244.187 439.103 244.238 439.114 244.29 439.114C244.342 439.114 244.393 439.103 244.44 439.08L245.35 438.55C245.44 438.5 245.45 438.42 245.35 438.38L244.35 437.83C244.304 437.806 244.252 437.793 244.2 437.793C244.148 437.793 244.096 437.806 244.05 437.83L243.14 438.35C243.08 438.41 243.07 438.48 243.14 438.53Z" fill="black"/>
<path d="M241.8 437.75L242.8 438.3C242.846 438.325 242.898 438.337 242.95 438.337C243.002 438.337 243.054 438.325 243.1 438.3L244.01 437.77C244.1 437.72 244.11 437.64 244.01 437.6L243.01 437.05C242.964 437.026 242.912 437.013 242.86 437.013C242.808 437.013 242.756 437.026 242.71 437.05L241.8 437.58C241.73 437.63 241.72 437.71 241.8 437.75Z" fill="black"/>
<path d="M240.45 437L241.45 437.55C241.496 437.575 241.548 437.588 241.6 437.588C241.652 437.588 241.704 437.575 241.75 437.55L242.66 437.03C242.75 436.97 242.76 436.9 242.66 436.85L241.71 436.3C241.663 436.278 241.612 436.267 241.56 436.267C241.508 436.267 241.457 436.278 241.41 436.3L240.5 436.83C240.38 436.85 240.37 436.93 240.45 437Z" fill="black"/>
<path d="M239.1 436.2L240.1 436.75C240.149 436.772 240.202 436.783 240.255 436.783C240.309 436.783 240.361 436.772 240.41 436.75L241.32 436.23C241.41 436.23 241.42 436.1 241.32 436.05L240.32 435.5C240.272 435.476 240.219 435.463 240.165 435.463C240.111 435.463 240.058 435.476 240.01 435.5L239.1 436.02C239 436.07 239 436.15 239.1 436.2Z" fill="black"/>
<path d="M237.75 435.421L238.75 435.971C238.796 435.995 238.848 436.008 238.9 436.008C238.952 436.008 239.004 435.995 239.05 435.971L239.96 435.451C240.05 435.401 240.06 435.321 239.96 435.281L238.96 434.731C238.912 434.706 238.859 434.693 238.805 434.693C238.751 434.693 238.698 434.706 238.65 434.731L237.75 435.251C237.69 435.291 237.68 435.371 237.75 435.421Z" fill="black"/>
<path d="M236.41 434.641L237.41 435.191C237.457 435.213 237.508 435.224 237.56 435.224C237.612 435.224 237.663 435.213 237.71 435.191L238.62 434.661C238.71 434.661 238.72 434.531 238.62 434.491L237.62 433.941C237.574 433.916 237.522 433.903 237.47 433.903C237.418 433.903 237.366 433.916 237.32 433.941L236.41 434.461C236.34 434.521 236.33 434.591 236.41 434.641Z" fill="black"/>
<path d="M235.06 433.86L236.06 434.41C236.106 434.435 236.158 434.448 236.21 434.448C236.262 434.448 236.314 434.435 236.36 434.41L237.27 433.88C237.36 433.83 237.37 433.75 237.27 433.71L236.32 433.16C236.274 433.136 236.222 433.123 236.17 433.123C236.118 433.123 236.066 433.136 236.02 433.16L235.11 433.69C235 433.74 235 433.82 235.06 433.86Z" fill="black"/>
<path d="M233.71 433.081L234.71 433.631C234.758 433.655 234.811 433.668 234.865 433.668C234.919 433.668 234.972 433.655 235.02 433.631L235.93 433.111C236.02 433.051 236.02 432.981 235.93 432.931L234.93 432.381C234.882 432.358 234.829 432.347 234.775 432.347C234.722 432.347 234.669 432.358 234.62 432.381L233.71 432.911C233.64 433.001 233.63 433.001 233.71 433.081Z" fill="black"/>
<path d="M232.36 432.311L233.36 432.861C233.407 432.882 233.458 432.893 233.51 432.893C233.562 432.893 233.613 432.882 233.66 432.861L234.57 432.341C234.66 432.291 234.67 432.211 234.57 432.161L233.57 431.611C233.522 431.586 233.469 431.573 233.415 431.573C233.361 431.573 233.308 431.586 233.26 431.611L232.36 432.131C232.3 432.181 232.29 432.261 232.36 432.311Z" fill="black"/>
<path d="M231 431.53L232 432.08C232.046 432.105 232.098 432.117 232.15 432.117C232.202 432.117 232.254 432.105 232.3 432.08L233.21 431.56C233.3 431.51 233.31 431.43 233.21 431.39L232.21 430.84C232.164 430.816 232.112 430.803 232.06 430.803C232.008 430.803 231.956 430.816 231.91 430.84L231 431.36C231 431.4 230.94 431.48 231 431.53Z" fill="black"/>
<path d="M229.67 430.75L230.67 431.3C230.717 431.322 230.768 431.334 230.82 431.334C230.872 431.334 230.923 431.322 230.97 431.3L231.88 430.77C231.97 430.72 231.98 430.64 231.88 430.6L230.93 430.05C230.884 430.026 230.832 430.013 230.78 430.013C230.728 430.013 230.676 430.026 230.63 430.05L229.72 430.57C229.6 430.63 229.59 430.7 229.67 430.75Z" fill="black"/>
<path d="M228.32 430L229.32 430.55C229.368 430.575 229.421 430.587 229.475 430.587C229.529 430.587 229.582 430.575 229.63 430.55L230.54 430.02C230.63 429.97 230.63 429.89 230.54 429.85L229.54 429.3C229.492 429.276 229.439 429.263 229.385 429.263C229.331 429.263 229.278 429.276 229.23 429.3L228.32 429.83C228.25 429.85 228.24 429.93 228.32 430Z" fill="black"/>
<path d="M227 429.19L228 429.74C228.046 429.765 228.098 429.777 228.15 429.777C228.202 429.777 228.254 429.765 228.3 429.74L229.21 429.22C229.3 429.16 229.31 429.09 229.21 429.04L228.21 428.49C228.161 428.468 228.109 428.456 228.055 428.456C228.001 428.456 227.949 428.468 227.9 428.49L227 429.02C226.91 429.07 226.9 429.15 227 429.19Z" fill="black"/>
<path d="M225 428.001L226.6 428.931C226.647 428.953 226.698 428.965 226.75 428.965C226.802 428.965 226.853 428.953 226.9 428.931L227.81 428.411C227.9 428.361 227.91 428.281 227.81 428.231L226.21 427.311C226.164 427.286 226.112 427.273 226.06 427.273C226.008 427.273 225.956 427.286 225.91 427.311L225 427.841C224.91 427.921 224.9 428.001 225 428.001Z" fill="black"/>
<path d="M239.84 438.131L240.84 438.681C240.887 438.703 240.938 438.715 240.99 438.715C241.042 438.715 241.093 438.703 241.14 438.681L242.05 438.151C242.14 438.101 242.15 438.021 242.05 437.981L241.05 437.431C241.004 437.406 240.952 437.394 240.9 437.394C240.848 437.394 240.796 437.406 240.75 437.431L239.84 437.951C239.77 438.001 239.76 438.081 239.84 438.131Z" fill="black"/>
<path d="M238.49 437.351L239.49 437.901C239.539 437.923 239.591 437.935 239.645 437.935C239.698 437.935 239.751 437.923 239.8 437.901L240.7 437.371C240.79 437.321 240.8 437.241 240.7 437.201L239.7 436.651C239.654 436.626 239.602 436.613 239.55 436.613C239.498 436.613 239.446 436.626 239.4 436.651L238.49 437.181C238.42 437.231 238.41 437.311 238.49 437.351Z" fill="black"/>
<path d="M237.14 436.57L238.14 437.12C238.188 437.145 238.241 437.158 238.295 437.158C238.349 437.158 238.402 437.145 238.45 437.12L239.35 436.59C239.44 436.54 239.45 436.46 239.35 436.42L238.35 435.87C238.304 435.846 238.252 435.833 238.2 435.833C238.148 435.833 238.096 435.846 238.05 435.87L237.14 436.4C237.07 436.45 237.06 436.53 237.14 436.57Z" fill="black"/>
<path d="M235.79 435.79L236.74 436.34C236.788 436.365 236.841 436.377 236.895 436.377C236.949 436.377 237.002 436.365 237.05 436.34L237.95 435.81C238.04 435.76 238.05 435.68 237.95 435.64L236.95 435.09C236.904 435.066 236.852 435.053 236.8 435.053C236.748 435.053 236.696 435.066 236.65 435.09L235.74 435.62C235.72 435.67 235.71 435.75 235.79 435.79Z" fill="black"/>
<path d="M234.45 435L235.45 435.55C235.499 435.572 235.552 435.584 235.605 435.584C235.659 435.584 235.712 435.572 235.76 435.55L236.66 435.02C236.75 435.02 236.76 434.89 236.66 434.85L235.66 434.3C235.614 434.276 235.562 434.263 235.51 434.263C235.458 434.263 235.406 434.276 235.36 434.3L234.45 434.82C234.38 434.9 234.37 435 234.45 435Z" fill="black"/>
<path d="M233.1 434.24L234.1 434.79C234.149 434.813 234.202 434.824 234.255 434.824C234.309 434.824 234.362 434.813 234.41 434.79L235.31 434.26C235.4 434.21 235.41 434.13 235.31 434.09L234.31 433.54C234.264 433.516 234.212 433.503 234.16 433.503C234.108 433.503 234.056 433.516 234.01 433.54L233.1 434.06C233 434.12 233 434.19 233.1 434.24Z" fill="black"/>
<path d="M231.75 433.46L232.75 434.01C232.799 434.032 232.851 434.044 232.905 434.044C232.958 434.044 233.011 434.032 233.06 434.01L233.96 433.48C234.05 433.43 234.06 433.35 233.96 433.31L232.96 432.76C232.914 432.735 232.862 432.723 232.81 432.723C232.758 432.723 232.706 432.735 232.66 432.76L231.75 433.28C231.68 433.34 231.67 433.41 231.75 433.46Z" fill="black"/>
<path d="M230.4 432.681L231.35 433.231C231.399 433.253 231.451 433.265 231.505 433.265C231.558 433.265 231.611 433.253 231.66 433.231L232.57 432.701C232.65 432.651 232.66 432.571 232.57 432.531L231.57 431.981C231.524 431.956 231.472 431.943 231.42 431.943C231.368 431.943 231.316 431.956 231.27 431.981L230.36 432.511C230.33 432.561 230.32 432.641 230.4 432.681Z" fill="black"/>
<path d="M229.05 431.9L230.05 432.45C230.098 432.475 230.151 432.488 230.205 432.488C230.259 432.488 230.312 432.475 230.36 432.45L231.27 431.92C231.35 431.87 231.36 431.79 231.27 431.75L230.32 431.2C230.272 431.176 230.219 431.163 230.165 431.163C230.111 431.163 230.058 431.176 230.01 431.2L229.1 431.73C229 431.78 229 431.86 229.05 431.9Z" fill="black"/>
<path d="M227.7 431.121L228.7 431.671C228.748 431.695 228.801 431.708 228.855 431.708C228.909 431.708 228.962 431.695 229.01 431.671L229.92 431.141C230.01 431.091 230.01 431.011 229.92 430.971L228.92 430.421C228.872 430.398 228.819 430.387 228.765 430.387C228.712 430.387 228.659 430.398 228.61 430.421L227.7 430.951C227.63 431.001 227.62 431.081 227.7 431.121Z" fill="black"/>
<path d="M226.35 430.34L227.35 430.891C227.398 430.915 227.451 430.928 227.505 430.928C227.559 430.928 227.612 430.915 227.66 430.891L228.57 430.37C228.66 430.31 228.66 430.23 228.57 430.19L227.57 429.641C227.521 429.618 227.469 429.606 227.415 429.606C227.361 429.606 227.309 429.618 227.26 429.641L226.35 430.171C226.28 430.221 226.27 430.3 226.35 430.34Z" fill="black"/>
<path d="M225 429.56L226 430.11C226.048 430.135 226.101 430.148 226.155 430.148C226.209 430.148 226.262 430.135 226.31 430.11L227.22 429.59C227.31 429.53 227.32 429.46 227.22 429.41L226.22 428.86C226.171 428.838 226.118 428.826 226.065 428.826C226.011 428.826 225.959 428.838 225.91 428.86L225 429.39C224.93 429.44 224.92 429.52 225 429.56Z" fill="black"/>
<path d="M241.19 438.91L242.79 439.83C242.836 439.855 242.888 439.868 242.94 439.868C242.992 439.868 243.044 439.855 243.09 439.83L244 439.31C244.09 439.25 244.1 439.18 244 439.13L242.4 438.21C242.354 438.186 242.302 438.173 242.25 438.173C242.198 438.173 242.146 438.186 242.1 438.21L241.19 438.73C241.12 438.79 241.11 438.86 241.19 438.91Z" fill="black"/>
<path d="M224.89 428.08L225.89 428.63C225.911 428.63 225.932 428.638 225.947 428.653C225.962 428.668 225.97 428.689 225.97 428.71C225.97 428.731 225.962 428.752 225.947 428.767C225.932 428.782 225.911 428.79 225.89 428.79L224.89 429.35C224.846 429.37 224.798 429.38 224.75 429.38C224.702 429.38 224.654 429.37 224.61 429.35L224.53 429.3C224.49 429.281 224.445 429.27 224.4 429.27C224.355 429.27 224.311 429.281 224.27 429.3L223.27 429.89C223.226 429.91 223.178 429.92 223.13 429.92C223.082 429.92 223.034 429.91 222.99 429.89L222.38 429.54C222.3 429.49 222.3 429.42 222.38 429.38L223.38 428.83L223.58 428.72L223.72 428.63L223.86 428.55L224.68 428.08C224.747 428.053 224.823 428.053 224.89 428.08Z" fill="black"/>
<path d="M237.92 441.54L238.92 442.09C238.966 442.115 239.018 442.128 239.07 442.128C239.122 442.128 239.174 442.115 239.22 442.09L240.13 441.57C240.22 441.51 240.23 441.44 240.13 441.39L239.18 440.84C239.133 440.818 239.082 440.807 239.03 440.807C238.978 440.807 238.927 440.818 238.88 440.84L237.97 441.37C237.85 441.42 237.84 441.5 237.92 441.54Z" fill="black"/>
<path d="M236.57 440.77L237.57 441.32C237.618 441.345 237.671 441.358 237.725 441.358C237.779 441.358 237.832 441.345 237.88 441.32L238.78 440.8C238.87 440.8 238.88 440.67 238.78 440.62L237.78 440.08C237.734 440.056 237.682 440.043 237.63 440.043C237.578 440.043 237.526 440.056 237.48 440.08L236.57 440.6C236.5 440.64 236.49 440.72 236.57 440.77Z" fill="black"/>
<path d="M235.23 440L236.23 440.55C236.276 440.575 236.328 440.587 236.38 440.587C236.432 440.587 236.484 440.575 236.53 440.55L237.44 440.02C237.53 439.97 237.54 439.89 237.44 439.85L236.44 439.3C236.394 439.276 236.342 439.263 236.29 439.263C236.238 439.263 236.186 439.276 236.14 439.3L235.23 439.83C235.16 439.87 235.15 440 235.23 440Z" fill="black"/>
<path d="M223.78 433.38L224.78 433.93C224.826 433.954 224.878 433.967 224.93 433.967C224.982 433.967 225.034 433.954 225.08 433.93L225.99 433.41C226.08 433.41 226.09 433.28 225.99 433.23L224.99 432.68C224.942 432.655 224.889 432.643 224.835 432.643C224.781 432.643 224.728 432.655 224.68 432.68L223.78 433.2C223.72 433.26 223.71 433.34 223.78 433.38Z" fill="black"/>
<path d="M222.44 432.61L223.44 433.16C223.489 433.183 223.542 433.194 223.595 433.194C223.649 433.194 223.702 433.183 223.75 433.16L224.65 432.63C224.74 432.58 224.75 432.5 224.65 432.46L223.65 431.91C223.604 431.886 223.552 431.873 223.5 431.873C223.448 431.873 223.396 431.886 223.35 431.91L222.44 432.43C222.37 432.49 222.36 432.56 222.44 432.61Z" fill="black"/>
<path d="M221.1 431.83L222.1 432.38C222.146 432.405 222.198 432.418 222.25 432.418C222.302 432.418 222.354 432.405 222.4 432.38L223.31 431.86C223.4 431.8 223.41 431.73 223.31 431.68L222.31 431.13C222.263 431.108 222.212 431.097 222.16 431.097C222.108 431.097 222.057 431.108 222.01 431.13L221.1 431.66C221 431.71 221 431.79 221.1 431.83Z" fill="black"/>
<path d="M219.75 431.06L220.75 431.61C220.796 431.635 220.848 431.648 220.9 431.648C220.952 431.648 221.004 431.635 221.05 431.61L221.96 431.09C222.05 431.04 222.06 430.96 221.96 430.91L220.96 430.37C220.912 430.346 220.859 430.333 220.805 430.333C220.751 430.333 220.698 430.346 220.65 430.37L219.75 430.89C219.69 430.93 219.68 431 219.75 431.06Z" fill="black"/>
<path d="M233.54 439L234.84 439.74C234.886 439.765 234.938 439.778 234.99 439.778C235.042 439.778 235.094 439.765 235.14 439.74L236.05 439.22C236.14 439.17 236.15 439.09 236.05 439.04L234.75 438.29C234.704 438.266 234.652 438.253 234.6 438.253C234.548 438.253 234.496 438.266 234.45 438.29L233.54 438.81C233.47 438.89 233.46 439 233.54 439Z" fill="black"/>
<path d="M225.13 434.16L226.43 434.91C226.477 434.932 226.528 434.944 226.58 434.944C226.632 434.944 226.683 434.932 226.73 434.91L227.64 434.38C227.73 434.33 227.74 434.25 227.64 434.21L226.34 433.46C226.294 433.436 226.242 433.423 226.19 433.423C226.138 433.423 226.086 433.436 226.04 433.46L225.13 433.99C225.06 434 225.05 434.12 225.13 434.16Z" fill="black"/>
<path d="M226.82 435.141L233.15 438.791C233.197 438.813 233.248 438.825 233.3 438.825C233.352 438.825 233.403 438.813 233.45 438.791L234.36 438.261C234.45 438.211 234.46 438.131 234.36 438.091L228.03 434.431C227.984 434.406 227.932 434.394 227.88 434.394C227.828 434.394 227.776 434.406 227.73 434.431L226.82 434.951C226.75 435.001 226.74 435.091 226.82 435.141Z" fill="black"/>
<path d="M238.17 438.67L239.17 439.22C239.216 439.245 239.268 439.258 239.32 439.258C239.372 439.258 239.424 439.245 239.47 439.22L240.38 438.69C240.47 438.64 240.48 438.56 240.38 438.52L239.43 437.97C239.383 437.948 239.332 437.937 239.28 437.937C239.228 437.937 239.177 437.948 239.13 437.97L238.22 438.5C238.1 438.55 238.09 438.63 238.17 438.67Z" fill="black"/>
<path d="M236.82 437.891L237.82 438.441C237.868 438.465 237.921 438.478 237.975 438.478C238.029 438.478 238.082 438.465 238.13 438.441L239.03 437.921C239.12 437.871 239.13 437.791 239.03 437.741L238.03 437.191C237.984 437.166 237.932 437.153 237.88 437.153C237.828 437.153 237.776 437.166 237.73 437.191L236.82 437.711C236.75 437.771 236.74 437.851 236.82 437.891Z" fill="black"/>
<path d="M235.48 437.121L236.48 437.671C236.526 437.695 236.578 437.708 236.63 437.708C236.682 437.708 236.734 437.695 236.78 437.671L237.69 437.151C237.78 437.101 237.79 437.021 237.69 436.981L236.69 436.431C236.644 436.406 236.592 436.394 236.54 436.394C236.488 436.394 236.436 436.406 236.39 436.431L235.48 436.951C235.41 437.001 235.4 437.071 235.48 437.121Z" fill="black"/>
<path d="M234.13 436.341L235.13 436.891C235.176 436.915 235.228 436.928 235.28 436.928C235.332 436.928 235.384 436.915 235.43 436.891L236.34 436.361C236.43 436.311 236.44 436.231 236.34 436.191L235.34 435.641C235.294 435.616 235.242 435.604 235.19 435.604C235.138 435.604 235.086 435.616 235.04 435.641L234.13 436.171C234.06 436.221 234.05 436.301 234.13 436.341Z" fill="black"/>
<path d="M232.78 435.56L233.78 436.11C233.826 436.135 233.878 436.148 233.93 436.148C233.982 436.148 234.034 436.135 234.08 436.11L234.99 435.59C235.08 435.53 235.09 435.46 234.99 435.41L233.99 434.86C233.941 434.838 233.889 434.826 233.835 434.826C233.781 434.826 233.729 434.838 233.68 434.86L232.77 435.39C232.72 435.44 232.71 435.52 232.78 435.56Z" fill="black"/>
<path d="M231.44 434.79L232.44 435.34C232.486 435.365 232.538 435.378 232.59 435.378C232.642 435.378 232.694 435.365 232.74 435.34L233.65 434.82C233.74 434.77 233.75 434.69 233.65 434.64L232.65 434.09C232.603 434.068 232.552 434.057 232.5 434.057C232.448 434.057 232.397 434.068 232.35 434.09L231.44 434.61C231.37 434.66 231.36 434.74 231.44 434.79Z" fill="black"/>
<path d="M230.09 434L231.09 434.55C231.139 434.572 231.191 434.584 231.245 434.584C231.298 434.584 231.351 434.572 231.4 434.55L232.3 434.02C232.39 434.02 232.4 433.89 232.3 433.85L231.3 433.3C231.254 433.276 231.202 433.263 231.15 433.263C231.098 433.263 231.046 433.276 231 433.3L230.09 433.82C230 433.89 230 434 230.09 434Z" fill="black"/>
<path d="M228.75 433.231L229.75 433.781C229.796 433.805 229.848 433.818 229.9 433.818C229.952 433.818 230.004 433.805 230.05 433.781L230.96 433.251C231.05 433.201 231.06 433.121 230.96 433.081L229.96 432.531C229.913 432.509 229.862 432.497 229.81 432.497C229.758 432.497 229.707 432.509 229.66 432.531L228.75 433.061C228.68 433.111 228.67 433.191 228.75 433.231Z" fill="black"/>
<path d="M227.4 432.45L228.35 433C228.396 433.025 228.448 433.038 228.5 433.038C228.552 433.038 228.604 433.025 228.65 433L229.56 432.48C229.65 432.43 229.66 432.35 229.56 432.3L228.56 431.75C228.514 431.726 228.462 431.713 228.41 431.713C228.358 431.713 228.306 431.726 228.26 431.75L227.35 432.27C227.33 432.33 227.32 432.41 227.4 432.45Z" fill="black"/>
<path d="M226.05 431.681L227.05 432.231C227.098 432.255 227.151 432.268 227.205 432.268C227.259 432.268 227.312 432.255 227.36 432.231L228.27 431.711C228.36 431.661 228.37 431.581 228.27 431.541L227.32 430.991C227.272 430.966 227.219 430.953 227.165 430.953C227.111 430.953 227.058 430.966 227.01 430.991L226.1 431.511C226 431.551 226 431.631 226.05 431.681Z" fill="black"/>
<path d="M224.71 430.9L225.71 431.45C225.756 431.475 225.808 431.488 225.86 431.488C225.912 431.488 225.964 431.475 226.01 431.45L226.92 430.92C227.01 430.87 227.02 430.79 226.92 430.75L225.92 430.2C225.874 430.176 225.822 430.163 225.77 430.163C225.718 430.163 225.666 430.176 225.62 430.2L224.71 430.73C224.64 430.78 224.63 430.86 224.71 430.9Z" fill="black"/>
<path d="M223.36 430.12L224.36 430.671C224.408 430.695 224.461 430.708 224.515 430.708C224.569 430.708 224.622 430.695 224.67 430.671L225.57 430.15C225.66 430.09 225.67 430.02 225.57 429.97L224.57 429.421C224.523 429.398 224.472 429.387 224.42 429.387C224.368 429.387 224.317 429.398 224.27 429.421L223.36 429.951C223.29 430.001 223.28 430.08 223.36 430.12Z" fill="black"/>
<path d="M239.51 439.45L241.51 440.59C241.557 440.612 241.608 440.624 241.66 440.624C241.712 440.624 241.763 440.612 241.81 440.59L242.72 440.07C242.81 440.02 242.82 439.94 242.72 439.89L240.72 438.76C240.672 438.735 240.619 438.723 240.565 438.723C240.511 438.723 240.458 438.735 240.41 438.76L239.51 439.28C239.45 439.33 239.44 439.4 239.51 439.45Z" fill="black"/>
<path d="M237.53 439.81L238.53 440.36C238.576 440.384 238.628 440.397 238.68 440.397C238.732 440.397 238.784 440.384 238.83 440.36L239.74 439.83C239.83 439.78 239.84 439.7 239.74 439.66L238.79 439.11C238.743 439.088 238.692 439.076 238.64 439.076C238.588 439.076 238.537 439.088 238.49 439.11L237.58 439.64C237.46 439.69 237.45 439.77 237.53 439.81Z" fill="black"/>
<path d="M236.18 439L237.18 439.55C237.226 439.575 237.278 439.587 237.33 439.587C237.382 439.587 237.434 439.575 237.48 439.55L238.39 439.03C238.48 438.98 238.49 438.9 238.39 438.85L237.39 438.3C237.342 438.276 237.289 438.263 237.235 438.263C237.181 438.263 237.128 438.276 237.08 438.3L236.18 438.82C236.12 438.91 236.11 439 236.18 439Z" fill="black"/>
<path d="M234.84 438.261L235.84 438.811C235.886 438.835 235.938 438.848 235.99 438.848C236.042 438.848 236.094 438.835 236.14 438.811L237.05 438.291C237.14 438.291 237.15 438.161 237.05 438.121L236.05 437.571C236.004 437.546 235.952 437.533 235.9 437.533C235.848 437.533 235.796 437.546 235.75 437.571L234.84 438.091C234.77 438.131 234.76 438.211 234.84 438.261Z" fill="black"/>
<path d="M233.49 437.481L234.49 438.031C234.538 438.055 234.591 438.068 234.645 438.068C234.699 438.068 234.752 438.055 234.8 438.031L235.71 437.501C235.79 437.451 235.8 437.371 235.71 437.331L234.71 436.781C234.662 436.756 234.609 436.743 234.555 436.743C234.501 436.743 234.448 436.756 234.4 436.781L233.49 437.311C233.42 437.361 233.41 437.441 233.49 437.481Z" fill="black"/>
<path d="M232.15 436.701L233.1 437.251C233.146 437.275 233.198 437.288 233.25 437.288C233.302 437.288 233.354 437.275 233.4 437.251L234.31 436.731C234.4 436.671 234.41 436.601 234.31 436.551L233.31 436.001C233.263 435.978 233.212 435.967 233.16 435.967C233.108 435.967 233.057 435.978 233.01 436.001L232.1 436.531C232.08 436.581 232.07 436.661 232.15 436.701Z" fill="black"/>
<path d="M230.8 435.93L231.8 436.48C231.848 436.505 231.901 436.517 231.955 436.517C232.009 436.517 232.062 436.505 232.11 436.48L233.01 435.96C233.1 435.91 233.11 435.83 233.01 435.78L232.01 435.23C231.963 435.208 231.912 435.197 231.86 435.197C231.808 435.197 231.757 435.208 231.71 435.23L230.8 435.75C230.73 435.8 230.72 435.88 230.8 435.93Z" fill="black"/>
<path d="M229.45 435.15L230.45 435.7C230.497 435.723 230.548 435.734 230.6 435.734C230.652 435.734 230.703 435.723 230.75 435.7L231.66 435.17C231.75 435.12 231.76 435.04 231.66 435L230.66 434.45C230.612 434.426 230.559 434.413 230.505 434.413C230.451 434.413 230.398 434.426 230.35 434.45L229.45 434.97C229.39 435 229.38 435.1 229.45 435.15Z" fill="black"/>
<path d="M228.11 434.37L229.11 434.921C229.156 434.945 229.208 434.958 229.26 434.958C229.312 434.958 229.364 434.945 229.41 434.921L230.32 434.4C230.41 434.34 230.42 434.27 230.32 434.22L229.32 433.671C229.273 433.648 229.222 433.637 229.17 433.637C229.118 433.637 229.067 433.648 229.02 433.671L228.11 434.201C228 434.251 228 434.33 228.11 434.37Z" fill="black"/>
<path d="M226.76 433.601L227.71 434.151C227.759 434.172 227.812 434.184 227.865 434.184C227.918 434.184 227.971 434.172 228.02 434.151L228.93 433.631C229.02 433.581 229.03 433.501 228.93 433.451L227.93 432.901C227.882 432.876 227.829 432.863 227.775 432.863C227.721 432.863 227.668 432.876 227.62 432.901L226.71 433.421C226.7 433.471 226.69 433.551 226.76 433.601Z" fill="black"/>
<path d="M225.42 432.82L226.42 433.37C226.467 433.393 226.518 433.404 226.57 433.404C226.622 433.404 226.673 433.393 226.72 433.37L227.63 432.84C227.72 432.79 227.73 432.71 227.63 432.67L226.68 432.12C226.634 432.096 226.582 432.083 226.53 432.083C226.478 432.083 226.426 432.096 226.38 432.12L225.47 432.64C225.35 432.7 225.34 432.77 225.42 432.82Z" fill="black"/>
<path d="M224.07 432L225.07 432.55C225.118 432.575 225.171 432.588 225.225 432.588C225.279 432.588 225.332 432.575 225.38 432.55L226.28 432.02C226.37 431.97 226.38 431.89 226.28 431.85L225.28 431.3C225.233 431.278 225.182 431.267 225.13 431.267C225.078 431.267 225.027 431.278 224.98 431.3L224.07 431.83C224 431.92 224 432 224.07 432Z" fill="black"/>
<path d="M221.06 430.3L223.68 431.81C223.726 431.835 223.778 431.848 223.83 431.848C223.882 431.848 223.934 431.835 223.98 431.81L224.89 431.29C224.98 431.29 224.99 431.16 224.89 431.11L222.27 429.6C222.223 429.578 222.172 429.566 222.12 429.566C222.068 429.566 222.017 429.578 221.97 429.6L221.06 430.13C221 430.18 221 430.26 221.06 430.3Z" fill="black"/>
<path d="M238.88 440.591L240.17 441.341C240.219 441.363 240.271 441.375 240.325 441.375C240.379 441.375 240.431 441.363 240.48 441.341L241.38 440.811C241.47 440.761 241.48 440.681 241.38 440.641L240.08 439.891C240.034 439.866 239.982 439.854 239.93 439.854C239.878 439.854 239.826 439.866 239.78 439.891L238.87 440.411C238.81 440.471 238.8 440.541 238.88 440.591Z" fill="black"/>
<path d="M248.74 437.91L227.14 425.44V408.44L227.31 408.06L227.49 407.97C227.717 407.843 227.974 407.775 228.235 407.775C228.496 407.775 228.752 407.843 228.98 407.97L248.74 419.391C248.968 419.52 249.158 419.707 249.289 419.934C249.421 420.161 249.49 420.418 249.49 420.68V436.61C249.35 437.45 249.2 437.65 248.74 437.91Z" fill="#E5E5E5"/>
<path d="M246.76 421.451L227.14 409.001V408.431L227.31 408.051L227.49 407.961C227.717 407.833 227.974 407.766 228.235 407.766C228.496 407.766 228.752 407.833 228.98 407.961L248.74 419.381C248.982 419.515 249.18 419.717 249.31 419.961L246.76 421.451Z" fill="#E5E5E5"/>
<path d="M227.64 408.071L248.38 420.071C248.49 420.133 248.581 420.223 248.644 420.332C248.707 420.441 248.74 420.565 248.74 420.691V437.931L227.14 425.461V408.361C227.139 408.302 227.153 408.243 227.182 408.192C227.211 408.14 227.253 408.098 227.304 408.068C227.355 408.038 227.413 408.023 227.473 408.023C227.532 408.024 227.589 408.04 227.64 408.071V408.071Z" fill="#DCEEFF"/>
<path d="M227.64 408.071L248.38 420.071C248.49 420.133 248.581 420.223 248.644 420.332C248.707 420.441 248.74 420.565 248.74 420.691V437.931L227.14 425.461V408.361C227.139 408.302 227.153 408.243 227.182 408.192C227.211 408.14 227.253 408.098 227.304 408.068C227.355 408.038 227.413 408.023 227.473 408.023C227.532 408.024 227.589 408.04 227.64 408.071V408.071Z" fill="#F4F4F4"/>
<path d="M248.74 437.91V437.3L227.14 424.82V425.44L248.74 437.91Z" fill="#DBDBDB"/>
<path d="M227.7 424.541V408.961L227.97 409.111V424.401L227.7 424.541Z" fill="#1E3779"/>
<path d="M227.97 409.11V424.4L248.05 435.97V420.71L227.97 409.11Z" fill="black"/>
<path d="M227.7 424.54L248.05 436.28V435.97L227.97 424.4L227.7 424.54Z" fill="#031F60"/>
<path d="M204.44 405.37C203.93 406.65 205.24 408.21 208.72 409.31C212.2 410.41 212.52 409 212.52 409C214.839 410.035 217.099 411.197 219.29 412.48C221.38 413.95 222.29 418.17 222.58 425.31C222.91 433.57 222.94 445.83 222.66 447.94C222.66 447.94 218.76 451.84 213.76 451.43C208.76 451.02 200.35 446.59 198.31 443.18C198.31 435.93 199.21 434.75 198.04 430.58C195.35 421.03 193.94 417.12 195.24 410.77C196.32 405.54 197.83 404.89 199.89 404.94C201.413 405.002 202.932 405.145 204.44 405.37V405.37Z" fill="#F4F4F4"/>
<path d="M230.81 434.171C226.7 435.171 225.74 432.621 225.2 430.471C223.9 425.291 223.2 420.601 222.2 417.661C221.05 414.191 219.85 413.661 218.2 412.961C216.2 412.171 214.51 413.841 215.2 418.261C216.007 423.388 217.265 428.435 218.96 433.341C219.47 434.961 220.62 437.831 222.33 439.211C224.45 440.921 227.63 440.851 232.46 439.651C234.46 439.141 236.77 437.911 240.66 436.091C241.66 435.611 242.52 435.281 244.52 434.351C246.537 433.456 248.305 432.083 249.67 430.351C250.72 428.831 250.86 428.121 250.67 427.771C250.48 427.421 249.93 427.431 249.37 428.071C248.548 429.159 247.531 430.084 246.37 430.801C246.37 430.801 247.67 429.471 248.37 428.601C249.005 427.832 249.527 426.977 249.92 426.061C250.3 425.171 249.53 423.971 248.92 424.601C248.31 425.231 248.06 425.881 247 427.151C246.444 427.83 245.806 428.438 245.1 428.961C245.759 428.069 246.344 427.126 246.85 426.141C247.307 425.375 247.53 424.492 247.49 423.601C247.49 423.131 246.81 422.601 246.19 423.461C245.596 424.669 244.858 425.801 243.99 426.831C243.05 427.831 242.26 428.361 242.23 428.091C242.2 427.821 242.8 427.291 243.13 426.161C243.46 425.031 243.13 423.821 242.51 423.691C241.89 423.561 242 423.601 241.51 424.691C240.817 425.779 240.196 426.912 239.65 428.081C239.33 429.17 238.75 430.165 237.96 430.981C236.94 432.001 234.71 433.191 230.81 434.171Z" fill="#FFCEA9"/>
<path d="M216.67 412.25C219.41 411.85 221.34 413.08 222.55 417.25C223.76 421.42 224.61 424.81 224.61 424.81C223.515 426.355 221.875 427.427 220.02 427.81C216.74 428.6 215.56 427.04 215.56 427.04C215.56 427.04 214.65 422.68 214.09 419.72C213.53 416.76 213.28 412.75 216.67 412.25Z" fill="#EDEDED"/>
<path d="M218 391C218 391 222.33 384.42 213 383.08C206.23 382.08 201.89 386.46 201.38 391.17C200.9 395.68 203.68 400.36 205.68 402.22C207.651 402.712 209.734 402.459 211.53 401.51C211.642 400.284 211.686 399.052 211.66 397.82C211.66 397.82 208.33 390.88 218 391Z" fill="black"/>
<path d="M236.79 474.26V454.5L221.1 463.66L227.14 476.16L236.79 474.26Z" fill="#C4C7D6"/>
<path d="M226.51 455.64L232.53 452.14L236.79 454.61L230.55 458.15L226.51 455.64Z" fill="#D6D8E5"/>
<path opacity="0.4" d="M150.75 345.63L124 329.94C121 328.16 121.34 325.05 124.85 323L138.45 315C141.96 313 147.26 312.73 150.3 314.51L177.09 330.2C180.09 331.97 179.74 335.08 176.24 337.14L162.64 345.14C159.09 347.19 153.78 347.41 150.75 345.63Z" fill="#D6D8E5"/>
<path d="M184 330.16V292.23L126.78 285.7V323.87C126.791 324.523 126.984 325.16 127.337 325.71C127.691 326.259 128.19 326.699 128.78 326.98L155.6 342.67C158.6 344.45 163.95 344.23 167.45 342.17L181.05 334.17C183.05 333.01 184.05 331.52 183.95 330.17L184 330.16Z" fill="#D6D8E5"/>
<path d="M183.94 296.37V292.23H179.54L155.12 277.91C152.12 276.13 146.77 276.36 143.27 278.41L129.67 286.41C129.425 286.55 129.187 286.703 128.96 286.87L126.78 285.7C126.78 285.7 126.78 290.07 126.78 290.22C126.795 290.871 126.99 291.505 127.343 292.052C127.696 292.599 128.193 293.038 128.78 293.32L155.6 309C158.6 310.78 163.95 310.55 167.45 308.5L181.05 300.5C183.05 299.31 184.05 297.77 183.94 296.33V296.37Z" fill="#EDF0F9"/>
<path d="M155.6 304.5L128.82 288.81C125.82 287.03 126.16 283.92 129.67 281.87L143.27 273.87C146.77 271.87 152.08 271.59 155.12 273.37L181.91 289.06C184.91 290.84 184.56 293.95 181.05 296L167.45 304C164 306.05 158.64 306.28 155.6 304.5Z" fill="#E2E5F2"/>
<path d="M149.57 283.08V281.57H148.66L148.37 281.39C147.475 280.927 146.482 280.686 145.475 280.686C144.467 280.686 143.475 280.927 142.58 281.39C142.409 281.487 142.248 281.601 142.1 281.73L141.39 281.57V283.08C141.414 283.445 141.537 283.797 141.747 284.096C141.957 284.396 142.245 284.633 142.58 284.78C143.476 285.238 144.468 285.477 145.475 285.477C146.481 285.477 147.474 285.238 148.37 284.78C148.702 284.627 148.987 284.389 149.198 284.091C149.408 283.793 149.537 283.444 149.57 283.08V283.08Z" fill="#6E48E5"/>
<path d="M145.48 283.97C147.739 283.97 149.57 282.895 149.57 281.57C149.57 280.244 147.739 279.17 145.48 279.17C143.221 279.17 141.39 280.244 141.39 281.57C141.39 282.895 143.221 283.97 145.48 283.97Z" fill="url(#paint5_linear_110_10)"/>
<path d="M159.45 288.77V287.26H158.54L158.26 287.08C157.365 286.617 156.372 286.375 155.365 286.375C154.358 286.375 153.365 286.617 152.47 287.08C152.294 287.174 152.13 287.288 151.98 287.42L151.27 287.26V288.77C151.303 289.133 151.432 289.482 151.642 289.78C151.853 290.079 152.138 290.317 152.47 290.47C153.366 290.928 154.358 291.167 155.365 291.167C156.372 291.167 157.364 290.928 158.26 290.47C158.595 290.322 158.883 290.086 159.093 289.786C159.303 289.486 159.426 289.135 159.45 288.77Z" fill="#6E48E5"/>
<path d="M155.36 289.66C157.619 289.66 159.45 288.586 159.45 287.26C159.45 285.935 157.619 284.86 155.36 284.86C153.101 284.86 151.27 285.935 151.27 287.26C151.27 288.586 153.101 289.66 155.36 289.66Z" fill="url(#paint6_linear_110_10)"/>
<path d="M169.35 294.85V293.34H168.43L168.15 293.16C167.255 292.697 166.262 292.455 165.255 292.455C164.247 292.455 163.255 292.697 162.36 293.16C162.186 293.258 162.022 293.371 161.87 293.5L161.16 293.34V294.85C161.191 295.214 161.319 295.564 161.529 295.862C161.74 296.161 162.027 296.398 162.36 296.55C163.255 297.013 164.247 297.254 165.255 297.254C166.262 297.254 167.255 297.013 168.15 296.55C168.483 296.398 168.769 296.161 168.98 295.862C169.191 295.564 169.319 295.214 169.35 294.85V294.85Z" fill="#6E48E5"/>
<path d="M165.25 295.74C167.509 295.74 169.34 294.666 169.34 293.34C169.34 292.015 167.509 290.94 165.25 290.94C162.991 290.94 161.16 292.015 161.16 293.34C161.16 294.666 162.991 295.74 165.25 295.74Z" fill="url(#paint7_linear_110_10)"/>
</g>
<defs>
<filter id="filter0_f_110_10" x="10" y="205.017" width="636.606" height="385.769" filterUnits="userSpaceOnUse" color-interpolation-filters="sRGB">
<feFlood flood-opacity="0" result="BackgroundImageFix"/>
<feBlend mode="normal" in="SourceGraphic" in2="BackgroundImageFix" result="shape"/>
<feGaussianBlur stdDeviation="6" result="effect1_foregroundBlur_110_10"/>
</filter>
<linearGradient id="paint0_linear_110_10" x1="337.765" y1="207.25" x2="337.765" y2="248.58" gradientUnits="userSpaceOnUse">
<stop stop-color="#FA4545"/>
<stop offset="1" stop-color="#FFAB48"/>
</linearGradient>
<linearGradient id="paint1_linear_110_10" x1="384.743" y1="222.104" x2="394.953" y2="239.788" gradientUnits="userSpaceOnUse">
<stop stop-color="#FA4545"/>
<stop offset="1" stop-color="#FFAB48"/>
</linearGradient>
<linearGradient id="paint2_linear_110_10" x1="184.04" y1="42.0195" x2="184.04" y2="87.0695" gradientUnits="userSpaceOnUse">
<stop stop-color="#FA4545"/>
<stop offset="1" stop-color="#FFAB48"/>
</linearGradient>
<linearGradient id="paint3_linear_110_10" x1="227.155" y1="35.1904" x2="227.155" y2="87.0804" gradientUnits="userSpaceOnUse">
<stop stop-color="#FA4545"/>
<stop offset="1" stop-color="#FFAB48"/>
</linearGradient>
<linearGradient id="paint4_linear_110_10" x1="225.848" y1="426.239" x2="225.848" y2="473.989" gradientUnits="userSpaceOnUse">
<stop stop-color="#FA4545"/>
<stop offset="1" stop-color="#FFAB48"/>
</linearGradient>
<linearGradient id="paint5_linear_110_10" x1="145.48" y1="279.17" x2="145.48" y2="283.97" gradientUnits="userSpaceOnUse">
<stop stop-color="#FA4545"/>
<stop offset="1" stop-color="#FFAB48"/>
</linearGradient>
<linearGradient id="paint6_linear_110_10" x1="155.36" y1="284.86" x2="155.36" y2="289.66" gradientUnits="userSpaceOnUse">
<stop stop-color="#FA4545"/>
<stop offset="1" stop-color="#FFAB48"/>
</linearGradient>
<linearGradient id="paint7_linear_110_10" x1="165.25" y1="290.94" x2="165.25" y2="295.74" gradientUnits="userSpaceOnUse">
<stop stop-color="#FA4545"/>
<stop offset="1" stop-color="#FFAB48"/>
</linearGradient>
<clipPath id="clip0_110_10">
<rect width="650" height="586" fill="white"/>
</clipPath>
</defs>
</svg>
