<svg width="794" height="771" viewBox="0 0 794 771" fill="none" xmlns="http://www.w3.org/2000/svg">
<g clip-path="url(#clip0_112_91)">
<path d="M542.134 109L0 430.247L16.3043 457.762L558.438 136.515L542.134 109Z" fill="#F2F2F2"/>
<path d="M659.965 135.932L117.832 457.18L134.136 484.695L676.27 163.447L659.965 135.932Z" fill="#F2F2F2"/>
<path d="M764.33 165.39L222.196 486.638L238.501 514.153L780.634 192.905L764.33 165.39Z" fill="#F2F2F2"/>
<path d="M353.121 485.579C446.863 485.579 522.856 409.586 522.856 315.843C522.856 222.101 446.863 146.107 353.121 146.107C259.378 146.107 183.385 222.101 183.385 315.843C183.385 409.586 259.378 485.579 353.121 485.579Z" fill="white"/>
<path d="M182.122 315.844C182.122 221.555 258.831 144.846 353.12 144.846C447.409 144.846 524.118 221.555 524.118 315.844C524.118 410.132 447.409 486.842 353.12 486.842C258.831 486.842 182.122 410.132 182.122 315.844ZM184.647 315.844C184.647 408.74 260.224 484.317 353.12 484.317C446.017 484.317 521.594 408.74 521.594 315.844C521.594 222.948 446.017 147.371 353.12 147.371C260.224 147.371 184.647 222.948 184.647 315.844H184.647Z" fill="black"/>
<path d="M322.863 316.582C322.863 310.597 324.638 304.747 327.963 299.771C331.287 294.796 336.013 290.918 341.542 288.627C347.07 286.337 353.154 285.738 359.023 286.906C364.893 288.073 370.284 290.955 374.516 295.186C378.747 299.418 381.629 304.809 382.796 310.679C383.964 316.548 383.365 322.632 381.075 328.16C378.784 333.689 374.906 338.415 369.931 341.74C364.955 345.064 359.105 346.839 353.121 346.839C345.096 346.839 337.4 343.651 331.725 337.977C326.051 332.302 322.863 324.606 322.863 316.582V316.582ZM353.121 287.8C345.49 287.809 338.174 290.844 332.779 296.24C327.383 301.635 324.348 308.951 324.339 316.582V316.582C324.339 322.274 326.027 327.839 329.19 332.572C332.352 337.305 336.847 340.994 342.106 343.172C347.365 345.35 353.152 345.92 358.735 344.81C364.318 343.699 369.447 340.958 373.472 336.933C377.497 332.908 380.238 327.78 381.349 322.196C382.459 316.613 381.889 310.827 379.711 305.567C377.533 300.308 373.844 295.813 369.111 292.651C364.377 289.488 358.813 287.8 353.121 287.8V287.8Z" fill="black"/>
<path d="M295.558 316.582C295.558 305.197 298.934 294.068 305.259 284.602C311.584 275.136 320.574 267.758 331.092 263.401C341.61 259.044 353.184 257.905 364.35 260.126C375.516 262.347 385.773 267.829 393.823 275.879C401.873 283.93 407.356 294.186 409.577 305.352C411.798 316.518 410.658 328.092 406.301 338.61C401.944 349.129 394.566 358.119 385.1 364.444C375.634 370.769 364.505 374.145 353.12 374.145C345.561 374.145 338.076 372.656 331.092 369.763C324.108 366.87 317.762 362.63 312.417 357.285C307.072 351.94 302.832 345.594 299.939 338.61C297.046 331.627 295.558 324.141 295.558 316.582V316.582ZM353.12 260.495C342.027 260.495 331.183 263.785 321.96 269.948C312.737 276.111 305.548 284.87 301.303 295.119C297.058 305.367 295.947 316.644 298.111 327.524C300.275 338.404 305.617 348.397 313.461 356.241C321.305 364.085 331.298 369.427 342.178 371.591C353.058 373.755 364.335 372.644 374.584 368.399C384.832 364.154 393.592 356.966 399.754 347.742C405.917 338.519 409.207 327.675 409.207 316.582C409.19 301.712 403.276 287.456 392.761 276.941C382.246 266.427 367.99 260.512 353.12 260.495Z" fill="#CCCCCC"/>
<path d="M240.947 316.581C240.947 294.396 247.526 272.708 259.852 254.261C272.178 235.815 289.697 221.437 310.194 212.947C330.691 204.457 353.245 202.235 375.004 206.564C396.764 210.892 416.751 221.575 432.439 237.263C448.127 252.951 458.81 272.938 463.138 294.698C467.467 316.457 465.245 339.011 456.755 359.508C448.265 380.005 433.887 397.524 415.441 409.85C396.994 422.176 375.306 428.755 353.121 428.755C323.381 428.721 294.868 416.892 273.839 395.863C252.81 374.834 240.981 346.321 240.947 316.581V316.581ZM353.121 205.884C331.227 205.884 309.824 212.377 291.62 224.54C273.416 236.704 259.228 253.992 250.85 274.22C242.471 294.447 240.279 316.704 244.55 338.177C248.822 359.651 259.364 379.375 274.846 394.856C290.327 410.338 310.051 420.88 331.525 425.152C352.998 429.423 375.255 427.231 395.483 418.852C415.71 410.474 432.998 396.286 445.162 378.082C457.325 359.878 463.818 338.475 463.818 316.582C463.785 287.233 452.111 259.096 431.359 238.343C410.606 217.591 382.469 205.917 353.121 205.884V205.884Z" fill="#CCCCCC"/>
<path d="M353.12 329.866C360.864 329.866 367.142 323.588 367.142 315.844C367.142 308.1 360.864 301.822 353.12 301.822C345.376 301.822 339.099 308.1 339.099 315.844C339.099 323.588 345.376 329.866 353.12 329.866Z" fill="url(#paint0_radial_112_91)"/>
<path d="M316.959 370.454C324.703 370.454 330.981 364.177 330.981 356.433C330.981 348.689 324.703 342.411 316.959 342.411C309.215 342.411 302.938 348.689 302.938 356.433C302.938 364.177 309.215 370.454 316.959 370.454Z" fill="url(#paint1_radial_112_91)"/>
<path d="M458.035 364.55C465.779 364.55 472.057 358.272 472.057 350.528C472.057 342.785 465.779 336.507 458.035 336.507C450.291 336.507 444.014 342.785 444.014 350.528C444.014 358.272 450.291 364.55 458.035 364.55Z" fill="url(#paint2_radial_112_91)"/>
<path d="M353.12 322.486C356.789 322.486 359.762 319.512 359.762 315.844C359.762 312.176 356.789 309.202 353.12 309.202C349.452 309.202 346.479 312.176 346.479 315.844C346.479 319.512 349.452 322.486 353.12 322.486Z" fill="black"/>
<path d="M458.035 357.17C461.704 357.17 464.677 354.197 464.677 350.529C464.677 346.86 461.704 343.887 458.035 343.887C454.367 343.887 451.394 346.86 451.394 350.529C451.394 354.197 454.367 357.17 458.035 357.17Z" fill="black"/>
<path d="M316.959 363.812C320.627 363.812 323.601 360.838 323.601 357.17C323.601 353.502 320.627 350.528 316.959 350.528C313.291 350.528 310.317 353.502 310.317 357.17C310.317 360.838 313.291 363.812 316.959 363.812Z" fill="black"/>
<path d="M43.1682 247.95C46.8364 247.95 49.81 244.976 49.81 241.308C49.81 237.64 46.8364 234.666 43.1682 234.666C39.5 234.666 36.5264 237.64 36.5264 241.308C36.5264 244.976 39.5 247.95 43.1682 247.95Z" fill="url(#paint3_radial_112_91)"/>
<path d="M352.751 241.677H61.248V240.201H354.228V316.212H352.751V241.677Z" fill="black"/>
<path d="M23.9805 241.308C23.9805 237.513 25.1058 233.803 27.2141 230.648C29.3225 227.492 32.3192 225.033 35.8252 223.581C39.3313 222.128 43.1893 221.748 46.9113 222.489C50.6333 223.229 54.0522 225.057 56.7356 227.74C59.4191 230.423 61.2465 233.842 61.9868 237.564C62.7272 241.286 62.3472 245.144 60.895 248.65C59.4427 252.156 56.9834 255.153 53.828 257.262C50.6727 259.37 46.963 260.495 43.168 260.495C40.6483 260.495 38.1532 259.999 35.8253 259.035C33.4973 258.07 31.3821 256.657 29.6004 254.875C27.8186 253.094 26.4053 250.978 25.441 248.65C24.4768 246.323 23.9805 243.827 23.9805 241.308V241.308ZM43.168 223.596C39.665 223.596 36.2407 224.635 33.328 226.581C30.4153 228.527 28.1452 231.293 26.8047 234.53C25.4641 237.766 25.1134 241.327 25.7968 244.763C26.4802 248.199 28.167 251.355 30.644 253.832C33.121 256.309 36.2769 257.996 39.7126 258.679C43.1483 259.362 46.7095 259.012 49.9459 257.671C53.1823 256.331 55.9485 254.06 57.8946 251.148C59.8408 248.235 60.8795 244.811 60.8795 241.308C60.8742 236.612 59.0064 232.11 55.686 228.79C52.3656 225.469 47.8638 223.602 43.168 223.596V223.596Z" fill="black"/>
<path d="M87.447 439.086C91.1152 439.086 94.0888 436.113 94.0888 432.445C94.0888 428.776 91.1152 425.803 87.447 425.803C83.7788 425.803 80.8052 428.776 80.8052 432.445C80.8052 436.113 83.7788 439.086 87.447 439.086Z" fill="url(#paint4_radial_112_91)"/>
<path d="M68.2593 432.444C68.2593 428.649 69.3846 424.94 71.493 421.784C73.6013 418.629 76.598 416.17 80.104 414.717C83.6101 413.265 87.4681 412.885 91.1901 413.626C94.9121 414.366 98.331 416.193 101.014 418.877C103.698 421.56 105.525 424.979 106.266 428.701C107.006 432.423 106.626 436.281 105.174 439.787C103.721 443.293 101.262 446.29 98.1068 448.398C94.9514 450.507 91.2417 451.632 87.4468 451.632C82.3579 451.632 77.4775 449.61 73.8792 446.012C70.2808 442.414 68.2593 437.533 68.2593 432.444V432.444ZM87.4468 414.733C83.9438 414.733 80.5194 415.772 77.6068 417.718C74.6941 419.664 72.424 422.43 71.0834 425.666C69.7429 428.903 69.3921 432.464 70.0755 435.9C70.7589 439.335 72.4458 442.491 74.9228 444.968C77.3998 447.445 80.5557 449.132 83.9914 449.816C87.4271 450.499 90.9883 450.148 94.2247 448.808C97.461 447.467 100.227 445.197 102.173 442.284C104.12 439.372 105.158 435.947 105.158 432.444C105.153 427.749 103.285 423.247 99.9648 419.926C96.6444 416.606 92.1425 414.738 87.4468 414.733Z" fill="black"/>
<path d="M663.932 278.945C667.601 278.945 670.574 275.971 670.574 272.303C670.574 268.635 667.601 265.661 663.932 265.661C660.264 265.661 657.291 268.635 657.291 272.303C657.291 275.971 660.264 278.945 663.932 278.945Z" fill="url(#paint5_radial_112_91)"/>
<path d="M644.745 272.303C644.745 268.508 645.87 264.798 647.978 261.643C650.087 258.487 653.083 256.028 656.589 254.576C660.095 253.124 663.953 252.744 667.675 253.484C671.397 254.224 674.816 256.052 677.5 258.735C680.183 261.419 682.011 264.837 682.751 268.559C683.491 272.281 683.111 276.139 681.659 279.646C680.207 283.152 677.748 286.148 674.592 288.257C671.437 290.365 667.727 291.49 663.932 291.49C661.412 291.49 658.917 290.994 656.589 290.03C654.261 289.065 652.146 287.652 650.365 285.87C648.583 284.089 647.169 281.973 646.205 279.646C645.241 277.318 644.745 274.823 644.745 272.303V272.303ZM663.932 254.591C659.236 254.597 654.735 256.464 651.414 259.785C648.094 263.105 646.226 267.607 646.221 272.303V272.303C646.221 275.806 647.259 279.23 649.206 282.143C651.152 285.055 653.918 287.326 657.154 288.666C660.391 290.007 663.952 290.357 667.388 289.674C670.823 288.991 673.979 287.304 676.456 284.827C678.933 282.35 680.62 279.194 681.303 275.758C681.987 272.322 681.636 268.761 680.296 265.525C678.955 262.288 676.685 259.522 673.772 257.576C670.86 255.63 667.435 254.591 663.932 254.591V254.591Z" fill="black"/>
<path d="M457.297 274.528L645.471 271.565L645.494 273.04L458.773 275.981V350.529H457.297V274.528Z" fill="black"/>
<path d="M105.897 431.707H316.221V357.171H317.697V433.182H105.897V431.707Z" fill="black"/>
<path d="M83.7571 275.992H2.5791V281.158H83.7571V275.992Z" fill="#CCCCCC"/>
<path d="M83.7571 290.752H2.5791V295.918H83.7571V290.752Z" fill="#CCCCCC"/>
<path d="M83.7571 305.512H2.5791V310.678H83.7571V305.512Z" fill="#CCCCCC"/>
<path d="M128.036 467.13H46.8579V472.296H128.036V467.13Z" fill="#CCCCCC"/>
<path d="M128.036 481.89H46.8579V487.056H128.036V481.89Z" fill="#CCCCCC"/>
<path d="M128.036 496.649H46.8579V501.815H128.036V496.649Z" fill="#CCCCCC"/>
<path d="M704.521 307.726H623.343V312.891H704.521V307.726Z" fill="#CCCCCC"/>
<path d="M704.521 322.485H623.343V327.651H704.521V322.485Z" fill="#CCCCCC"/>
<path d="M704.521 337.245H623.343V342.411H704.521V337.245Z" fill="#CCCCCC"/>
<path d="M743.166 747.861L731.622 751.987L710.214 709.421L727.253 703.332L743.166 747.861Z" fill="#FFCEA9"/>
<path d="M712.886 771.303L712.717 770.832C711.349 766.989 711.561 762.76 713.306 759.073C715.052 755.386 718.189 752.542 722.028 751.165L744.764 743.039L750.111 758L712.886 771.303Z" fill="#232323"/>
<path d="M668.095 759.28L655.835 759.279L650.003 711.991L668.097 711.992L668.095 759.28Z" fill="#FFCEA9"/>
<path d="M671.221 771.164L631.69 771.163V770.663C631.69 768.642 632.088 766.641 632.862 764.774C633.635 762.908 634.768 761.212 636.197 759.783C637.626 758.354 639.322 757.221 641.189 756.448C643.056 755.674 645.057 755.276 647.077 755.276H647.078L671.222 755.277L671.221 771.164Z" fill="#232323"/>
<path d="M696.035 457.17L690.703 446.635C690.703 446.635 670.841 451.611 669.035 463.123L696.035 457.17Z" fill="white"/>
<path d="M718.035 577.635L703.535 658.548L742.035 726.635L719.035 735.635L680.035 669.635L675.035 651.635L672.035 745.635L651.292 745.005L641.781 657.232L657.035 575.635L718.035 577.635Z" fill="url(#paint6_linear_112_91)"/>
<path d="M648.782 592.231C648.332 590.227 647.041 529.058 647.041 529.058C647.041 529.058 668.366 459.049 668.562 458.474L668.638 458.25L684.828 452.179C685.055 452.076 690.45 449.672 694.864 451.675C695.996 452.226 696.994 453.018 697.789 453.994C698.584 454.971 699.156 456.109 699.465 457.33C701.301 458.698 714.535 473.522 714.535 493.629L715.035 541.079L726.13 592.519L725.639 592.624C725.336 592.688 711.812 596.762 690.511 596.762C678.675 596.762 648.782 592.231 648.782 592.231Z" fill="#EDEDED"/>
<path d="M674.143 443.318C686.228 443.318 696.026 433.52 696.026 421.435C696.026 409.349 686.228 399.552 674.143 399.552C662.057 399.552 652.26 409.349 652.26 421.435C652.26 433.52 662.057 443.318 674.143 443.318Z" fill="#FFCEA9"/>
<path opacity="0.2" d="M705.318 517.841L667.035 571.257L661.381 546.312L705.318 517.841Z" fill="black"/>
<path d="M637.371 572.409C638.743 572.354 640.086 572 641.306 571.37C642.526 570.74 643.593 569.851 644.432 568.764C645.271 567.677 645.861 566.42 646.162 565.08C646.462 563.741 646.465 562.352 646.17 561.011L674.617 543.561L658.909 536.213L634.304 553.91C632.084 554.554 630.178 555.99 628.946 557.946C627.714 559.901 627.243 562.241 627.621 564.521C627.999 566.802 629.2 568.864 630.997 570.318C632.794 571.771 635.062 572.515 637.371 572.409V572.409Z" fill="#FFCEA9"/>
<path d="M657.035 536.635L647.292 543.462L655.555 558.135L667.035 548.635L657.035 536.635Z" fill="white"/>
<path d="M651.935 537.066L674.852 510.502L666.071 473.863C665.164 470.077 665.665 466.09 667.482 462.646C669.299 459.202 672.307 456.537 675.945 455.149C679.583 453.761 683.602 453.744 687.251 455.102C690.9 456.46 693.93 459.099 695.776 462.528L695.976 462.899L704.066 517.307L663.412 558.978L651.935 537.066Z" fill="#EDEDED"/>
<path d="M692.782 440.434L674.619 441.086C673.512 441.126 670.507 429.177 670.114 426.699C669.803 425.085 668.916 423.64 667.617 422.633C666.318 421.626 664.697 421.126 663.057 421.226C661.698 421.355 658.269 418.815 654.731 415.807C648.015 410.097 648.364 399.372 655.742 394.547C655.944 394.415 656.142 394.294 656.336 394.186C660.991 391.58 666.436 390.705 671.769 390.639C676.604 390.578 681.576 391.187 685.836 393.475C693.473 397.578 697.537 406.544 697.894 415.206C698.251 423.867 695.474 432.337 692.323 440.413" fill="black"/>
<path d="M792.563 771.464H571.563C571.298 771.464 571.043 771.359 570.856 771.171C570.668 770.983 570.563 770.729 570.563 770.464C570.563 770.199 570.668 769.944 570.856 769.757C571.043 769.569 571.298 769.464 571.563 769.464H792.563C792.828 769.464 793.083 769.569 793.27 769.757C793.458 769.944 793.563 770.199 793.563 770.464C793.563 770.729 793.458 770.983 793.27 771.171C793.083 771.359 792.828 771.464 792.563 771.464Z" fill="#3F3D56"/>
</g>
<defs>
<radialGradient id="paint0_radial_112_91" cx="0" cy="0" r="1" gradientUnits="userSpaceOnUse" gradientTransform="translate(353.12 315.844) rotate(90) scale(14.0216)">
<stop stop-color="#FA4545"/>
<stop offset="1" stop-color="#FFAB48"/>
</radialGradient>
<radialGradient id="paint1_radial_112_91" cx="0" cy="0" r="1" gradientUnits="userSpaceOnUse" gradientTransform="translate(316.959 356.433) rotate(90) scale(14.0216)">
<stop stop-color="#FA4545"/>
<stop offset="1" stop-color="#FFAB48"/>
</radialGradient>
<radialGradient id="paint2_radial_112_91" cx="0" cy="0" r="1" gradientUnits="userSpaceOnUse" gradientTransform="translate(458.035 350.528) rotate(90) scale(14.0216)">
<stop stop-color="#FA4545"/>
<stop offset="1" stop-color="#FFAB48"/>
</radialGradient>
<radialGradient id="paint3_radial_112_91" cx="0" cy="0" r="1" gradientUnits="userSpaceOnUse" gradientTransform="translate(43.1682 241.308) rotate(90) scale(6.64182)">
<stop stop-color="#FA4545"/>
<stop offset="1" stop-color="#FFAB48"/>
</radialGradient>
<radialGradient id="paint4_radial_112_91" cx="0" cy="0" r="1" gradientUnits="userSpaceOnUse" gradientTransform="translate(87.447 432.445) rotate(90) scale(6.64183)">
<stop stop-color="#FA4545"/>
<stop offset="1" stop-color="#FFAB48"/>
</radialGradient>
<radialGradient id="paint5_radial_112_91" cx="0" cy="0" r="1" gradientUnits="userSpaceOnUse" gradientTransform="translate(663.932 272.303) rotate(90) scale(6.64183)">
<stop stop-color="#FA4545"/>
<stop offset="1" stop-color="#FFAB48"/>
</radialGradient>
<linearGradient id="paint6_linear_112_91" x1="691.908" y1="575.635" x2="691.908" y2="745.635" gradientUnits="userSpaceOnUse">
<stop stop-color="#FA4545"/>
<stop offset="0.625" stop-color="#FFAB48"/>
</linearGradient>
<clipPath id="clip0_112_91">
<rect width="794" height="771" fill="white"/>
</clipPath>
</defs>
</svg>
