<svg width="42" height="22" viewBox="0 0 42 22" fill="none" xmlns="http://www.w3.org/2000/svg">
<path d="M16.9461 0C13.8482 0 10.7691 1.27218 8.57861 3.45686C7.19849 4.83327 6.1826 6.56134 5.61921 8.42417C4.26505 8.67911 2.98613 9.33827 2.01096 10.3108C0.739921 11.5784 0 13.3596 0 15.1523C0 16.9451 0.739921 18.7268 2.01096 19.9944C3.28202 21.2621 5.06855 22 6.86608 22H37.6174C38.7647 22 39.9053 21.5292 40.7166 20.7201C41.5279 19.9109 42 18.7734 42 17.6291C42 16.4848 41.5279 15.348 40.7166 14.5388C39.9103 13.7346 38.7787 13.2652 37.6385 13.2594C37.416 11.1862 36.4742 9.19061 34.9947 7.71504C33.2909 6.01587 30.8964 5.02649 28.487 5.02649C27.902 5.02649 27.3183 5.08631 26.7447 5.19893C26.325 4.5743 25.8471 3.98892 25.3135 3.45686C23.123 1.27218 20.044 0 16.9461 0V0Z" fill="#FFAB48"/>
</svg>
