<svg width="67" height="35" viewBox="0 0 67 35" fill="none" xmlns="http://www.w3.org/2000/svg">
<path d="M27.033 0C22.0912 0 17.1793 2.02392 13.6849 5.49954C11.4833 7.68929 9.86271 10.4385 8.96397 13.4021C6.80377 13.8077 4.76359 14.8563 3.20796 16.4036C1.18035 18.4202 0 21.2539 0 24.106C0 26.958 1.18035 29.7926 3.20796 31.8093C5.2356 33.826 8.08554 35 10.953 35H60.0087C61.839 35 63.6584 34.251 64.9527 32.9638C66.2469 31.6765 67 29.8668 67 28.0464C67 26.2259 66.2469 24.4172 64.9527 23.13C63.6664 21.8506 61.8613 21.1037 60.0424 21.0945C59.6874 17.7962 58.185 14.6214 55.8248 12.2739C53.1069 9.5707 49.2871 7.99669 45.4435 7.99669C44.5103 7.99669 43.5792 8.09186 42.6642 8.27103C41.9947 7.2773 41.2322 6.34602 40.3811 5.49954C36.8867 2.02392 31.9749 0 27.033 0V0Z" fill="#FA4545"/>
</svg>
