<svg width="1600" height="900" viewBox="0 0 1600 900" fill="none" xmlns="http://www.w3.org/2000/svg">
<path d="M1275.77 551.073L1307.21 481.516L1351.37 542.794L1275.77 551.073Z" stroke="url(#paint0_linear_64_224)" stroke-opacity="0.3" stroke-width="6.5064" stroke-miterlimit="10"/>
<path d="M417.753 182.074C439.753 181.882 457.432 163.892 457.24 141.892C457.048 119.892 439.057 102.213 417.057 102.405C395.057 102.597 377.378 120.587 377.57 142.587C377.762 164.587 395.752 182.266 417.753 182.074Z" stroke="url(#paint1_linear_64_224)" stroke-opacity="0.3" stroke-width="2.30054" stroke-miterlimit="10"/>
<path d="M394.244 725.686L314.717 750.761C307.793 728.801 319.977 705.38 341.946 698.453C363.915 691.526 387.32 703.726 394.244 725.686Z" stroke="url(#paint2_linear_64_224)" stroke-opacity="0.3" stroke-width="6.90161" stroke-miterlimit="10"/>
<path d="M391.379 357.471L361.469 403.71L394.915 447.46L424.825 401.221L391.379 357.471Z" stroke="url(#paint3_linear_64_224)" stroke-opacity="0.3" stroke-width="2.12021" stroke-miterlimit="10"/>
<path d="M1077.56 576.659L996.66 635.438L1055.44 716.34L1136.34 657.561L1077.56 576.659Z" stroke="url(#paint4_linear_64_224)" stroke-opacity="0.3" stroke-width="4.62" stroke-miterlimit="10"/>
<path d="M1147.59 151.779L1132.56 185.385L1096.01 189.226L1074.41 159.471L1089.35 125.875L1125.9 122.034L1147.59 151.779Z" stroke="url(#paint5_linear_64_224)" stroke-opacity="0.3" stroke-width="1.8375" stroke-miterlimit="10"/>
<defs>
<linearGradient id="paint0_linear_64_224" x1="1275.77" y1="551.073" x2="1268.62" y2="485.743" gradientUnits="userSpaceOnUse">
<stop stop-color="#FA4545"/>
<stop offset="1" stop-color="#FFAB48"/>
</linearGradient>
<linearGradient id="paint1_linear_64_224" x1="377.918" y1="182.422" x2="377.223" y2="102.752" gradientUnits="userSpaceOnUse">
<stop stop-color="#FA4545"/>
<stop offset="1" stop-color="#FFAB48"/>
</linearGradient>
<linearGradient id="paint2_linear_64_224" x1="314.717" y1="750.761" x2="302.178" y2="710.992" gradientUnits="userSpaceOnUse">
<stop stop-color="#FA4545"/>
<stop offset="1" stop-color="#FFAB48"/>
</linearGradient>
<linearGradient id="paint3_linear_64_224" x1="359.701" y1="358.715" x2="363.237" y2="448.704" gradientUnits="userSpaceOnUse">
<stop stop-color="#FA4545"/>
<stop offset="1" stop-color="#FFAB48"/>
</linearGradient>
<linearGradient id="paint4_linear_64_224" x1="996.66" y1="635.438" x2="1055.44" y2="716.34" gradientUnits="userSpaceOnUse">
<stop stop-color="#FA4545"/>
<stop offset="1" stop-color="#FFAB48"/>
</linearGradient>
<linearGradient id="paint5_linear_64_224" x1="1071.08" y1="127.796" x2="1077.74" y2="191.147" gradientUnits="userSpaceOnUse">
<stop stop-color="#FA4545"/>
<stop offset="1" stop-color="#FFAB48"/>
</linearGradient>
</defs>
</svg>
