<svg width="200" height="200" viewBox="0 0 200 200" fill="none" xmlns="http://www.w3.org/2000/svg">
<g clip-path="url(#clip0_12_96)">
<path d="M200.32 49.5C201.874 49.4894 203.369 50.0966 204.475 51.1881C205.582 52.2795 206.209 53.7658 206.22 55.32C206.231 56.8742 205.623 58.3689 204.532 59.4754C203.44 60.5818 201.954 61.2094 200.4 61.22C199.63 61.2253 198.867 61.0789 198.154 60.7893C197.441 60.4997 196.792 60.0724 196.245 59.532C195.697 58.9915 195.261 58.3485 194.961 57.6395C194.662 56.9305 194.505 56.1696 194.5 55.4C194.492 54.6314 194.636 53.8688 194.923 53.1559C195.211 52.4431 195.636 51.7939 196.175 51.2458C196.714 50.6977 197.356 50.2613 198.063 49.9617C198.771 49.6621 199.531 49.5052 200.3 49.5H200.32ZM0.320004 49.5C1.87417 49.4894 3.3689 50.0966 4.47537 51.1881C5.58183 52.2795 6.2094 53.7658 6.22 55.32C6.23061 56.8742 5.6234 58.3689 4.53193 59.4754C3.44047 60.5818 1.95417 61.2094 0.400004 61.22C-0.369547 61.2253 -1.1326 61.0789 -1.84559 60.7893C-2.55857 60.4997 -3.20753 60.0724 -3.7554 59.532C-4.30327 58.9915 -4.73932 58.3485 -5.03866 57.6395C-5.338 56.9305 -5.49476 56.1696 -5.5 55.4C-5.50791 54.6314 -5.36402 53.8688 -5.07658 53.1559C-4.78914 52.4431 -4.3638 51.7939 -3.82495 51.2458C-3.28611 50.6977 -2.64436 50.2613 -1.9365 49.9617C-1.22865 49.6621 -0.468618 49.5052 0.300004 49.5H0.320004ZM19.46 155.86C22.66 155.86 25.26 158.46 25.26 161.66C25.2626 162.436 25.112 163.206 24.8166 163.924C24.5213 164.642 24.0871 165.295 23.539 165.845C22.9909 166.395 22.3396 166.831 21.6225 167.129C20.9053 167.427 20.1365 167.58 19.36 167.58C18.5983 167.58 17.8441 167.43 17.1404 167.139C16.4368 166.847 15.7974 166.42 15.2588 165.881C14.7202 165.343 14.293 164.703 14.0015 164C13.71 163.296 13.56 162.542 13.56 161.78C13.5574 161.004 13.708 160.234 14.0034 159.516C14.2987 158.798 14.7329 158.145 15.281 157.595C15.8291 157.045 16.4804 156.609 17.1975 156.311C17.9147 156.013 18.6835 155.86 19.46 155.86V155.86ZM136.6 150.84C138.154 150.829 139.649 151.437 140.755 152.528C141.862 153.62 142.489 155.106 142.5 156.66C142.511 158.214 141.903 159.709 140.812 160.815C139.72 161.922 138.234 162.549 136.68 162.56C135.126 162.571 133.631 161.963 132.525 160.872C131.418 159.78 130.791 158.294 130.78 156.74C130.769 155.186 131.377 153.691 132.468 152.585C133.56 151.478 135.046 150.851 136.6 150.84V150.84ZM98.9 8.8C100.454 8.78939 101.949 9.39661 103.055 10.4881C104.162 11.5795 104.789 13.0658 104.8 14.62C104.811 16.1742 104.203 17.6689 103.112 18.7754C102.02 19.8818 100.534 20.5094 98.98 20.52C97.4258 20.5306 95.9311 19.9234 94.8246 18.8319C93.7182 17.7405 93.0906 16.2542 93.08 14.7C93.0694 13.1458 93.6766 11.6511 94.7681 10.5446C95.8595 9.43818 97.3458 8.81061 98.9 8.8V8.8ZM43.32 99.2L49.22 105.02L43.42 110.92L37.52 105.12L43.32 99.2ZM130.42 73.5C130.42 73.5 136.22 76.1 136.22 79.3V79.4C136.22 82.6 133.62 85.2 130.42 85.2H130.34C127.14 85.2 124.54 79.4 124.54 79.4L130.42 73.5Z" fill="#FA4545" fill-opacity="0.1"/>
<path d="M179.86 114.96C179.63 114.484 179.582 113.94 179.726 113.432C179.87 112.923 180.195 112.485 180.64 112.2C185.52 109.14 190.72 108.58 194.94 110.6C199.14 112.66 201.88 117.12 202.48 122.86C202.92 127.14 204.76 130.28 207.64 131.7C210.52 133.1 214.12 132.6 217.78 130.32C218.254 130.095 218.793 130.052 219.296 130.199C219.8 130.345 220.232 130.671 220.51 131.115C220.789 131.559 220.895 132.09 220.808 132.607C220.722 133.124 220.448 133.591 220.04 133.92C215.16 137 209.96 137.58 205.76 135.54C201.56 133.5 198.8 129.04 198.22 123.3C197.76 119 195.92 115.86 193.04 114.46C190.16 113.06 186.56 113.54 182.9 115.82C181.9 116.46 180.58 116.14 179.96 115.16L179.86 114.96V114.96ZM199.98 177.18C200.387 177.042 200.831 177.059 201.227 177.229C201.622 177.399 201.94 177.709 202.12 178.1C204.1 182.38 204.02 186.66 201.92 189.86C199.82 193.06 195.92 194.82 191.2 194.7C187.68 194.62 184.94 195.78 183.5 197.96C182.06 200.16 182.08 203.14 183.56 206.32C183.656 206.529 183.71 206.754 183.718 206.984C183.727 207.214 183.69 207.443 183.611 207.658C183.531 207.874 183.409 208.071 183.253 208.24C183.097 208.408 182.909 208.544 182.7 208.64C182.491 208.736 182.266 208.79 182.036 208.798C181.806 208.807 181.577 208.77 181.362 208.69C181.146 208.611 180.949 208.489 180.78 208.333C180.612 208.177 180.476 207.989 180.38 207.78C178.4 203.52 178.48 199.24 180.58 196.04C182.68 192.84 186.58 191.08 191.3 191.2C194.82 191.28 197.56 190.12 199 187.94C200.44 185.74 200.42 182.76 198.94 179.58C198.834 179.356 198.777 179.112 198.773 178.865C198.769 178.617 198.818 178.372 198.917 178.144C199.015 177.917 199.161 177.714 199.344 177.547C199.528 177.381 199.744 177.256 199.98 177.18V177.18ZM199.98 -22.82C200.387 -22.9583 200.831 -22.9409 201.227 -22.771C201.622 -22.6011 201.94 -22.2908 202.12 -21.9C204.1 -17.62 204.02 -13.34 201.92 -10.14C199.82 -6.94003 195.92 -5.18003 191.2 -5.30003C187.68 -5.38003 184.94 -4.22003 183.5 -2.04003C182.06 0.159972 182.08 3.13997 183.56 6.31997C183.656 6.52877 183.71 6.75441 183.718 6.98401C183.727 7.2136 183.69 7.44265 183.611 7.65808C183.531 7.87352 183.409 8.07111 183.253 8.23958C183.097 8.40805 182.909 8.54411 182.7 8.63997C182.491 8.73584 182.266 8.78964 182.036 8.7983C181.806 8.80696 181.577 8.77032 181.362 8.69046C181.146 8.6106 180.949 8.48909 180.78 8.33287C180.612 8.17665 180.476 7.98877 180.38 7.77997C178.4 3.51997 178.48 -0.760028 180.58 -3.96003C182.68 -7.16003 186.58 -8.92003 191.3 -8.80003C194.82 -8.72003 197.56 -9.88003 199 -12.06C200.44 -14.26 200.42 -17.24 198.94 -20.42C198.834 -20.6439 198.777 -20.8877 198.773 -21.1352C198.769 -21.3828 198.818 -21.6284 198.917 -21.8555C199.015 -22.0827 199.161 -22.2863 199.344 -22.4526C199.528 -22.6189 199.744 -22.7442 199.98 -22.82V-22.82ZM18.88 19.8C19.18 19.2 19.96 19.02 20.68 19.32C24.44 20.96 27 23.56 27.74 26.48C28.5 29.42 27.32 32.34 24.54 34.52C22.46 36.12 21.6 38.14 22.1 40.14C22.62 42.14 24.44 43.94 27.24 45.14C28.02 45.5 28.44 46.3 28.18 46.94C27.92 47.62 27.08 47.88 26.32 47.54C22.56 45.9 20 43.3 19.24 40.38C18.5 37.46 19.68 34.52 22.44 32.36C24.54 30.74 25.4 28.72 24.9 26.72C24.38 24.72 22.56 22.94 19.74 21.72C18.98 21.38 18.56 20.58 18.82 19.92L18.88 19.78V19.8ZM-20.14 114.98C-20.3702 114.504 -20.4179 113.96 -20.2742 113.452C-20.1304 112.943 -19.8052 112.505 -19.36 112.22C-14.48 109.16 -9.27999 108.6 -5.05999 110.62C-0.859986 112.68 1.88001 117.14 2.48001 122.88C2.92001 127.16 4.76001 130.3 7.64001 131.72C10.52 133.12 14.12 132.62 17.78 130.34C18.2535 130.115 18.7931 130.072 19.2964 130.218C19.7997 130.365 20.2317 130.691 20.5104 131.135C20.7891 131.579 20.8952 132.11 20.8085 132.627C20.7218 133.144 20.4483 133.611 20.04 133.94C15.16 137.02 9.96001 137.6 5.76001 135.56C1.56001 133.5 -1.19999 129.04 -1.79999 123.3C-2.25999 119 -4.09999 115.86 -6.97999 114.46C-9.85999 113.06 -13.46 113.54 -17.12 115.82C-18.12 116.46 -19.44 116.14 -20.06 115.16L-20.16 114.96L-20.14 114.98ZM-0.0199871 177.18C0.387345 177.042 0.831473 177.059 1.22667 177.229C1.62187 177.399 1.94013 177.709 2.12001 178.1C4.10001 182.38 4.02001 186.66 1.92001 189.86C-0.179986 193.06 -4.07999 194.82 -8.79999 194.7C-12.32 194.62 -15.06 195.78 -16.5 197.96C-17.94 200.16 -17.92 203.14 -16.44 206.32C-16.3441 206.529 -16.2903 206.754 -16.2817 206.984C-16.273 207.214 -16.3096 207.443 -16.3895 207.658C-16.4694 207.874 -16.5909 208.071 -16.7471 208.24C-16.9033 208.408 -17.0912 208.544 -17.3 208.64C-17.5088 208.736 -17.7344 208.79 -17.964 208.798C-18.1936 208.807 -18.4227 208.77 -18.6381 208.69C-18.8535 208.611 -19.0511 208.489 -19.2196 208.333C-19.3881 208.177 -19.5241 207.989 -19.62 207.78C-21.6 203.52 -21.52 199.24 -19.42 196.04C-17.32 192.84 -13.42 191.08 -8.69999 191.2C-5.17999 191.28 -2.43999 190.12 -0.999987 187.94C0.440013 185.74 0.420014 182.76 -1.05999 179.58C-1.1658 179.356 -1.22263 179.112 -1.22668 178.865C-1.23073 178.617 -1.1819 178.372 -1.08346 178.144C-0.985021 177.917 -0.839232 177.714 -0.655838 177.547C-0.472444 177.381 -0.255666 177.256 -0.0199871 177.18V177.18ZM87.82 167.48C87.34 166.52 87.62 165.32 88.54 164.72C93.36 161.54 98.54 160.86 102.8 162.8C107.06 164.74 109.9 169.14 110.64 174.86C111.18 179.14 113.1 182.26 116 183.58C118.92 184.92 122.5 184.34 126.1 181.98C126.572 181.668 127.149 181.556 127.704 181.669C128.259 181.781 128.746 182.109 129.06 182.58C129.7 183.58 129.44 184.9 128.46 185.54C123.66 188.72 118.46 189.42 114.2 187.46C109.96 185.52 107.1 181.12 106.38 175.4C105.82 171.12 103.92 168.02 101 166.68C98.08 165.34 94.5 165.92 90.9 168.28C89.92 168.92 88.58 168.68 87.94 167.68L87.82 167.48V167.48ZM82 91.34C81.06 91.84 79.86 91.54 79.24 90.64C76.02 85.86 75.24 80.68 77.14 76.42C79.02 72.14 83.4 69.22 89.1 68.42C93.38 67.82 96.44 65.88 97.74 62.96C99.04 60.02 98.42 56.44 96 52.86C95.34 51.88 95.6 50.56 96.56 49.9C97.56 49.24 98.86 49.5 99.56 50.46C102.76 55.24 103.56 60.42 101.64 64.68C99.76 68.96 95.4 71.88 89.68 72.68C85.42 73.28 82.34 75.22 81.04 78.14C79.74 81.08 80.36 84.66 82.78 88.24C83.44 89.22 83.2 90.54 82.22 91.22C82.14 91.24 82.08 91.3 82.02 91.34H82Z" fill="#FA4545" fill-opacity="0.1"/>
<path d="M202 19.52L203.5 22.94L183.56 31.62L182.08 28.18L202 19.52ZM174.7 19.4L173.38 22.9L118.28 2.24002L119.58 -1.27998L174.7 19.4ZM82.8 -12.42L86.04 -10.56L68.4 20L65.16 18.12L82.8 -12.42ZM174.7 219.4L173.38 222.92L118.28 202.22L119.58 198.72L174.7 219.4ZM101.16 112.06L104.86 111.46L108.52 134.1L104.82 134.7L101.16 112.06ZM88.72 139.64L87.72 143.24L53.72 133.92L54.72 130.32L88.72 139.64ZM82.8 187.58L86.04 189.44L68.4 220L65.16 218.12L82.8 187.58ZM174.7 19.4L173.38 22.9L118.28 2.24002L119.58 -1.27998L174.7 19.4ZM159.16 104.52L160.7 108.04L128.02 122.26L126.48 118.76L159.16 104.52ZM2 19.52L3.5 22.94L-16.42 31.62L-17.92 28.18L2 19.52ZM202 19.52L203.5 22.94L183.56 31.62L182.08 28.18L202 19.52ZM62.08 55.36L63.28 59.08L17.02 74.04L15.82 70.32L62.08 55.36ZM158.28 148.26L159.74 144.82L179.74 153.38L178.26 156.82L158.28 148.26ZM82.8 -12.4L86.04 -10.54L68.4 20L65.16 18.12L82.8 -12.4ZM135.08 22.4L138.32 24.28L123.8 49.42L120.56 47.54L135.08 22.4ZM42.44 180.7L41.24 177.9L60.4 169.58L61.6 172.36L42.44 180.7ZM181.04 81.12L178.04 83.36L157 55.1L160 52.86L181.04 81.12ZM174.7 219.4L173.38 222.92L118.28 202.22L119.58 198.72L174.7 219.4ZM82.8 187.6L86.04 189.46L68.4 220L65.16 218.12L82.8 187.6ZM2 19.52L3.48 22.94L-16.44 31.62L-17.94 28.18L2 19.52Z" fill="#FFAB48" fill-opacity="0.1"/>
</g>
<defs>
<clipPath id="clip0_12_96">
<rect width="200" height="200" fill="white"/>
</clipPath>
</defs>
</svg>
