<svg width="893" height="764" viewBox="0 0 893 764" fill="none" xmlns="http://www.w3.org/2000/svg">
<path d="M561.153 209L560 210.211L639.086 285.505L640.238 284.295L561.153 209Z" fill="#E6E6E6"/>
<path d="M640.364 276.131L638.694 276.232L639.198 284.458L630.956 284.359L630.938 286.031L640.976 286.15L640.364 276.131Z" fill="#E6E6E6"/>
<path d="M570.036 209.12L570.018 210.792L561.777 210.693L562.281 218.919L560.61 219.02L560 209L570.036 209.12Z" fill="#E6E6E6"/>
<path d="M600.854 257.092C605.932 257.092 610.047 252.976 610.047 247.899C610.047 242.822 605.932 238.706 600.854 238.706C595.777 238.706 591.662 242.822 591.662 247.899C591.662 252.976 595.777 257.092 600.854 257.092Z" fill="#E6E6E6"/>
<path d="M324.638 210.852L245.553 286.146L246.705 287.357L325.791 212.063L324.638 210.852Z" fill="#E6E6E6"/>
<path d="M244.815 288.001L254.853 287.882L254.834 286.21L246.593 286.309L247.097 278.083L245.427 277.982L244.815 288.001Z" fill="#E6E6E6"/>
<path d="M326.527 210.206L325.916 220.226L324.246 220.125L324.749 211.899L316.508 211.998L316.49 210.326L326.527 210.206Z" fill="#E6E6E6"/>
<path d="M285.672 258.298C290.749 258.298 294.865 254.182 294.865 249.105C294.865 244.028 290.749 239.912 285.672 239.912C280.595 239.912 276.479 244.028 276.479 249.105C276.479 254.182 280.595 258.298 285.672 258.298Z" fill="#E6E6E6"/>
<path d="M511.165 324.543H372.436C370.442 324.541 368.53 323.747 367.12 322.337C365.71 320.927 364.917 319.016 364.915 317.021V141.521C364.917 139.527 365.71 137.616 367.12 136.205C368.53 134.795 370.442 134.002 372.436 134H511.165C513.159 134.002 515.07 134.795 516.48 136.205C517.891 137.616 518.684 139.527 518.686 141.521V317.021C518.684 319.016 517.891 320.927 516.48 322.337C515.07 323.747 513.159 324.541 511.165 324.543ZM372.436 135.671C370.885 135.673 369.398 136.29 368.301 137.387C367.205 138.483 366.588 139.97 366.586 141.521V317.021C366.588 318.572 367.205 320.059 368.301 321.156C369.398 322.253 370.885 322.87 372.436 322.871H511.165C512.716 322.87 514.202 322.253 515.299 321.156C516.396 320.059 517.013 318.572 517.015 317.021V141.521C517.013 139.97 516.396 138.483 515.299 137.387C514.202 136.29 512.716 135.673 511.165 135.671H372.436Z" fill="black"/>
<path d="M430.26 218.359H399.723C398.726 218.358 397.77 217.961 397.065 217.256C396.36 216.551 395.964 215.595 395.962 214.598V178.562C395.964 177.565 396.36 176.609 397.065 175.904C397.77 175.199 398.726 174.803 399.723 174.802H430.26C431.257 174.803 432.213 175.199 432.918 175.904C433.623 176.609 434.02 177.565 434.021 178.562V214.598C434.02 215.595 433.623 216.551 432.918 217.256C432.213 217.961 431.257 218.358 430.26 218.359Z" fill="url(#paint0_linear_114_202)"/>
<path d="M489.596 235.073H459.059C458.061 235.072 457.106 234.675 456.401 233.97C455.696 233.265 455.299 232.309 455.298 231.312V195.276C455.299 194.279 455.696 193.323 456.401 192.618C457.106 191.913 458.061 191.517 459.059 191.516H489.596C490.593 191.517 491.549 191.913 492.254 192.618C492.959 193.323 493.355 194.279 493.356 195.276V231.312C493.355 232.309 492.959 233.265 492.254 233.97C491.549 234.675 490.593 235.072 489.596 235.073V235.073Z" fill="url(#paint1_linear_114_202)"/>
<path d="M441.96 286.051H411.423C410.426 286.05 409.47 285.654 408.765 284.949C408.06 284.244 407.663 283.288 407.662 282.291V246.255C407.663 245.258 408.06 244.302 408.765 243.597C409.47 242.892 410.426 242.495 411.423 242.494H441.96C442.957 242.495 443.913 242.892 444.618 243.597C445.323 244.302 445.719 245.258 445.721 246.255V282.291C445.719 283.288 445.323 284.244 444.618 284.949C443.913 285.654 442.957 286.05 441.96 286.051V286.051Z" fill="url(#paint2_linear_114_202)"/>
<path d="M735.598 520.148H596.87C594.875 520.146 592.964 519.353 591.554 517.943C590.144 516.533 589.35 514.621 589.348 512.627V337.127C589.35 335.133 590.144 333.221 591.554 331.811C592.964 330.401 594.875 329.608 596.87 329.605H735.598C737.592 329.608 739.504 330.401 740.914 331.811C742.324 333.221 743.117 335.133 743.12 337.127V512.627C743.117 514.621 742.324 516.533 740.914 517.943C739.504 519.353 737.592 520.146 735.598 520.148ZM596.87 331.277C595.319 331.279 593.832 331.896 592.735 332.992C591.638 334.089 591.021 335.576 591.02 337.127V512.627C591.021 514.178 591.638 515.665 592.735 516.762C593.832 517.858 595.319 518.475 596.87 518.477H735.598C737.149 518.475 738.636 517.858 739.733 516.762C740.829 515.665 741.446 514.178 741.448 512.627V337.127C741.446 335.576 740.829 334.089 739.733 332.992C738.636 331.896 737.149 331.279 735.598 331.277H596.87Z" fill="black"/>
<path d="M689.532 353.318H641.897C641.01 353.318 640.16 352.965 639.533 352.338C638.906 351.712 638.554 350.861 638.554 349.975C638.554 349.088 638.906 348.238 639.533 347.611C640.16 346.984 641.01 346.632 641.897 346.632H689.532C690.419 346.632 691.269 346.984 691.896 347.611C692.523 348.238 692.875 349.088 692.875 349.975C692.875 350.861 692.523 351.712 691.896 352.338C691.269 352.965 690.419 353.318 689.532 353.318Z" fill="url(#paint3_linear_114_202)"/>
<path d="M712.932 385.075H618.497C618.057 385.076 617.622 384.99 617.216 384.823C616.809 384.655 616.44 384.409 616.129 384.098C615.818 383.788 615.571 383.419 615.403 383.013C615.235 382.607 615.148 382.172 615.148 381.733C615.148 381.293 615.235 380.858 615.403 380.452C615.571 380.046 615.818 379.677 616.129 379.367C616.44 379.056 616.809 378.81 617.216 378.642C617.622 378.475 618.057 378.389 618.497 378.39H712.932C713.372 378.389 713.807 378.475 714.213 378.642C714.62 378.81 714.989 379.056 715.3 379.367C715.611 379.677 715.858 380.046 716.026 380.452C716.194 380.858 716.281 381.293 716.281 381.733C716.281 382.172 716.194 382.607 716.026 383.013C715.858 383.419 715.611 383.788 715.3 384.098C714.989 384.409 714.62 384.655 714.213 384.823C713.807 384.99 713.372 385.076 712.932 385.075V385.075Z" fill="#CCCCCC"/>
<path d="M712.932 402.625H618.497C618.057 402.626 617.622 402.54 617.216 402.372C616.809 402.205 616.44 401.959 616.129 401.648C615.818 401.338 615.571 400.969 615.403 400.563C615.235 400.157 615.148 399.722 615.148 399.282C615.148 398.843 615.235 398.408 615.403 398.002C615.571 397.596 615.818 397.227 616.129 396.917C616.44 396.606 616.809 396.36 617.216 396.192C617.622 396.025 618.057 395.939 618.497 395.939H712.932C713.372 395.939 713.807 396.025 714.213 396.192C714.62 396.36 714.989 396.606 715.3 396.917C715.611 397.227 715.858 397.596 716.026 398.002C716.194 398.408 716.281 398.843 716.281 399.282C716.281 399.722 716.194 400.157 716.026 400.563C715.858 400.969 715.611 401.338 715.3 401.648C714.989 401.959 714.62 402.205 714.213 402.372C713.807 402.54 713.372 402.626 712.932 402.625V402.625Z" fill="#CCCCCC"/>
<path d="M712.932 420.175H618.497C618.057 420.176 617.622 420.09 617.216 419.922C616.809 419.755 616.44 419.508 616.129 419.198C615.818 418.887 615.571 418.519 615.403 418.113C615.235 417.707 615.148 417.272 615.148 416.832C615.148 416.393 615.235 415.957 615.403 415.552C615.571 415.146 615.818 414.777 616.129 414.466C616.44 414.156 616.809 413.91 617.216 413.742C617.622 413.574 618.057 413.489 618.497 413.489H712.932C713.372 413.489 713.807 413.574 714.213 413.742C714.62 413.91 714.989 414.156 715.3 414.466C715.611 414.777 715.858 415.146 716.026 415.552C716.194 415.957 716.281 416.393 716.281 416.832C716.281 417.272 716.194 417.707 716.026 418.113C715.858 418.519 715.611 418.887 715.3 419.198C714.989 419.508 714.62 419.755 714.213 419.922C713.807 420.09 713.372 420.176 712.932 420.175V420.175Z" fill="#CCCCCC"/>
<path d="M712.932 437.725H618.497C618.057 437.726 617.622 437.64 617.216 437.472C616.809 437.304 616.44 437.058 616.129 436.748C615.818 436.437 615.571 436.068 615.403 435.663C615.235 435.257 615.148 434.821 615.148 434.382C615.148 433.942 615.235 433.507 615.403 433.101C615.571 432.695 615.818 432.327 616.129 432.016C616.44 431.706 616.809 431.46 617.216 431.292C617.622 431.124 618.057 431.038 618.497 431.039H712.932C713.372 431.038 713.807 431.124 714.213 431.292C714.62 431.46 714.989 431.706 715.3 432.016C715.611 432.327 715.858 432.695 716.026 433.101C716.194 433.507 716.281 433.942 716.281 434.382C716.281 434.821 716.194 435.257 716.026 435.663C715.858 436.068 715.611 436.437 715.3 436.748C714.989 437.058 714.62 437.304 714.213 437.472C713.807 437.64 713.372 437.726 712.932 437.725V437.725Z" fill="#CCCCCC"/>
<path d="M712.932 455.275H618.497C618.057 455.275 617.622 455.189 617.216 455.022C616.809 454.854 616.44 454.608 616.129 454.298C615.818 453.987 615.571 453.618 615.403 453.212C615.235 452.806 615.148 452.371 615.148 451.932C615.148 451.492 615.235 451.057 615.403 450.651C615.571 450.245 615.818 449.876 616.129 449.566C616.44 449.255 616.809 449.009 617.216 448.842C617.622 448.674 618.057 448.588 618.497 448.589H712.932C713.372 448.588 713.807 448.674 714.213 448.842C714.62 449.009 714.989 449.255 715.3 449.566C715.611 449.876 715.858 450.245 716.026 450.651C716.194 451.057 716.281 451.492 716.281 451.932C716.281 452.371 716.194 452.806 716.026 453.212C715.858 453.618 715.611 453.987 715.3 454.298C714.989 454.608 714.62 454.854 714.213 455.022C713.807 455.189 713.372 455.275 712.932 455.275V455.275Z" fill="#CCCCCC"/>
<path d="M712.932 472.825H618.497C618.057 472.826 617.622 472.74 617.216 472.573C616.809 472.405 616.44 472.159 616.129 471.848C615.818 471.538 615.571 471.169 615.403 470.763C615.235 470.357 615.148 469.922 615.148 469.483C615.148 469.043 615.235 468.608 615.403 468.202C615.571 467.796 615.818 467.427 616.129 467.117C616.44 466.806 616.809 466.56 617.216 466.392C617.622 466.225 618.057 466.139 618.497 466.14H712.932C713.372 466.139 713.807 466.225 714.213 466.392C714.62 466.56 714.989 466.806 715.3 467.117C715.611 467.427 715.858 467.796 716.026 468.202C716.194 468.608 716.281 469.043 716.281 469.483C716.281 469.922 716.194 470.357 716.026 470.763C715.858 471.169 715.611 471.538 715.3 471.848C714.989 472.159 714.62 472.405 714.213 472.573C713.807 472.74 713.372 472.826 712.932 472.825V472.825Z" fill="#CCCCCC"/>
<path d="M287.25 505H148.521C146.527 504.998 144.616 504.204 143.205 502.794C141.795 501.384 141.002 499.473 141 497.478V321.978C141.002 319.984 141.795 318.073 143.205 316.663C144.616 315.252 146.527 314.459 148.521 314.457H287.25C289.244 314.459 291.156 315.252 292.566 316.663C293.976 318.073 294.769 319.984 294.771 321.978V497.478C294.769 499.473 293.976 501.384 292.566 502.794C291.156 504.204 289.244 504.998 287.25 505ZM148.521 316.128C146.97 316.13 145.483 316.747 144.387 317.844C143.29 318.941 142.673 320.427 142.671 321.978V497.478C142.673 499.029 143.29 500.516 144.387 501.613C145.483 502.71 146.97 503.327 148.521 503.328H287.25C288.801 503.327 290.288 502.71 291.385 501.613C292.481 500.516 293.098 499.029 293.1 497.478V321.978C293.098 320.427 292.481 318.941 291.385 317.844C290.288 316.747 288.801 316.13 287.25 316.128H148.521Z" fill="black"/>
<path d="M265.248 355.893H223.462C222.576 355.893 221.726 355.541 221.099 354.914C220.472 354.287 220.12 353.436 220.12 352.55C220.12 351.663 220.472 350.813 221.099 350.186C221.726 349.559 222.576 349.207 223.462 349.207H265.248C266.135 349.207 266.985 349.559 267.612 350.186C268.239 350.813 268.591 351.663 268.591 352.55C268.591 353.436 268.239 354.287 267.612 354.914C266.985 355.541 266.135 355.893 265.248 355.893V355.893Z" fill="#3F3D56"/>
<path d="M265.248 373.443H223.462C222.576 373.443 221.726 373.09 221.099 372.463C220.472 371.837 220.12 370.986 220.12 370.1C220.12 369.213 220.472 368.363 221.099 367.736C221.726 367.109 222.576 366.757 223.462 366.757H265.248C266.135 366.757 266.985 367.109 267.612 367.736C268.239 368.363 268.591 369.213 268.591 370.1C268.591 370.986 268.239 371.837 267.612 372.463C266.985 373.09 266.135 373.443 265.248 373.443V373.443Z" fill="#3F3D56"/>
<path d="M202.022 383.436H171.485C170.488 383.435 169.532 383.038 168.827 382.333C168.122 381.628 167.726 380.672 167.725 379.675V343.64C167.726 342.643 168.122 341.687 168.827 340.982C169.532 340.277 170.488 339.88 171.485 339.879H202.022C203.019 339.88 203.975 340.277 204.68 340.982C205.385 341.687 205.782 342.643 205.783 343.64V379.675C205.782 380.672 205.385 381.628 204.68 382.333C203.975 383.038 203.019 383.435 202.022 383.436Z" fill="url(#paint4_linear_114_202)"/>
<path d="M264.959 409.378H170.523C170.083 409.379 169.648 409.293 169.242 409.125C168.836 408.958 168.466 408.712 168.155 408.401C167.844 408.091 167.598 407.722 167.429 407.316C167.261 406.91 167.174 406.475 167.174 406.035C167.174 405.596 167.261 405.161 167.429 404.755C167.598 404.349 167.844 403.98 168.155 403.669C168.466 403.359 168.836 403.113 169.242 402.945C169.648 402.778 170.083 402.692 170.523 402.692H264.959C265.398 402.692 265.833 402.778 266.24 402.945C266.646 403.113 267.015 403.359 267.326 403.669C267.637 403.98 267.884 404.349 268.052 404.755C268.221 405.161 268.307 405.596 268.307 406.035C268.307 406.475 268.221 406.91 268.052 407.316C267.884 407.722 267.637 408.091 267.326 408.401C267.015 408.712 266.646 408.958 266.24 409.125C265.833 409.293 265.398 409.379 264.959 409.378V409.378Z" fill="#CCCCCC"/>
<path d="M264.959 426.929H170.523C170.083 426.93 169.648 426.844 169.242 426.676C168.836 426.508 168.466 426.262 168.155 425.952C167.844 425.641 167.598 425.273 167.429 424.867C167.261 424.461 167.174 424.026 167.174 423.586C167.174 423.147 167.261 422.711 167.429 422.305C167.598 421.899 167.844 421.531 168.155 421.22C168.466 420.91 168.836 420.664 169.242 420.496C169.648 420.328 170.083 420.242 170.523 420.243H264.959C265.398 420.242 265.833 420.328 266.24 420.496C266.646 420.664 267.015 420.91 267.326 421.22C267.637 421.531 267.884 421.899 268.052 422.305C268.221 422.711 268.307 423.147 268.307 423.586C268.307 424.026 268.221 424.461 268.052 424.867C267.884 425.273 267.637 425.641 267.326 425.952C267.015 426.262 266.646 426.508 266.24 426.676C265.833 426.844 265.398 426.93 264.959 426.929V426.929Z" fill="#CCCCCC"/>
<path d="M264.959 444.479H170.523C170.083 444.479 169.648 444.394 169.242 444.226C168.836 444.058 168.466 443.812 168.155 443.502C167.844 443.191 167.598 442.822 167.429 442.416C167.261 442.01 167.174 441.575 167.174 441.136C167.174 440.696 167.261 440.261 167.429 439.855C167.598 439.449 167.844 439.081 168.155 438.77C168.466 438.46 168.836 438.213 169.242 438.046C169.648 437.878 170.083 437.792 170.523 437.793H264.959C265.398 437.792 265.833 437.878 266.24 438.046C266.646 438.213 267.015 438.46 267.326 438.77C267.637 439.081 267.884 439.449 268.052 439.855C268.221 440.261 268.307 440.696 268.307 441.136C268.307 441.575 268.221 442.01 268.052 442.416C267.884 442.822 267.637 443.191 267.326 443.502C267.015 443.812 266.646 444.058 266.24 444.226C265.833 444.394 265.398 444.479 264.959 444.479V444.479Z" fill="#CCCCCC"/>
<path d="M264.959 462.028H170.523C170.083 462.029 169.648 461.943 169.242 461.776C168.836 461.608 168.466 461.362 168.155 461.051C167.844 460.741 167.598 460.372 167.429 459.966C167.261 459.56 167.174 459.125 167.174 458.686C167.174 458.246 167.261 457.811 167.429 457.405C167.598 456.999 167.844 456.63 168.155 456.32C168.466 456.009 168.836 455.763 169.242 455.596C169.648 455.428 170.083 455.342 170.523 455.343H264.959C265.398 455.342 265.833 455.428 266.24 455.596C266.646 455.763 267.015 456.009 267.326 456.32C267.637 456.63 267.884 456.999 268.052 457.405C268.221 457.811 268.307 458.246 268.307 458.686C268.307 459.125 268.221 459.56 268.052 459.966C267.884 460.372 267.637 460.741 267.326 461.051C267.015 461.362 266.646 461.608 266.24 461.776C265.833 461.943 265.398 462.029 264.959 462.028V462.028Z" fill="#CCCCCC"/>
<path d="M264.959 479.578H170.523C170.083 479.579 169.648 479.493 169.242 479.326C168.836 479.158 168.466 478.912 168.155 478.601C167.844 478.291 167.598 477.922 167.429 477.516C167.261 477.11 167.174 476.675 167.174 476.235C167.174 475.796 167.261 475.361 167.429 474.955C167.598 474.549 167.844 474.18 168.155 473.87C168.466 473.559 168.836 473.313 169.242 473.145C169.648 472.978 170.083 472.892 170.523 472.893H264.959C265.398 472.892 265.833 472.978 266.24 473.145C266.646 473.313 267.015 473.559 267.326 473.87C267.637 474.18 267.884 474.549 268.052 474.955C268.221 475.361 268.307 475.796 268.307 476.235C268.307 476.675 268.221 477.11 268.052 477.516C267.884 477.922 267.637 478.291 267.326 478.601C267.015 478.912 266.646 479.158 266.24 479.326C265.833 479.493 265.398 479.579 264.959 479.578V479.578Z" fill="#CCCCCC"/>
<path d="M339.695 606.718V570.683C339.696 569.685 340.093 568.73 340.798 568.025C341.503 567.32 342.459 566.923 343.456 566.922H373.993C374.99 566.923 375.946 567.32 376.651 568.025C377.356 568.73 377.753 569.685 377.754 570.683V606.718C377.753 607.715 377.356 608.671 376.651 609.376C375.946 610.081 374.99 610.478 373.993 610.479H343.456C342.459 610.478 341.503 610.081 340.798 609.376C340.093 608.671 339.696 607.715 339.695 606.718V606.718Z" fill="#E6E6E6"/>
<path d="M350.695 594.718V558.683C350.696 557.685 351.093 556.73 351.798 556.025C352.503 555.32 353.459 554.923 354.456 554.922H384.993C385.99 554.923 386.946 555.32 387.651 556.025C388.356 556.73 388.753 557.685 388.754 558.683V594.718C388.753 595.715 388.356 596.671 387.651 597.376C386.946 598.081 385.99 598.478 384.993 598.479H354.456C353.459 598.478 352.503 598.081 351.798 597.376C351.093 596.671 350.696 595.715 350.695 594.718V594.718Z" fill="url(#paint5_linear_114_202)"/>
<path d="M487.585 583.188C486.435 582.524 485.446 581.617 484.686 580.529C483.925 579.441 483.413 578.2 483.184 576.893C482.956 575.585 483.016 574.244 483.362 572.963C483.708 571.681 484.331 570.492 485.186 569.477L475.721 500.289L495.438 501.257L498.534 568.742C500.143 570.293 501.128 572.379 501.301 574.607C501.475 576.834 500.825 579.048 499.476 580.829C498.126 582.61 496.17 583.833 493.979 584.268C491.787 584.703 489.512 584.319 487.585 583.188V583.188Z" fill="#A0616A"/>
<path d="M498.144 502.178C497.74 502.654 497.223 503.02 496.639 503.243L478.92 510.006C478.03 510.345 477.043 510.331 476.164 509.965C475.284 509.6 474.578 508.911 474.191 508.041L458.494 472.766C456.987 469.494 456.731 465.783 457.773 462.334C458.544 459.873 459.964 457.665 461.885 455.944C463.805 454.222 466.154 453.051 468.685 452.552C470.631 452.152 472.641 452.18 474.575 452.635C476.892 453.152 479.044 454.238 480.836 455.796C482.628 457.354 484.004 459.334 484.838 461.557L498.794 498.447C499.029 499.07 499.092 499.745 498.978 500.401C498.864 501.057 498.576 501.671 498.144 502.178V502.178Z" fill="#EDEDED"/>
<path d="M405.807 752.06H393.547L389.102 704.549L405.809 704.773L405.807 752.06Z" fill="#A0616A"/>
<path d="M384.79 748.557H408.434V763.444H369.903C369.903 761.489 370.288 759.553 371.037 757.747C371.785 755.94 372.881 754.299 374.264 752.917C375.646 751.535 377.287 750.438 379.093 749.69C380.899 748.942 382.835 748.557 384.79 748.557V748.557Z" fill="black"/>
<path d="M462.807 752.06H450.547L444.715 704.771L462.809 704.773L462.807 752.06Z" fill="#A0616A"/>
<path d="M441.79 748.557H465.434V763.444H426.903C426.903 761.489 427.288 759.553 428.036 757.747C428.785 755.94 429.881 754.299 431.264 752.917C432.646 751.535 434.287 750.438 436.093 749.69C437.899 748.942 439.835 748.557 441.79 748.557V748.557Z" fill="black"/>
<path d="M464.349 735.236L445.094 733.81C443.999 733.728 442.971 733.248 442.205 732.462C441.438 731.675 440.985 730.636 440.931 729.539L436.638 640.809C436.597 639.957 436.246 639.15 435.652 638.539C435.057 637.927 434.261 637.554 433.411 637.489C432.561 637.423 431.716 637.67 431.035 638.183C430.354 638.696 429.884 639.441 429.713 640.276L411.802 727.683C411.58 728.758 410.973 729.716 410.096 730.375C409.218 731.035 408.129 731.351 407.035 731.265L389.629 729.872C389.032 729.825 388.451 729.658 387.92 729.384C387.388 729.109 386.917 728.73 386.534 728.271C386.15 727.812 385.862 727.281 385.686 726.708C385.51 726.136 385.451 725.535 385.51 724.94L401.658 563.463C401.721 562.832 401.917 562.221 402.232 561.671C402.548 561.121 402.977 560.644 403.49 560.271C404.003 559.898 404.589 559.638 405.21 559.507C405.83 559.377 406.472 559.379 407.091 559.514L468.497 572.863C469.514 573.086 470.423 573.654 471.069 574.471C471.715 575.288 472.058 576.303 472.04 577.344L469.181 730.832C469.158 732.009 468.676 733.13 467.836 733.956C466.997 734.781 465.868 735.245 464.691 735.248C464.578 735.248 464.463 735.243 464.349 735.236Z" fill="url(#paint6_linear_114_202)"/>
<path d="M447.503 428.448C461.068 428.448 472.064 417.452 472.064 403.887C472.064 390.323 461.068 379.326 447.503 379.326C433.939 379.326 422.942 390.323 422.942 403.887C422.942 417.452 433.939 428.448 447.503 428.448Z" fill="#A0616A"/>
<path d="M409.395 575.915C407.034 573.797 405.159 571.193 403.9 568.282C402.641 565.37 402.027 562.22 402.102 559.049C402.102 523.748 432.657 444.881 433.615 442.42C433.709 441.827 434.515 441.571 438.745 438.714C442.977 435.855 449.08 435.415 456.884 437.408C457.678 437.611 458.4 438.028 458.973 438.613C459.546 439.198 459.948 439.929 460.134 440.727L461.586 442.824C461.712 443.356 461.962 443.851 462.314 444.269C462.666 444.687 463.112 445.016 463.615 445.231C469.908 447.882 489.913 460.109 483.096 506.122C476.764 548.865 474.195 574.003 473.384 582.827C473.288 583.874 472.828 584.855 472.084 585.598C471.34 586.34 470.359 586.799 469.312 586.893C466.227 587.169 460.93 587.536 454.623 587.536C440.002 587.536 419.946 585.564 409.395 575.915Z" fill="#EDEDED"/>
<path d="M380.047 562.837C379.463 561.645 379.147 560.34 379.122 559.013C379.097 557.686 379.363 556.37 379.902 555.157C380.44 553.944 381.238 552.864 382.239 551.993C383.241 551.122 384.421 550.481 385.696 550.115L416.389 487.39L432.223 499.18L397.189 556.943C397.661 559.127 397.316 561.408 396.219 563.354C395.122 565.301 393.349 566.777 391.236 567.504C389.123 568.23 386.817 568.156 384.755 567.296C382.693 566.436 381.018 564.85 380.047 562.837L380.047 562.837Z" fill="#A0616A"/>
<path d="M433.956 501.454C433.356 501.624 432.722 501.639 432.113 501.499L413.631 497.241C412.703 497.027 411.892 496.466 411.365 495.672C410.838 494.878 410.636 493.913 410.799 492.974L417.422 454.937C417.994 451.38 419.848 448.156 422.636 445.873C424.647 444.259 427.057 443.217 429.611 442.858C432.164 442.498 434.768 442.834 437.147 443.831C438.986 444.582 440.639 445.726 441.991 447.182C443.628 448.902 444.81 451.003 445.43 453.295C446.05 455.587 446.088 457.998 445.542 460.309L436.575 498.717C436.422 499.366 436.099 499.961 435.639 500.443C435.178 500.924 434.597 501.273 433.956 501.454Z" fill="#EDEDED"/>
<path d="M441.753 426.079C440.558 424.859 439.675 423.369 439.181 421.734C438.686 420.1 438.595 418.37 438.914 416.692C439.77 412.213 440.273 409.282 440.368 408.216C440.695 404.568 437.007 401.615 433.358 401.145C433.217 401.127 433.099 401.114 433 401.107C433.093 401.198 433.193 401.291 433.28 401.374C433.973 402.024 434.836 402.835 434.631 403.671C434.507 404.175 434.047 404.532 433.224 404.762C427.518 406.359 423.123 404.893 419.394 400.146C418.345 398.797 417.624 397.223 417.288 395.548C415.952 388.993 419.512 383.405 422.734 379.872C425.391 376.959 429.698 373.423 435.128 373.12C439.352 372.884 444.374 375.315 445.877 379.694C446.586 378.644 447.53 377.772 448.634 377.15C449.738 376.528 450.973 376.171 452.239 376.108C455.122 376.046 457.96 376.835 460.397 378.377C472.306 385.199 477.424 401.45 471.574 413.865C467.893 421.674 459.919 427.488 450.764 429.037C450.191 429.134 449.61 429.184 449.029 429.184C447.67 429.182 446.325 428.906 445.075 428.372C443.825 427.839 442.695 427.059 441.753 426.079Z" fill="black"/>
<path d="M326.579 764H521.579C521.844 764 522.098 763.895 522.286 763.707C522.473 763.52 522.579 763.265 522.579 763C522.579 762.735 522.473 762.48 522.286 762.293C522.098 762.105 521.844 762 521.579 762H326.579C326.313 762 326.059 762.105 325.871 762.293C325.684 762.48 325.579 762.735 325.579 763C325.579 763.265 325.684 763.52 325.871 763.707C326.059 763.895 326.313 764 326.579 764V764Z" fill="black"/>
<defs>
<linearGradient id="paint0_linear_114_202" x1="414.992" y1="174.802" x2="414.992" y2="218.359" gradientUnits="userSpaceOnUse">
<stop stop-color="#FFAB48"/>
<stop offset="1" stop-color="#FA4545"/>
</linearGradient>
<linearGradient id="paint1_linear_114_202" x1="474.327" y1="191.516" x2="474.327" y2="235.073" gradientUnits="userSpaceOnUse">
<stop stop-color="#FFAB48"/>
<stop offset="1" stop-color="#FA4545"/>
</linearGradient>
<linearGradient id="paint2_linear_114_202" x1="426.691" y1="242.494" x2="426.691" y2="286.051" gradientUnits="userSpaceOnUse">
<stop stop-color="#FFAB48"/>
<stop offset="1" stop-color="#FA4545"/>
</linearGradient>
<linearGradient id="paint3_linear_114_202" x1="665.714" y1="346.632" x2="665.714" y2="353.318" gradientUnits="userSpaceOnUse">
<stop stop-color="#FFAB48"/>
<stop offset="1" stop-color="#FA4545"/>
</linearGradient>
<linearGradient id="paint4_linear_114_202" x1="186.754" y1="339.879" x2="186.754" y2="383.436" gradientUnits="userSpaceOnUse">
<stop stop-color="#FFAB48"/>
<stop offset="1" stop-color="#FA4545"/>
</linearGradient>
<linearGradient id="paint5_linear_114_202" x1="369.725" y1="554.922" x2="369.725" y2="598.479" gradientUnits="userSpaceOnUse">
<stop stop-color="#FFAB48"/>
<stop offset="1" stop-color="#FA4545"/>
</linearGradient>
<linearGradient id="paint6_linear_114_202" x1="428.764" y1="559.411" x2="429" y2="623.5" gradientUnits="userSpaceOnUse">
<stop stop-color="#FA4545"/>
<stop offset="1" stop-color="#FFAB48"/>
</linearGradient>
</defs>
</svg>
