<svg width="1236" height="788" viewBox="0 0 1236 788" fill="none" xmlns="http://www.w3.org/2000/svg">
<ellipse cx="618.5" cy="624" rx="544.5" ry="148" fill="#F0F0F0"/>
<path d="M532.047 659.749C532.08 661.283 532.494 662.784 533.252 664.118C534.009 665.453 535.086 666.578 536.385 667.393C537.053 667.809 536.321 668.786 535.657 668.373C534.226 667.466 533.038 666.221 532.198 664.749C531.358 663.277 530.892 661.622 530.839 659.928C530.821 659.768 530.864 659.608 530.959 659.479C531.055 659.351 531.196 659.263 531.354 659.235C531.514 659.212 531.676 659.253 531.806 659.349C531.936 659.446 532.022 659.59 532.047 659.749V659.749Z" fill="white"/>
<path d="M546.039 446.828C547.05 445.822 547.829 444.606 548.319 443.266C548.81 441.926 549.001 440.495 548.879 439.074C548.757 437.652 548.324 436.274 547.612 435.038C546.9 433.801 545.925 432.736 544.757 431.917L560.689 354.811L543.5 360.233L530.682 434.828C529.436 436.882 528.987 439.321 529.42 441.685C529.853 444.048 531.137 446.17 533.03 447.649C534.923 449.128 537.293 449.862 539.69 449.71C542.088 449.559 544.347 448.534 546.039 446.828V446.828Z" fill="#FFCEA9"/>
<path d="M582.865 240.72L572.217 232.682C572.217 232.682 562.824 232.017 561.161 248.956C559.497 265.895 549.081 330.906 549.081 330.906L532.788 406.369L555.342 411.319L572.793 329.882L590.262 273.698L582.865 240.72Z" fill="#EDEDED"/>
<path d="M574.753 380.353L523.678 340.639C522.882 340.019 522.365 339.109 522.24 338.108C522.115 337.107 522.392 336.098 523.01 335.301L557.761 290.608C558.381 289.812 559.291 289.295 560.292 289.17C561.293 289.045 562.302 289.322 563.099 289.94L614.174 329.653C614.97 330.273 615.487 331.184 615.612 332.185C615.737 333.185 615.46 334.195 614.842 334.992L580.091 379.685C579.471 380.48 578.561 380.997 577.56 381.123C576.559 381.248 575.55 380.971 574.753 380.353V380.353Z" fill="black"/>
<path d="M574.472 376.243L527.73 339.899C527.023 339.348 526.564 338.54 526.453 337.651C526.342 336.763 526.588 335.866 527.136 335.159L558.64 294.643C559.19 293.936 559.999 293.477 560.887 293.366C561.776 293.255 562.672 293.501 563.38 294.05L610.122 330.394C610.828 330.945 611.288 331.753 611.399 332.641C611.51 333.53 611.264 334.426 610.715 335.134L579.212 375.65C578.661 376.356 577.853 376.816 576.965 376.927C576.076 377.038 575.18 376.792 574.472 376.243V376.243Z" fill="white"/>
<path d="M533.857 338.868C533.681 338.731 533.566 338.528 533.538 338.306C533.51 338.084 533.572 337.86 533.709 337.683L549.602 317.244C549.739 317.067 549.941 316.952 550.163 316.925C550.273 316.911 550.385 316.919 550.492 316.948C550.599 316.978 550.699 317.028 550.787 317.096C550.874 317.164 550.947 317.248 551.002 317.345C551.057 317.441 551.092 317.547 551.106 317.658C551.12 317.768 551.112 317.879 551.082 317.986C551.053 318.093 551.003 318.193 550.935 318.281L535.042 338.72C534.905 338.896 534.703 339.011 534.481 339.039C534.258 339.067 534.034 339.005 533.857 338.868V338.868Z" fill="#E4E4E4"/>
<path d="M536.492 340.916C536.315 340.778 536.2 340.576 536.173 340.354C536.145 340.132 536.206 339.908 536.343 339.731L552.236 319.292C552.373 319.115 552.575 319 552.798 318.972C553.02 318.945 553.244 319.006 553.421 319.144C553.598 319.281 553.713 319.483 553.74 319.705C553.768 319.928 553.707 320.152 553.569 320.329L537.677 340.768C537.539 340.944 537.337 341.059 537.115 341.087C536.893 341.115 536.669 341.053 536.492 340.916Z" fill="#E4E4E4"/>
<path d="M548.129 331.385C547.952 331.247 547.838 331.045 547.81 330.823C547.782 330.601 547.843 330.377 547.981 330.2L554.87 321.34C554.938 321.252 555.022 321.179 555.119 321.124C555.215 321.069 555.321 321.033 555.432 321.019C555.542 321.005 555.654 321.013 555.761 321.043C555.868 321.072 555.968 321.122 556.055 321.19C556.143 321.259 556.216 321.343 556.271 321.44C556.326 321.536 556.361 321.643 556.375 321.753C556.389 321.863 556.381 321.975 556.351 322.082C556.322 322.189 556.271 322.289 556.203 322.377L549.314 331.236C549.176 331.413 548.974 331.528 548.752 331.556C548.53 331.583 548.306 331.522 548.129 331.385V331.385Z" fill="#E4E4E4"/>
<path d="M551.681 348.771C551.504 348.634 551.389 348.432 551.362 348.209C551.334 347.987 551.395 347.763 551.532 347.586L576.622 315.319C576.69 315.232 576.774 315.158 576.871 315.104C576.967 315.049 577.074 315.013 577.184 315C577.294 314.986 577.405 314.994 577.512 315.023C577.619 315.053 577.719 315.103 577.807 315.171C577.894 315.239 577.968 315.324 578.022 315.42C578.077 315.516 578.112 315.623 578.126 315.733C578.14 315.843 578.132 315.954 578.103 316.061C578.073 316.168 578.023 316.268 577.955 316.356L552.866 348.623C552.728 348.8 552.526 348.914 552.304 348.942C552.082 348.97 551.858 348.908 551.681 348.771V348.771Z" fill="#E4E4E4"/>
<path d="M554.315 350.819C554.138 350.682 554.023 350.48 553.995 350.257C553.968 350.035 554.029 349.811 554.166 349.634L579.256 317.367C579.324 317.28 579.408 317.206 579.505 317.151C579.601 317.097 579.707 317.061 579.817 317.048C579.927 317.034 580.039 317.042 580.146 317.071C580.253 317.101 580.353 317.151 580.441 317.219C580.528 317.287 580.601 317.372 580.656 317.468C580.711 317.564 580.746 317.671 580.76 317.781C580.774 317.891 580.766 318.002 580.736 318.109C580.707 318.216 580.657 318.316 580.589 318.404L555.499 350.671C555.362 350.847 555.16 350.962 554.938 350.99C554.715 351.018 554.491 350.956 554.315 350.819V350.819Z" fill="#E4E4E4"/>
<path d="M560.294 355.469C560.117 355.331 560.003 355.129 559.975 354.907C559.947 354.685 560.008 354.46 560.146 354.284L585.235 322.016C585.303 321.929 585.388 321.856 585.484 321.801C585.581 321.746 585.687 321.711 585.797 321.697C585.907 321.683 586.019 321.691 586.125 321.721C586.232 321.75 586.332 321.8 586.42 321.868C586.507 321.936 586.581 322.021 586.636 322.117C586.69 322.214 586.726 322.32 586.74 322.43C586.753 322.54 586.745 322.652 586.716 322.759C586.686 322.866 586.636 322.966 586.568 323.053L561.479 355.32C561.341 355.497 561.139 355.612 560.917 355.639C560.695 355.667 560.471 355.606 560.294 355.469V355.469Z" fill="#E4E4E4"/>
<path d="M562.928 357.516C562.751 357.379 562.636 357.177 562.609 356.955C562.581 356.733 562.642 356.508 562.779 356.331L587.869 324.064C587.937 323.977 588.022 323.904 588.118 323.849C588.214 323.794 588.321 323.759 588.431 323.745C588.541 323.731 588.652 323.739 588.759 323.768C588.866 323.798 588.966 323.848 589.054 323.916C589.141 323.984 589.215 324.069 589.269 324.165C589.324 324.262 589.36 324.368 589.373 324.478C589.387 324.588 589.379 324.7 589.35 324.806C589.32 324.913 589.27 325.014 589.202 325.101L564.113 357.368C563.975 357.545 563.773 357.66 563.551 357.687C563.329 357.715 563.105 357.654 562.928 357.516V357.516Z" fill="#E4E4E4"/>
<path d="M568.907 362.166C568.73 362.028 568.615 361.826 568.588 361.604C568.56 361.382 568.621 361.158 568.758 360.981L593.848 328.714C593.916 328.626 594.001 328.553 594.097 328.498C594.193 328.443 594.3 328.408 594.41 328.394C594.52 328.38 594.631 328.388 594.738 328.418C594.845 328.447 594.945 328.497 595.033 328.565C595.12 328.634 595.194 328.718 595.248 328.815C595.303 328.911 595.339 329.017 595.352 329.127C595.366 329.237 595.358 329.349 595.329 329.456C595.299 329.563 595.249 329.663 595.181 329.75L570.092 362.017C569.954 362.194 569.752 362.309 569.53 362.337C569.308 362.364 569.084 362.303 568.907 362.166Z" fill="#E4E4E4"/>
<path d="M571.541 364.213C571.364 364.076 571.25 363.874 571.222 363.652C571.194 363.429 571.256 363.205 571.393 363.028L596.482 330.761C596.62 330.585 596.822 330.471 597.044 330.444C597.265 330.416 597.489 330.478 597.665 330.615C597.842 330.752 597.957 330.954 597.985 331.176C598.013 331.397 597.952 331.621 597.815 331.798L572.726 364.065C572.588 364.242 572.386 364.357 572.164 364.384C571.942 364.412 571.718 364.351 571.541 364.213V364.213Z" fill="#E4E4E4"/>
<path d="M529.608 401.688C529.8 401.688 529.955 401.532 529.955 401.341C529.955 401.149 529.8 400.994 529.608 400.994C529.417 400.994 529.262 401.149 529.262 401.341C529.262 401.532 529.417 401.688 529.608 401.688Z" fill="white"/>
<path d="M580.128 162.796C578.908 169.348 576.909 175.73 574.172 181.807C558.498 214.963 603.133 204.156 619.084 204.156C636.524 204.156 653.21 213.327 650.662 172.578C649.573 155.172 636.524 141 619.084 141C604.187 141 583.243 147.621 580.128 162.796Z" fill="black"/>
<path d="M635.34 649.085H620.481L613.41 591.772H635.34V649.085Z" fill="#FFCEA9"/>
<path d="M643.182 674.83H632.527L630.625 664.77L625.753 674.83H597.491C596.136 674.83 594.817 674.397 593.726 673.594C592.635 672.792 591.829 671.661 591.426 670.368C591.022 669.074 591.043 667.686 591.485 666.405C591.927 665.125 592.766 664.019 593.881 663.249L616.45 647.662V637.491L640.189 638.908L643.182 674.83Z" fill="#232323"/>
<path d="M723.617 630.333L711.693 639.2L671.82 597.429L689.418 584.342L723.617 630.333Z" fill="#FFCEA9"/>
<path d="M745.273 646.313L736.722 652.671L729.192 645.733L731.287 656.713L708.608 673.578C707.521 674.386 706.204 674.826 704.849 674.833C703.494 674.84 702.173 674.413 701.078 673.616C699.982 672.819 699.171 671.692 698.761 670.401C698.351 669.11 698.365 667.721 698.8 666.439L707.61 640.463L701.541 632.302L721.436 619.273L745.273 646.313Z" fill="#232323"/>
<path d="M586.675 385.313L657.21 374.327L643.183 332.129H586.675V385.313Z" fill="#FFB6B6"/>
<path d="M608.942 487.301L607.246 513.562L612.21 591.327L636.854 599.812L641.521 520.134L608.942 487.301Z" fill="url(#paint0_linear_111_2)"/>
<path d="M652.639 353.382C652.639 353.382 680.832 377.739 667.824 447.175L651.944 515.21L695.21 590.326L673.21 602.326L619.892 528.221L595.494 470.991L582.589 370.69L652.639 353.382Z" fill="url(#paint1_linear_111_2)"/>
<path d="M601.365 212.896L628.63 213.959L639.497 231.997L664.289 236.837L649.489 311.71L652.21 354.326L627.524 354.176C609.734 354.067 592.529 360.531 579.21 372.326V372.326L579.949 317.006L569.331 275.711L571.717 232.41L591.661 229.917L601.365 212.896Z" fill="#EDEDED"/>
<path d="M616.471 204.148C630.643 204.148 642.131 192.66 642.131 178.488C642.131 164.316 630.643 152.827 616.471 152.827C602.299 152.827 590.81 164.316 590.81 178.488C590.81 192.66 602.299 204.148 616.471 204.148Z" fill="#FFCEA9"/>
<path d="M599.044 152.33C603.541 149.589 608.691 148.106 613.957 148.037C619.223 147.967 624.411 149.314 628.978 151.936C633.545 154.557 637.324 158.358 639.92 162.94C642.515 167.522 643.832 172.718 643.733 177.983C630.657 181.266 616.921 183.778 602.977 178.768L599.684 170.709L597.743 178.774C593.496 180.51 589.239 181.978 584.981 178.757C584.807 173.507 586.015 168.303 588.483 163.665C590.951 159.028 594.592 155.119 599.044 152.33Z" fill="black"/>
<path d="M659.542 406.062L663.001 437.454C663.242 438.237 663.728 438.923 664.387 439.41C665.047 439.897 665.844 440.159 666.664 440.159H682.609C683.429 440.159 684.227 439.897 684.886 439.41C685.545 438.923 686.031 438.238 686.272 437.454L689.137 413.393C689.964 413.799 690.875 414.002 691.796 413.987C692.717 413.971 693.621 413.738 694.434 413.305C695.247 412.872 695.946 412.252 696.472 411.496C696.999 410.741 697.339 409.871 697.464 408.959C697.589 408.046 697.496 407.117 697.192 406.247C696.888 405.378 696.382 404.593 695.715 403.957C695.049 403.322 694.241 402.853 693.358 402.591C692.476 402.328 691.543 402.279 690.637 402.447C690.28 402.024 689.835 401.685 689.332 401.453C688.83 401.221 688.283 401.101 687.73 401.103H663.205C662.606 401.103 662.014 401.243 661.479 401.513C660.943 401.784 660.479 402.176 660.123 402.658C659.766 403.14 659.528 403.7 659.428 404.291C659.327 404.882 659.366 405.488 659.542 406.062V406.062ZM689.638 411.766L691.393 406.062C691.596 405.403 691.616 404.702 691.451 404.033C691.526 404.029 691.596 404.011 691.672 404.011C692.774 404.011 693.831 404.449 694.61 405.228C695.389 406.007 695.827 407.064 695.827 408.166C695.827 409.268 695.389 410.325 694.61 411.104C693.831 411.883 692.774 412.321 691.672 412.321C690.957 412.317 690.256 412.125 689.638 411.766V411.766Z" fill="#565656"/>
<path d="M683.587 440.181C682.58 439.169 681.808 437.949 681.324 436.607C680.84 435.265 680.656 433.833 680.786 432.412C680.915 430.991 681.354 429.615 682.073 428.383C682.791 427.15 683.771 426.089 684.944 425.276L669.404 348.09L686.565 353.6L699.004 428.258C700.239 430.319 700.676 432.761 700.231 435.122C699.786 437.482 698.491 439.598 696.591 441.067C694.69 442.537 692.317 443.258 689.92 443.095C687.523 442.932 685.27 441.895 683.587 440.181V440.181Z" fill="#FFCEA9"/>
<path d="M653.641 244.874L664.289 236.837C664.289 236.837 673.681 236.171 675.345 253.11C677.009 270.049 687.424 335.06 687.424 335.06L703.717 410.523L681.164 415.474L663.713 334.036L646.244 277.852L653.641 244.874Z" fill="#EDEDED"/>
<path d="M561.745 315.138C565.074 315.138 567.772 312.439 567.772 309.11C567.772 305.782 565.074 303.083 561.745 303.083C558.416 303.083 555.718 305.782 555.718 309.11C555.718 312.439 558.416 315.138 561.745 315.138Z" fill="#B1B4C4"/>
<path d="M369.545 719.006L382.106 719.005L388.082 670.556L369.543 670.557L369.545 719.006Z" fill="#FFCEA9"/>
<path d="M366.341 714.905L369.876 714.904L383.68 709.291L391.078 714.904H391.079C395.26 714.904 399.269 716.565 402.226 719.521C405.182 722.477 406.843 726.487 406.843 730.668V731.18L366.342 731.182L366.341 714.905Z" fill="#232323"/>
<path d="M418.221 711.09L430.474 713.857L446.975 667.914L428.891 663.831L418.221 711.09Z" fill="#FFCEA9"/>
<path d="M415.999 706.384L419.448 707.163L434.149 704.728L440.129 711.832L440.13 711.832C444.208 712.753 447.753 715.257 449.986 718.792C452.218 722.326 452.955 726.603 452.035 730.682L451.922 731.181L412.415 722.261L415.999 706.384Z" fill="#232323"/>
<path d="M346.55 469.79L357.908 597.05C357.908 597.05 353.652 673.451 367.385 700.336H387.302L397.163 590.073L398.402 516.064L441.101 578.503L413.904 698.533L438.417 700.725L482.55 570.463L434.065 448.179L346.55 469.79Z" fill="url(#paint2_linear_111_2)"/>
<path d="M358.446 267.132C374.624 267.132 387.739 254.017 387.739 237.839C387.739 221.661 374.624 208.546 358.446 208.546C342.268 208.546 329.153 221.661 329.153 237.839C329.153 254.017 342.268 267.132 358.446 267.132Z" fill="#FFCEA9"/>
<path d="M409.941 295.046L385.909 284.735L374.21 272.326L344.985 277.04L337.231 290.335L312.13 313.675L341.539 446.648L340.649 475.691C340.649 475.691 359.471 484.165 441.101 464.655C442.08 464.421 440.031 463.396 440.031 463.396L409.941 295.046Z" fill="#EDEDED"/>
<path d="M327.986 254.46C327.781 254.181 327.579 253.9 327.379 253.617C327.299 253.787 327.235 253.963 327.143 254.129L327.986 254.46Z" fill="#352E41"/>
<path d="M387.584 216.412C385.626 212.146 382.135 208.773 377.805 206.964C373.512 205.232 368.715 205.237 364.426 206.975C360.553 204.529 356.25 202.589 351.719 202.349C347.187 202.108 342.396 203.79 339.604 207.49C338.98 208.467 338.272 209.387 337.487 210.24C335.242 212.319 331.831 212.019 328.847 211.594C330.186 212.741 331.524 213.888 332.863 215.035C331.243 215.458 329.623 215.881 328.003 216.304C329.893 217.451 331.784 218.597 333.674 219.744C328.186 223.038 325.692 230.228 326.351 236.757C326.974 242.939 329.958 248.592 333.526 253.617C334.95 250.614 334.643 247.02 334.62 243.637C334.595 240.063 335.227 236.004 338.091 234.006C340.023 232.659 342.508 232.599 344.838 232.611C356.589 232.676 368.328 233.409 379.997 234.806C381.58 234.875 383.124 235.323 384.498 236.112C387.079 237.872 387.581 241.505 387.841 244.692C389.204 239.43 389.871 234.011 389.825 228.575C389.94 224.408 389.176 220.264 387.584 216.412V216.412Z" fill="black"/>
<path d="M396.704 559C422.167 559 442.809 538.358 442.809 512.895C442.809 487.432 422.167 466.79 396.704 466.79C371.241 466.79 350.599 487.432 350.599 512.895C350.599 538.358 371.241 559 396.704 559Z" fill="white"/>
<path d="M396.704 465.765C394.334 465.765 391.968 465.943 389.625 466.297C388.426 466.472 387.258 466.697 386.1 466.974C377.595 468.934 369.801 473.22 363.589 479.351C357.377 485.483 352.991 493.22 350.92 501.7C348.849 510.179 349.175 519.067 351.861 527.372C354.547 535.677 359.488 543.073 366.132 548.733C366.921 549.399 367.72 550.045 368.55 550.66C374.531 555.119 381.486 558.095 388.842 559.341C396.198 560.588 403.745 560.07 410.862 557.83C417.979 555.59 424.462 551.692 429.778 546.456C435.093 541.221 439.09 534.798 441.439 527.717C443.787 520.635 444.421 513.097 443.287 505.723C442.153 498.348 439.284 491.349 434.916 485.3C430.548 479.251 424.806 474.326 418.163 470.929C411.52 467.533 404.165 465.763 396.704 465.765V465.765ZM396.704 557.975C387.119 557.985 377.782 554.922 370.066 549.236C369.226 548.621 368.417 547.986 367.628 547.309C361.154 541.849 356.351 534.674 353.769 526.608C351.187 518.543 350.93 509.913 353.029 501.708C355.127 493.503 359.496 486.056 365.634 480.22C371.771 474.385 379.429 470.397 387.73 468.715C388.877 468.48 390.024 468.295 391.192 468.152C393.021 467.925 394.862 467.813 396.704 467.814C408.661 467.814 420.127 472.563 428.581 481.018C437.036 489.472 441.785 500.938 441.785 512.894C441.785 524.851 437.036 536.317 428.581 544.771C420.127 553.225 408.661 557.975 396.704 557.975V557.975Z" fill="black"/>
<path d="M374.09 503.674H419.318C420.975 503.674 422.318 502.331 422.318 500.674V500.526C422.318 498.87 420.975 497.526 419.318 497.526H374.09C372.434 497.526 371.09 498.87 371.09 500.526V500.674C371.09 502.331 372.434 503.674 374.09 503.674Z" fill="#B1B4C4"/>
<path d="M374.09 515.969H419.318C420.975 515.969 422.318 514.626 422.318 512.969V512.821C422.318 511.165 420.975 509.821 419.318 509.821H374.09C372.434 509.821 371.09 511.165 371.09 512.821V512.969C371.09 514.626 372.434 515.969 374.09 515.969Z" fill="#B1B4C4"/>
<path d="M374.09 528.264H419.318C420.975 528.264 422.318 526.921 422.318 525.264V525.116C422.318 523.459 420.975 522.116 419.318 522.116H374.09C372.434 522.116 371.09 523.459 371.09 525.116V525.264C371.09 526.921 372.434 528.264 374.09 528.264Z" fill="#B1B4C4"/>
<path d="M912.52 717.442L899.349 717.441L893.083 666.639L912.522 666.64L912.52 717.442Z" fill="#9E616A"/>
<path d="M850.209 717.442L837.039 717.441L830.773 666.639L850.212 666.64L850.209 717.442Z" fill="#9E616A"/>
<path d="M850.673 731.182L810.171 731.18V730.668C810.172 726.487 811.833 722.477 814.789 719.521C817.745 716.565 821.755 714.904 825.936 714.904H825.937L833.335 709.291L847.138 714.904L850.674 714.905L850.673 731.182Z" fill="#232323"/>
<path d="M914.673 731.182L874.171 731.18V730.668C874.172 726.487 875.833 722.477 878.789 719.521C881.745 716.565 885.755 714.904 889.936 714.904H889.937L897.335 709.291L911.138 714.904L914.674 714.905L914.673 731.182Z" fill="#232323"/>
<path d="M837.29 416.779L817.273 538.663L822.721 556.826L815.572 569.69L826.07 682.66L821.808 692.041L833.714 699.384H857.94L859.226 597.111L865.21 582.095V573.819L877.392 511.456L879.635 598.792L883.179 613.831L880.202 624.539L884.091 632.041L894.423 701.612H921.588L919.487 685.427C921.853 684.229 923.754 682.278 924.891 679.882C926.028 677.486 926.336 674.78 925.768 672.189L924.21 665.095L927.755 644.119L934.21 527.095L932.39 432.672L900.612 408.371L837.29 416.779Z" fill="url(#paint3_linear_111_2)"/>
<path d="M883.179 260.265C897.118 260.265 908.418 248.965 908.418 235.026C908.418 221.087 897.118 209.787 883.179 209.787C869.24 209.787 857.94 221.087 857.94 235.026C857.94 248.965 869.24 260.265 883.179 260.265Z" fill="#9E616A"/>
<path d="M828.035 465.146C829.133 464.011 829.97 462.649 830.485 461.156C831 459.663 831.181 458.076 831.016 456.505C830.851 454.934 830.344 453.419 829.53 452.065C828.716 450.712 827.615 449.553 826.305 448.671L836.12 411.557L817.211 417.917L810.79 452.187C809.454 454.486 809.008 457.195 809.536 459.801C810.065 462.407 811.531 464.729 813.656 466.326C815.782 467.923 818.42 468.686 821.07 468.468C823.72 468.251 826.198 467.069 828.035 465.146H828.035Z" fill="#9E616A"/>
<path d="M838.364 286.951L834.305 286.108L830.844 288.025C830.844 288.025 821.175 300.917 821.175 312.734C821.175 324.552 809.357 438.429 809.357 438.429L830.844 448.098L848.033 358.93L838.364 286.951Z" fill="#EDEDED"/>
<path d="M905.281 216.522C905.281 216.522 911.882 203.902 897.36 202.755C897.36 202.755 884.979 191.524 872.359 200.702C872.359 200.702 865.476 200.702 861.712 208.491C861.712 208.491 856.298 206.438 855.109 211.933C855.109 211.933 851.147 223.405 855.109 233.73C859.07 244.055 860.386 245.202 860.386 245.202C860.386 245.202 853.877 223.555 869.721 222.408C885.565 221.261 903.295 211.359 904.616 223.979C905.936 236.598 907.923 239.707 907.923 239.707C907.923 239.707 920.465 221.684 905.281 216.522Z" fill="black"/>
<path d="M997.477 569.689C995.572 569.692 993.734 568.99 992.314 567.719L915.934 499.728C914.394 498.355 913.463 496.427 913.343 494.368C913.224 492.309 913.926 490.286 915.295 488.744L964.226 433.776C965.599 432.237 967.526 431.305 969.586 431.185C971.645 431.065 973.668 431.767 975.21 433.137L1051.59 501.13C1053.13 502.501 1054.07 504.429 1054.19 506.489C1054.31 508.549 1053.6 510.572 1052.23 512.113L1003.3 567.081C1002.62 567.846 1001.8 568.47 1000.88 568.915C999.959 569.361 998.96 569.619 997.939 569.675C997.785 569.685 997.631 569.689 997.477 569.689Z" fill="white"/>
<path d="M997.476 570.189C995.449 570.192 993.492 569.446 991.982 568.094L915.601 500.102C913.963 498.641 912.971 496.589 912.844 494.397C912.717 492.205 913.464 490.053 914.922 488.411L963.852 433.443C965.314 431.806 967.365 430.814 969.557 430.687C971.748 430.559 973.901 431.306 975.543 432.764L1051.92 500.756C1053.56 502.216 1054.56 504.268 1054.68 506.46C1054.81 508.653 1054.06 510.806 1052.6 512.446L1003.67 567.414C1002.95 568.229 1002.08 568.892 1001.1 569.366C1000.12 569.84 999.054 570.115 997.968 570.176C997.803 570.185 997.64 570.189 997.476 570.189ZM970.04 432.671C969.154 432.669 968.277 432.856 967.467 433.218C966.658 433.581 965.935 434.111 965.346 434.773L916.416 489.741C915.31 490.986 914.743 492.619 914.84 494.281C914.936 495.944 915.688 497.5 916.931 498.608L993.312 566.6C993.928 567.148 994.646 567.57 995.425 567.841C996.204 568.112 997.029 568.226 997.852 568.179C998.675 568.131 999.481 567.921 1000.22 567.562C1000.97 567.202 1001.63 566.7 1002.18 566.084L1051.11 511.116C1052.22 509.872 1052.78 508.239 1052.69 506.576C1052.59 504.914 1051.84 503.357 1050.59 502.25L974.213 434.258C973.064 433.234 971.579 432.669 970.04 432.671H970.04Z" fill="black"/>
<path d="M1025.17 517.632C1024.35 517.633 1023.55 517.33 1022.94 516.781L962.982 463.41C962.65 463.117 962.379 462.76 962.185 462.362C961.991 461.964 961.878 461.531 961.851 461.089C961.825 460.647 961.886 460.204 962.031 459.785C962.176 459.366 962.403 458.981 962.697 458.65C962.992 458.319 963.349 458.049 963.748 457.857C964.147 457.664 964.58 457.552 965.022 457.527C965.464 457.502 965.907 457.564 966.325 457.711C966.744 457.858 967.129 458.085 967.459 458.381L1027.42 511.752C1027.93 512.206 1028.29 512.804 1028.45 513.467C1028.61 514.13 1028.57 514.827 1028.32 515.465C1028.08 516.103 1027.65 516.651 1027.09 517.039C1026.52 517.426 1025.86 517.633 1025.17 517.632V517.632Z" fill="#B1B4C4"/>
<path d="M1013.74 530.478C1012.91 530.479 1012.12 530.177 1011.5 529.628L951.546 476.256C951.216 475.962 950.947 475.606 950.754 475.208C950.561 474.81 950.449 474.379 950.424 473.937C950.398 473.496 950.46 473.054 950.605 472.636C950.75 472.219 950.976 471.834 951.27 471.504C951.564 471.174 951.92 470.905 952.318 470.712C952.716 470.52 953.148 470.407 953.589 470.382C954.031 470.356 954.473 470.418 954.89 470.563C955.308 470.708 955.693 470.934 956.023 471.228L1015.98 524.599C1016.49 525.053 1016.85 525.651 1017.01 526.314C1017.17 526.977 1017.13 527.674 1016.89 528.312C1016.64 528.95 1016.21 529.498 1015.65 529.885C1015.09 530.272 1014.42 530.479 1013.74 530.478H1013.74Z" fill="#B1B4C4"/>
<path d="M1002.3 543.327C1001.48 543.329 1000.68 543.025 1000.06 542.476L940.108 489.106C939.778 488.812 939.508 488.456 939.315 488.057C939.122 487.659 939.009 487.227 938.983 486.785C938.957 486.344 939.019 485.901 939.164 485.483C939.309 485.065 939.536 484.68 939.83 484.35C940.124 484.019 940.48 483.75 940.879 483.557C941.277 483.365 941.709 483.253 942.151 483.227C942.593 483.202 943.035 483.264 943.453 483.409C943.871 483.555 944.256 483.782 944.586 484.076L1004.54 537.447C1005.05 537.901 1005.41 538.499 1005.57 539.162C1005.74 539.825 1005.69 540.522 1005.45 541.16C1005.21 541.798 1004.78 542.347 1004.21 542.734C1003.65 543.121 1002.98 543.328 1002.3 543.327H1002.3Z" fill="#B1B4C4"/>
<path d="M933.737 467.336C932.968 465.957 932.51 464.426 932.397 462.85C932.283 461.275 932.516 459.694 933.08 458.219C933.643 456.743 934.523 455.41 935.658 454.311C936.793 453.213 938.155 452.376 939.648 451.861L939.712 413.471L956.348 424.482L953.736 459.25C954.435 461.815 954.169 464.548 952.988 466.93C951.807 469.313 949.794 471.179 947.328 472.176C944.863 473.173 942.118 473.23 939.613 472.338C937.108 471.446 935.018 469.667 933.737 467.336H933.737Z" fill="#9E616A"/>
<path d="M935.275 297.471L942.707 290.308L948.167 294.248C948.167 294.248 953.538 300.694 957.836 320.032C962.133 339.369 957.836 445.727 957.836 445.727L934.201 442.504L937.424 386.639L927.755 339.369L935.275 297.471Z" fill="#EDEDED"/>
<path d="M946.249 292.055L921.21 280.095L904.21 264.327L873.21 264.095L863.21 277.095L836.81 286.063L841.21 377.095L838.21 384.095C838.21 384.095 840.3 385.983 841.255 387.039C842.21 388.095 839.935 396.935 839.935 396.935L838.653 406.553L842.21 409.095L837.586 414.557L836.438 423.167C836.438 423.167 917.153 403.105 932.404 436.339C933.21 438.095 931.226 420.934 931.226 420.934L929.242 408.371L931.21 397.095L934.21 394.095L929.178 389.063L932.404 365.189L946.249 292.055Z" fill="#EDEDED"/>
<path d="M378.41 493.866C379.031 492.288 379.299 490.593 379.194 488.901C379.09 487.208 378.616 485.559 377.805 484.07C376.994 482.58 375.867 481.287 374.502 480.28C373.137 479.274 371.568 478.579 369.906 478.244L364.344 437.4L348.216 451.498L355.971 488.122C355.594 490.953 356.268 493.823 357.866 496.189C359.463 498.555 361.873 500.253 364.639 500.961C367.405 501.669 370.334 501.338 372.872 500.03C375.41 498.722 377.381 496.529 378.41 493.866V493.866Z" fill="#FFCEA9"/>
<path d="M315.225 312.929L310.853 313.766L308.211 317.093C308.211 317.093 303.937 333.859 308.806 345.576C313.675 357.293 348.882 475.073 348.882 475.073L374.17 475.806L354.471 380.312L315.225 312.929Z" fill="#EDEDED"/>
<path d="M414.917 487.875C413.752 486.642 412.871 485.17 412.337 483.56C411.803 481.951 411.628 480.244 411.825 478.559C412.022 476.875 412.586 475.255 413.477 473.812C414.368 472.369 415.564 471.139 416.982 470.209L406.915 430.236L427.135 437.304L433.596 474.179C435.001 476.664 435.445 479.579 434.845 482.37C434.245 485.161 432.642 487.635 430.339 489.324C428.037 491.012 425.195 491.797 422.353 491.53C419.51 491.263 416.864 489.962 414.917 487.875V487.875Z" fill="#FFCEA9"/>
<path d="M406.082 296.426L410.45 295.573L414.142 297.675C414.142 297.675 424.36 311.638 424.21 324.326C424.061 337.014 435.308 459.428 435.308 459.428L412.117 469.537L394.79 373.584L406.082 296.426Z" fill="#EDEDED"/>
<defs>
<linearGradient id="paint0_linear_111_2" x1="624" y1="421" x2="624.384" y2="599.812" gradientUnits="userSpaceOnUse">
<stop stop-color="#FA4545"/>
<stop offset="0.484375" stop-color="#FFAB48"/>
</linearGradient>
<linearGradient id="paint1_linear_111_2" x1="638.9" y1="353.382" x2="638.9" y2="602.326" gradientUnits="userSpaceOnUse">
<stop stop-color="#FA4545"/>
<stop offset="0.5" stop-color="#FFAB48"/>
</linearGradient>
<linearGradient id="paint2_linear_111_2" x1="414.55" y1="448.179" x2="414.55" y2="700.725" gradientUnits="userSpaceOnUse">
<stop stop-color="#FA4545"/>
<stop offset="0.5" stop-color="#FFAB48"/>
</linearGradient>
<linearGradient id="paint3_linear_111_2" x1="874.891" y1="408.371" x2="874.891" y2="701.612" gradientUnits="userSpaceOnUse">
<stop stop-color="#FA4545"/>
<stop offset="0.5" stop-color="#FFAB48"/>
</linearGradient>
</defs>
</svg>
