<svg width="1440" height="240" viewBox="0 0 1440 240" fill="none" xmlns="http://www.w3.org/2000/svg">
<g clip-path="url(#clip0_52_15)">
<path d="M1440 144L1413.3 124C1386.7 104 1333 64 1280 56C1226.7 48 1173 72 1120 96C1066.7 120 1013 144 960 156C906.7 168 853 168 800 148C746.7 128 693 88 640 64C586.7 40 533 32 480 48C426.7 64 373 104 320 108C266.7 112 213 80 160 96C106.7 112 53 176 0 180C-53.3 184 -107 128 -160 124C-213.3 120 -267 168 -320 180C-373.3 192 -427 168 -480 148C-533.3 128 -587 112 -640 92C-693.3 72 -747 48 -800 68C-853.3 88 -907 152 -960 180C-1013.3 208 -1067 200 -1120 184C-1173.3 168 -1227 144 -1280 152C-1333.3 160 -1387 200 -1440 200C-1493.3 200 -1547 160 -1600 128C-1653.3 96 -1707 72 -1760 68C-1813.3 64 -1867 80 -1920 112C-1973.3 144 -2027 192 -2080 192C-2133.3 192 -2187 144 -2240 108C-2293.3 72 -2347 48 -2373 36L-2400 24V0H-2373.3C-2346.7 0 -2293 0 -2240 0C-2186.7 0 -2133 0 -2080 0C-2026.7 0 -1973 0 -1920 0C-1866.7 0 -1813 0 -1760 0C-1706.7 0 -1653 0 -1600 0C-1546.7 0 -1493 0 -1440 0C-1386.7 0 -1333 0 -1280 0C-1226.7 0 -1173 0 -1120 0C-1066.7 0 -1013 0 -960 0C-906.7 0 -853 0 -800 0C-746.7 0 -693 0 -640 0C-586.7 0 -533 0 -480 0C-426.7 0 -373 0 -320 0C-266.7 0 -213 0 -160 0C-106.7 0 -53 0 0 0C53.3 0 107 0 160 0C213.3 0 267 0 320 0C373.3 0 427 0 480 0C533.3 0 587 0 640 0C693.3 0 747 0 800 0C853.3 0 907 0 960 0C1013.3 0 1067 0 1120 0C1173.3 0 1227 0 1280 0C1333.3 0 1387 0 1413 0H1440V144Z" fill="url(#paint0_linear_52_15)"/>
<path opacity="0.9" d="M1440 216L1413.3 208C1386.7 200 1333 184 1280 152C1226.7 120 1173 71.9999 1120 51.9999C1066.7 31.9999 1013 39.9999 960 63.9999C906.7 87.9999 853 128 800 156C746.7 184 693 200 640 204C586.7 208 533 200 480 184C426.7 168 373 144 320 116C266.7 87.9999 213 55.9999 160 55.9999C106.7 55.9999 53 87.9999 0 124C-53.3 160 -107 200 -160 200C-213.3 200 -267 160 -320 124C-373.3 87.9999 -427 55.9999 -480 71.9999C-533.3 87.9999 -587 152 -640 160C-693.3 168 -747 120 -800 120C-853.3 120 -907 168 -960 192C-1013.3 216 -1067 216 -1120 192C-1173.3 168 -1227 120 -1280 120C-1333.3 120 -1387 168 -1440 196C-1493.3 224 -1547 232 -1600 224C-1653.3 216 -1707 192 -1760 156C-1813.3 120 -1867 71.9999 -1920 51.9999C-1973.3 31.9999 -2027 39.9999 -2080 71.9999C-2133.3 104 -2187 160 -2240 156C-2293.3 152 -2347 87.9999 -2373 55.9999L-2400 23.9999V-7.62939e-05H-2373.3C-2346.7 -7.62939e-05 -2293 -7.62939e-05 -2240 -7.62939e-05C-2186.7 -7.62939e-05 -2133 -7.62939e-05 -2080 -7.62939e-05C-2026.7 -7.62939e-05 -1973 -7.62939e-05 -1920 -7.62939e-05C-1866.7 -7.62939e-05 -1813 -7.62939e-05 -1760 -7.62939e-05C-1706.7 -7.62939e-05 -1653 -7.62939e-05 -1600 -7.62939e-05C-1546.7 -7.62939e-05 -1493 -7.62939e-05 -1440 -7.62939e-05C-1386.7 -7.62939e-05 -1333 -7.62939e-05 -1280 -7.62939e-05C-1226.7 -7.62939e-05 -1173 -7.62939e-05 -1120 -7.62939e-05C-1066.7 -7.62939e-05 -1013 -7.62939e-05 -960 -7.62939e-05C-906.7 -7.62939e-05 -853 -7.62939e-05 -800 -7.62939e-05C-746.7 -7.62939e-05 -693 -7.62939e-05 -640 -7.62939e-05C-586.7 -7.62939e-05 -533 -7.62939e-05 -480 -7.62939e-05C-426.7 -7.62939e-05 -373 -7.62939e-05 -320 -7.62939e-05C-266.7 -7.62939e-05 -213 -7.62939e-05 -160 -7.62939e-05C-106.7 -7.62939e-05 -53 -7.62939e-05 0 -7.62939e-05C53.3 -7.62939e-05 107 -7.62939e-05 160 -7.62939e-05C213.3 -7.62939e-05 267 -7.62939e-05 320 -7.62939e-05C373.3 -7.62939e-05 427 -7.62939e-05 480 -7.62939e-05C533.3 -7.62939e-05 587 -7.62939e-05 640 -7.62939e-05C693.3 -7.62939e-05 747 -7.62939e-05 800 -7.62939e-05C853.3 -7.62939e-05 907 -7.62939e-05 960 -7.62939e-05C1013.3 -7.62939e-05 1067 -7.62939e-05 1120 -7.62939e-05C1173.3 -7.62939e-05 1227 -7.62939e-05 1280 -7.62939e-05C1333.3 -7.62939e-05 1387 -7.62939e-05 1413 -7.62939e-05H1440V216Z" fill="url(#paint1_linear_52_15)"/>
</g>
<defs>
<linearGradient id="paint0_linear_52_15" x1="1440" y1="0" x2="1440" y2="200" gradientUnits="userSpaceOnUse">
<stop stop-color="#FFAB48"/>
<stop offset="1" stop-color="#FA4545"/>
</linearGradient>
<linearGradient id="paint1_linear_52_15" x1="1440" y1="-7.62939e-05" x2="1440" y2="226.94" gradientUnits="userSpaceOnUse">
<stop stop-color="#FFAB48"/>
<stop offset="1" stop-color="#FA4545"/>
</linearGradient>
<clipPath id="clip0_52_15">
<rect width="1440" height="240" fill="white" transform="translate(1440 240) rotate(-180)"/>
</clipPath>
</defs>
</svg>
