<svg width="1440" height="240" viewBox="0 0 1440 240" fill="none" xmlns="http://www.w3.org/2000/svg">
<g clip-path="url(#clip0_8_61)">
<path d="M0 96L26.7 116C53.3 136 107 176 160 184C213.3 192 267 168 320 144C373.3 120 427 96 480 84C533.3 72 587 72 640 92C693.3 112 747 152 800 176C853.3 200 907 208 960 192C1013.3 176 1067 136 1120 132C1173.3 128 1227 160 1280 144C1333.3 128 1387 64 1440 60C1493.3 56 1547 112 1600 116C1653.3 120 1707 72 1760 60C1813.3 48 1867 72 1920 92C1973.3 112 2027 128 2080 148C2133.3 168 2187 192 2240 172C2293.3 152 2347 88 2400 60C2453.3 32 2507 40 2560 56C2613.3 72 2667 96 2720 88C2773.3 80 2827 40 2880 40C2933.3 40 2987 80 3040 112C3093.3 144 3147 168 3200 172C3253.3 176 3307 160 3360 128C3413.3 96 3467 48 3520 48C3573.3 48 3627 96 3680 132C3733.3 168 3787 192 3813 204L3840 216V240H3813.3C3786.7 240 3733 240 3680 240C3626.7 240 3573 240 3520 240C3466.7 240 3413 240 3360 240C3306.7 240 3253 240 3200 240C3146.7 240 3093 240 3040 240C2986.7 240 2933 240 2880 240C2826.7 240 2773 240 2720 240C2666.7 240 2613 240 2560 240C2506.7 240 2453 240 2400 240C2346.7 240 2293 240 2240 240C2186.7 240 2133 240 2080 240C2026.7 240 1973 240 1920 240C1866.7 240 1813 240 1760 240C1706.7 240 1653 240 1600 240C1546.7 240 1493 240 1440 240C1386.7 240 1333 240 1280 240C1226.7 240 1173 240 1120 240C1066.7 240 1013 240 960 240C906.7 240 853 240 800 240C746.7 240 693 240 640 240C586.7 240 533 240 480 240C426.7 240 373 240 320 240C266.7 240 213 240 160 240C106.7 240 53 240 27 240H0V96Z" fill="url(#paint0_linear_8_61)"/>
<path opacity="0.9" d="M0 24L26.7 32C53.3 40 107 56 160 88C213.3 120 267 168 320 188C373.3 208 427 200 480 176C533.3 152 587 112 640 84C693.3 56 747 40 800 36C853.3 32 907 40 960 56C1013.3 72 1067 96 1120 124C1173.3 152 1227 184 1280 184C1333.3 184 1387 152 1440 116C1493.3 80 1547 40 1600 40C1653.3 40 1707 80 1760 116C1813.3 152 1867 184 1920 168C1973.3 152 2027 88 2080 80C2133.3 72 2187 120 2240 120C2293.3 120 2347 72 2400 48C2453.3 24 2507 24 2560 48C2613.3 72 2667 120 2720 120C2773.3 120 2827 72 2880 44C2933.3 16 2987 8 3040 16C3093.3 24 3147 48 3200 84C3253.3 120 3307 168 3360 188C3413.3 208 3467 200 3520 168C3573.3 136 3627 80 3680 84C3733.3 88 3787 152 3813 184L3840 216V240H3813.3C3786.7 240 3733 240 3680 240C3626.7 240 3573 240 3520 240C3466.7 240 3413 240 3360 240C3306.7 240 3253 240 3200 240C3146.7 240 3093 240 3040 240C2986.7 240 2933 240 2880 240C2826.7 240 2773 240 2720 240C2666.7 240 2613 240 2560 240C2506.7 240 2453 240 2400 240C2346.7 240 2293 240 2240 240C2186.7 240 2133 240 2080 240C2026.7 240 1973 240 1920 240C1866.7 240 1813 240 1760 240C1706.7 240 1653 240 1600 240C1546.7 240 1493 240 1440 240C1386.7 240 1333 240 1280 240C1226.7 240 1173 240 1120 240C1066.7 240 1013 240 960 240C906.7 240 853 240 800 240C746.7 240 693 240 640 240C586.7 240 533 240 480 240C426.7 240 373 240 320 240C266.7 240 213 240 160 240C106.7 240 53 240 27 240H0V24Z" fill="url(#paint1_linear_8_61)"/>
</g>
<defs>
<linearGradient id="paint0_linear_8_61" x1="0" y1="240" x2="0" y2="40" gradientUnits="userSpaceOnUse">
<stop stop-color="#FFAB48"/>
<stop offset="1" stop-color="#FA4545"/>
</linearGradient>
<linearGradient id="paint1_linear_8_61" x1="0" y1="240" x2="0" y2="13.0597" gradientUnits="userSpaceOnUse">
<stop stop-color="#FFAB48"/>
<stop offset="1" stop-color="#FA4545"/>
</linearGradient>
<clipPath id="clip0_8_61">
<rect width="1440" height="240" fill="white"/>
</clipPath>
</defs>
</svg>
